SplineFontDB: 3.0
FontName: Cantarell-Regular
FullName: Cantarell Regular
FamilyName: Cantarell
Weight: Medium
Copyright: Copyright (c) 2009 Dave Crossland <dave@lab6.com>
Version: 001.001
ItalicAngle: 0
UnderlinePosition: 0
UnderlineWidth: 0
Ascent: 1514
Descent: 534
LayerCount: 2
Layer: 0 1 "Back"  1
Layer: 1 1 "Fore"  0
XUID: [1021 558 1292766112 11089949]
FSType: 0
OS2Version: 1
OS2_WeightWidthSlopeOnly: 0
OS2_UseTypoMetrics: 1
CreationTime: 1236980653
ModificationTime: 1313444386
PfmFamily: 17
TTFWeight: 500
TTFWidth: 5
LineGap: 211
VLineGap: 0
Panose: 2 0 6 3 0 0 0 0 0 0
OS2TypoAscent: 0
OS2TypoAOffset: 1
OS2TypoDescent: 0
OS2TypoDOffset: 1
OS2TypoLinegap: 211
OS2WinAscent: 0
OS2WinAOffset: 1
OS2WinDescent: 0
OS2WinDOffset: 1
HheadAscent: 0
HheadAOffset: 1
HheadDescent: 0
HheadDOffset: 1
OS2SubXSize: 1331
OS2SubYSize: 1433
OS2SubXOff: 0
OS2SubYOff: 286
OS2SupXSize: 1331
OS2SupYSize: 1433
OS2SupXOff: 0
OS2SupYOff: 983
OS2StrikeYSize: 102
OS2StrikeYPos: 530
OS2FamilyClass: 2050
OS2Vendor: 'ABAT'
OS2CodePages: 00000093.00000000
OS2UnicodeRanges: a000006f.4000000a.00000000.00000000
DEI: 91125
ShortTable: cvt  2
  68
  1297
EndShort
ShortTable: maxp 16
  1
  0
  391
  99
  7
  62
  4
  2
  0
  1
  1
  0
  64
  46
  3
  1
EndShort

StartChar: .notdef
Encoding: 65536 -1 0
Width: 748
Flags: W
LayerCount: 2
Fore
SplineSet
68 0 m 1,0,-1
 68 1365 l 1,1,-1
 612 1365 l 1,2,-1
 612 0 l 1,3,-1
 68 0 l 1,0,-1
136 68 m 1,4,-1
 544 68 l 1,5,-1
 544 1297 l 1,6,-1
 136 1297 l 1,7,-1
 136 68 l 1,4,-1
EndSplineSet
EndChar

StartChar: exclam
Encoding: 33 33 4
Width: 650
Flags: W
LayerCount: 2
Fore
SplineSet
225 200 m 1,0,-1
 425 200 l 1,1,-1
 425 0 l 1,2,-1
 225 0 l 1,3,-1
 225 200 l 1,0,-1
240 1421 m 1,4,-1
 410 1421 l 1,5,-1
 410 458 l 1,6,-1
 240 458 l 1,7,-1
 240 1421 l 1,4,-1
EndSplineSet
EndChar

StartChar: quotedbl
Encoding: 34 34 5
Width: 795
Flags: W
LayerCount: 2
Fore
SplineSet
500 1511 m 1,0,-1
 685 1511 l 1,1,-1
 685 1083 l 1,2,-1
 500 1083 l 1,3,-1
 500 1511 l 1,0,-1
110 1511 m 1,4,-1
 295 1511 l 1,5,-1
 295 1083 l 1,6,-1
 110 1083 l 1,7,-1
 110 1511 l 1,4,-1
EndSplineSet
EndChar

StartChar: numbersign
Encoding: 35 35 6
Width: 1402
Flags: W
LayerCount: 2
Fore
SplineSet
363 1421 m 1,0,-1
 523 1421 l 1,1,-1
 523 1030 l 1,2,-1
 881 1030 l 1,3,-1
 881 1421 l 1,4,-1
 1041 1421 l 1,5,-1
 1041 1030 l 1,6,-1
 1357 1030 l 1,7,-1
 1357 880 l 1,8,-1
 1041 880 l 1,9,-1
 1041 528 l 1,10,-1
 1357 528 l 1,11,-1
 1357 378 l 1,12,-1
 1041 378 l 1,13,-1
 1041 -30 l 1,14,-1
 881 -30 l 1,15,-1
 881 378 l 1,16,-1
 523 378 l 1,17,-1
 523 -30 l 1,18,-1
 363 -30 l 1,19,-1
 363 378 l 1,20,-1
 47 378 l 1,21,-1
 47 528 l 1,22,-1
 363 528 l 1,23,-1
 363 880 l 1,24,-1
 45 880 l 1,25,-1
 45 1030 l 1,26,-1
 363 1030 l 1,27,-1
 363 1421 l 1,0,-1
523 880 m 1,28,-1
 523 528 l 1,29,-1
 881 528 l 1,30,-1
 881 880 l 1,31,-1
 523 880 l 1,28,-1
EndSplineSet
EndChar

StartChar: dollar
Encoding: 36 36 7
Width: 1200
Flags: W
LayerCount: 2
Fore
SplineSet
552 1511 m 1,0,-1
 673 1511 l 1,1,-1
 673 1251 l 1,2,3
 760 1251 760 1251 810 1242.5 c 128,-1,4
 860 1234 860 1234 938 1211 c 1,5,-1
 896 1086 l 1,6,7
 762 1123 762 1123 660 1123 c 0,8,9
 601 1123 601 1123 555.5 1112 c 128,-1,10
 510 1101 510 1101 485.5 1084.5 c 128,-1,11
 461 1068 461 1068 445.5 1047 c 128,-1,12
 430 1026 430 1026 425.5 1009.5 c 128,-1,13
 421 993 421 993 421 977 c 0,14,15
 421 936 421 936 463.5 904 c 128,-1,16
 506 872 506 872 569.5 852 c 128,-1,17
 633 832 633 832 707 804.5 c 128,-1,18
 781 777 781 777 844.5 746.5 c 128,-1,19
 908 716 908 716 950.5 661 c 128,-1,20
 993 606 993 606 993 534 c 0,21,22
 993 488 993 488 978.5 444.5 c 128,-1,23
 964 401 964 401 930.5 356 c 128,-1,24
 897 311 897 311 831 277.5 c 128,-1,25
 765 244 765 244 673 232 c 1,26,-1
 673 -65 l 1,27,-1
 552 -65 l 1,28,-1
 552 225 l 1,29,30
 410 225 410 225 227 300 c 1,31,-1
 273 424 l 1,32,33
 368 384 368 384 428 369 c 128,-1,34
 488 354 488 354 552 354 c 0,35,36
 631 354 631 354 685.5 366.5 c 128,-1,37
 740 379 740 379 777 416 c 128,-1,38
 814 453 814 453 814 515 c 0,39,40
 814 549 814 549 790 575 c 128,-1,41
 766 601 766 601 726 617.5 c 128,-1,42
 686 634 686 634 635.5 651.5 c 128,-1,43
 585 669 585 669 532.5 684 c 128,-1,44
 480 699 480 699 429.5 723.5 c 128,-1,45
 379 748 379 748 339 777.5 c 128,-1,46
 299 807 299 807 275 854 c 128,-1,47
 251 901 251 901 251 960 c 0,48,49
 251 999 251 999 265.5 1039 c 128,-1,50
 280 1079 280 1079 312.5 1120 c 128,-1,51
 345 1161 345 1161 406.5 1193.5 c 128,-1,52
 468 1226 468 1226 552 1240 c 1,53,-1
 552 1511 l 1,0,-1
EndSplineSet
EndChar

StartChar: percent
Encoding: 37 37 8
Width: 1329
Flags: W
LayerCount: 2
Fore
SplineSet
326 1268 m 0,0,1
 272 1268 272 1268 234 1228.5 c 128,-1,2
 196 1189 196 1189 196 1094 c 0,3,4
 196 1036 196 1036 208.5 995 c 128,-1,5
 221 954 221 954 242.5 934.5 c 128,-1,6
 264 915 264 915 284 907.5 c 128,-1,7
 304 900 304 900 327 900 c 0,8,9
 380 900 380 900 418.5 942 c 128,-1,10
 457 984 457 984 457 1089 c 0,11,12
 457 1143 457 1143 444.5 1180.5 c 128,-1,13
 432 1218 432 1218 411 1236 c 128,-1,14
 390 1254 390 1254 369.5 1261 c 128,-1,15
 349 1268 349 1268 326 1268 c 0,0,1
327 1363 m 0,16,17
 356 1363 356 1363 383 1357.5 c 128,-1,18
 410 1352 410 1352 442.5 1334.5 c 128,-1,19
 475 1317 475 1317 498.5 1289 c 128,-1,20
 522 1261 522 1261 538 1210 c 128,-1,21
 554 1159 554 1159 554 1092 c 0,22,23
 554 959 554 959 489.5 882.5 c 128,-1,24
 425 806 425 806 326 806 c 0,25,26
 228 806 228 806 163 873.5 c 128,-1,27
 98 941 98 941 98 1093 c 0,28,29
 98 1223 98 1223 166 1293 c 128,-1,30
 234 1363 234 1363 327 1363 c 0,16,17
984 527 m 0,31,32
 930 527 930 527 892 487.5 c 128,-1,33
 854 448 854 448 854 353 c 0,34,35
 854 295 854 295 866.5 254 c 128,-1,36
 879 213 879 213 900.5 193.5 c 128,-1,37
 922 174 922 174 942 166.5 c 128,-1,38
 962 159 962 159 985 159 c 0,39,40
 1038 159 1038 159 1076.5 201 c 128,-1,41
 1115 243 1115 243 1115 348 c 0,42,43
 1115 402 1115 402 1102.5 439.5 c 128,-1,44
 1090 477 1090 477 1069 495 c 128,-1,45
 1048 513 1048 513 1027.5 520 c 128,-1,46
 1007 527 1007 527 984 527 c 0,31,32
985 623 m 0,47,48
 1022 623 1022 623 1057 612.5 c 128,-1,49
 1092 602 1092 602 1129.5 575.5 c 128,-1,50
 1167 549 1167 549 1190 491.5 c 128,-1,51
 1213 434 1213 434 1213 351 c 0,52,53
 1213 219 1213 219 1148 142.5 c 128,-1,54
 1083 66 1083 66 984 66 c 0,55,56
 886 66 886 66 821.5 133 c 128,-1,57
 757 200 757 200 757 352 c 0,58,59
 757 482 757 482 824.5 552.5 c 128,-1,60
 892 623 892 623 985 623 c 0,47,48
1054 1421 m 1,61,-1
 1224 1421 l 1,62,-1
 255 0 l 1,63,-1
 85 0 l 1,64,-1
 1054 1421 l 1,61,-1
EndSplineSet
EndChar

StartChar: ampersand
Encoding: 38 38 9
Width: 1589
Flags: W
LayerCount: 2
Fore
SplineSet
707 1440 m 0,0,1
 858 1440 858 1440 949 1364.5 c 128,-1,2
 1040 1289 1040 1289 1040 1175 c 0,3,4
 1040 1143 1040 1143 1031 1111 c 128,-1,5
 1022 1079 1022 1079 1010.5 1053.5 c 128,-1,6
 999 1028 999 1028 974.5 997 c 128,-1,7
 950 966 950 966 933.5 947 c 128,-1,8
 917 928 917 928 882.5 898 c 128,-1,9
 848 868 848 868 832.5 855 c 128,-1,10
 817 842 817 842 778 811.5 c 128,-1,11
 739 781 739 781 728 772 c 1,12,-1
 1076 401 l 1,13,-1
 1399 754 l 1,14,-1
 1492 660 l 1,15,-1
 1170 301 l 1,16,-1
 1453 0 l 1,17,-1
 1250 0 l 1,18,-1
 1056 201 l 1,19,20
 1016 161 1016 161 987.5 135.5 c 128,-1,21
 959 110 959 110 905.5 71.5 c 128,-1,22
 852 33 852 33 802.5 10 c 128,-1,23
 753 -13 753 -13 682 -30 c 128,-1,24
 611 -47 611 -47 536 -47 c 0,25,26
 370 -47 370 -47 275 45.5 c 128,-1,27
 180 138 180 138 180 282 c 0,28,29
 180 320 180 320 187 357 c 128,-1,30
 194 394 194 394 204 424.5 c 128,-1,31
 214 455 214 455 232.5 488 c 128,-1,32
 251 521 251 521 266 544 c 128,-1,33
 281 567 281 567 307 595.5 c 128,-1,34
 333 624 333 624 348 640 c 128,-1,35
 363 656 363 656 392 681 c 128,-1,36
 421 706 421 706 433 715 c 128,-1,37
 445 724 445 724 472.5 745.5 c 128,-1,38
 500 767 500 767 504 770 c 1,39,40
 411 866 411 866 380 908 c 0,41,42
 302 1014 302 1014 302 1123 c 0,43,44
 302 1263 302 1263 419 1351.5 c 128,-1,45
 536 1440 536 1440 707 1440 c 0,0,1
690 1297 m 0,46,47
 600 1297 600 1297 534.5 1242.5 c 128,-1,48
 469 1188 469 1188 469 1114 c 0,49,50
 469 1087 469 1087 476.5 1063 c 128,-1,51
 484 1039 484 1039 503.5 1013.5 c 128,-1,52
 523 988 523 988 538 971 c 128,-1,53
 553 954 553 954 585.5 921.5 c 128,-1,54
 618 889 618 889 635 871 c 1,55,56
 652 884 652 884 687 910.5 c 128,-1,57
 722 937 722 937 735.5 948 c 128,-1,58
 749 959 749 959 774.5 980 c 128,-1,59
 800 1001 800 1001 810.5 1012.5 c 128,-1,60
 821 1024 821 1024 836.5 1042 c 128,-1,61
 852 1060 852 1060 858 1074.5 c 128,-1,62
 864 1089 864 1089 869 1106.5 c 128,-1,63
 874 1124 874 1124 874 1143 c 0,64,65
 874 1205 874 1205 822.5 1251 c 128,-1,66
 771 1297 771 1297 690 1297 c 0,46,47
601 671 m 1,67,68
 593 665 593 665 577 652 c 0,69,70
 521 608 521 608 492 582.5 c 128,-1,71
 463 557 463 557 423 513 c 128,-1,72
 383 469 383 469 365 423.5 c 128,-1,73
 347 378 347 378 347 327 c 0,74,75
 347 233 347 233 417 166.5 c 128,-1,76
 487 100 487 100 593 100 c 0,77,78
 640 100 640 100 687.5 115 c 128,-1,79
 735 130 735 130 770 148 c 128,-1,80
 805 166 805 166 846.5 198.5 c 128,-1,81
 888 231 888 231 908 249 c 128,-1,82
 928 267 928 267 960 299 c 1,83,-1
 601 671 l 1,67,68
EndSplineSet
EndChar

StartChar: quotesingle
Encoding: 39 39 10
Width: 405
Flags: W
LayerCount: 2
Fore
SplineSet
110 1511 m 1,0,-1
 295 1511 l 1,1,-1
 295 1083 l 1,2,-1
 110 1083 l 1,3,-1
 110 1511 l 1,0,-1
EndSplineSet
EndChar

StartChar: parenleft
Encoding: 40 40 11
Width: 742
Flags: W
LayerCount: 2
Fore
SplineSet
530 1548 m 1,0,-1
 662 1479 l 1,1,2
 547 1287 547 1287 471 1055 c 128,-1,3
 395 823 395 823 395 574 c 0,4,5
 395 327 395 327 471 96 c 128,-1,6
 547 -135 547 -135 662 -324 c 1,7,-1
 533 -408 l 1,8,9
 477 -315 477 -315 427.5 -215 c 128,-1,10
 378 -115 378 -115 328 14 c 128,-1,11
 278 143 278 143 249 289.5 c 128,-1,12
 220 436 220 436 220 576 c 0,13,14
 220 714 220 714 249 858.5 c 128,-1,15
 278 1003 278 1003 327 1130 c 128,-1,16
 376 1257 376 1257 425 1356.5 c 128,-1,17
 474 1456 474 1456 530 1548 c 1,0,-1
EndSplineSet
EndChar

StartChar: parenright
Encoding: 41 41 12
Width: 742
Flags: W
LayerCount: 2
Fore
SplineSet
212 1548 m 1,0,1
 268 1456 268 1456 317 1356.5 c 128,-1,2
 366 1257 366 1257 415 1130 c 128,-1,3
 464 1003 464 1003 493 858.5 c 128,-1,4
 522 714 522 714 522 576 c 0,5,6
 522 437 522 437 492.5 290.5 c 128,-1,7
 463 144 463 144 413.5 14.5 c 128,-1,8
 364 -115 364 -115 314.5 -215.5 c 128,-1,9
 265 -316 265 -316 209 -408 c 1,10,-1
 80 -324 l 1,11,12
 195 -135 195 -135 271 96 c 128,-1,13
 347 327 347 327 347 574 c 0,14,15
 347 822 347 822 270.5 1054.5 c 128,-1,16
 194 1287 194 1287 80 1479 c 1,17,-1
 212 1548 l 1,0,1
EndSplineSet
EndChar

StartChar: asterisk
Encoding: 42 42 13
Width: 1196
Flags: W
LayerCount: 2
Fore
SplineSet
513 1421 m 1,0,-1
 683 1421 l 1,1,-1
 665 1102 l 1,2,-1
 931 1277 l 1,3,-1
 1016 1129 l 1,4,-1
 732 988 l 1,5,-1
 1016 843 l 1,6,-1
 931 695 l 1,7,-1
 665 870 l 1,8,-1
 683 552 l 1,9,-1
 513 552 l 1,10,-1
 531 870 l 1,11,-1
 265 695 l 1,12,-1
 180 843 l 1,13,-1
 465 988 l 1,14,-1
 180 1129 l 1,15,-1
 265 1277 l 1,16,-1
 531 1102 l 1,17,-1
 513 1421 l 1,0,-1
EndSplineSet
EndChar

StartChar: plus
Encoding: 43 43 14
Width: 1400
Flags: W
LayerCount: 2
Fore
SplineSet
626 1233 m 1,0,-1
 774 1233 l 1,1,-1
 774 727 l 1,2,-1
 1275 727 l 1,3,-1
 1275 589 l 1,4,-1
 774 589 l 1,5,-1
 774 83 l 1,6,-1
 626 83 l 1,7,-1
 626 589 l 1,8,-1
 125 589 l 1,9,-1
 125 727 l 1,10,-1
 626 727 l 1,11,-1
 626 1233 l 1,0,-1
EndSplineSet
EndChar

StartChar: comma
Encoding: 44 44 15
Width: 570
Flags: W
LayerCount: 2
Fore
SplineSet
200 170 m 1,0,-1
 380 170 l 1,1,-1
 222 -220 l 1,2,-1
 42 -220 l 1,3,-1
 200 170 l 1,0,-1
EndSplineSet
EndChar

StartChar: hyphen
Encoding: 45 45 16
Width: 1210
Flags: W
LayerCount: 2
Fore
SplineSet
175 728 m 1,0,-1
 1035 728 l 1,1,-1
 1035 589 l 1,2,-1
 175 589 l 1,3,-1
 175 728 l 1,0,-1
EndSplineSet
EndChar

StartChar: period
Encoding: 46 46 17
Width: 570
Flags: W
LayerCount: 2
Fore
SplineSet
180 210 m 1,0,-1
 390 210 l 1,1,-1
 390 0 l 1,2,-1
 180 0 l 1,3,-1
 180 210 l 1,0,-1
EndSplineSet
EndChar

StartChar: slash
Encoding: 47 47 18
Width: 726
Flags: W
LayerCount: 2
Fore
SplineSet
536 1421 m 1,0,-1
 706 1421 l 1,1,-1
 210 -90 l 1,2,-1
 40 -90 l 1,3,-1
 536 1421 l 1,0,-1
EndSplineSet
EndChar

StartChar: zero
Encoding: 48 48 19
Width: 1300
Flags: W
LayerCount: 2
Fore
SplineSet
649 1287 m 128,-1,1
 601 1287 601 1287 553 1271 c 128,-1,2
 505 1255 505 1255 455 1214 c 128,-1,3
 405 1173 405 1173 366.5 1112 c 128,-1,4
 328 1051 328 1051 303.5 952 c 128,-1,5
 279 853 279 853 279 730 c 0,6,7
 279 597 279 597 303.5 490.5 c 128,-1,8
 328 384 328 384 366.5 318.5 c 128,-1,9
 405 253 405 253 455.5 209 c 128,-1,10
 506 165 506 165 554.5 147.5 c 128,-1,11
 603 130 603 130 652 130 c 0,12,13
 691 130 691 130 731 142.5 c 128,-1,14
 771 155 771 155 813.5 181 c 128,-1,15
 856 207 856 207 892.5 254 c 128,-1,16
 929 301 929 301 958 364 c 128,-1,17
 987 427 987 427 1004 519 c 128,-1,18
 1021 611 1021 611 1021 722 c 0,19,20
 1021 847 1021 847 996.5 947.5 c 128,-1,21
 972 1048 972 1048 933.5 1110 c 128,-1,22
 895 1172 895 1172 844 1213 c 128,-1,23
 793 1254 793 1254 745 1270.5 c 128,-1,0
 697 1287 697 1287 649 1287 c 128,-1,1
649 1440 m 0,24,25
 719 1440 719 1440 788.5 1420 c 128,-1,26
 858 1400 858 1400 932 1348.5 c 128,-1,27
 1006 1297 1006 1297 1061.5 1219 c 128,-1,28
 1117 1141 1117 1141 1153 1013.5 c 128,-1,29
 1189 886 1189 886 1189 726 c 0,30,31
 1189 558 1189 558 1153.5 425 c 128,-1,32
 1118 292 1118 292 1062.5 210.5 c 128,-1,33
 1007 129 1007 129 933.5 75 c 128,-1,34
 860 21 860 21 791 0.5 c 128,-1,35
 722 -20 722 -20 652 -20 c 0,36,37
 603 -20 603 -20 553.5 -9.5 c 128,-1,38
 504 1 504 1 450 26.5 c 128,-1,39
 396 52 396 52 348 90.5 c 128,-1,40
 300 129 300 129 256 189 c 128,-1,41
 212 249 212 249 180.5 324.5 c 128,-1,42
 149 400 149 400 130 503.5 c 128,-1,43
 111 607 111 607 111 728 c 0,44,45
 111 843 111 843 129.5 942 c 128,-1,46
 148 1041 148 1041 180 1112.5 c 128,-1,47
 212 1184 212 1184 255.5 1241 c 128,-1,48
 299 1298 299 1298 347 1334.5 c 128,-1,49
 395 1371 395 1371 448.5 1395.5 c 128,-1,50
 502 1420 502 1420 551.5 1430 c 128,-1,51
 601 1440 601 1440 649 1440 c 0,24,25
EndSplineSet
EndChar

StartChar: one
Encoding: 49 49 20
Width: 1300
Flags: W
LayerCount: 2
Fore
SplineSet
594 1421 m 1,0,-1
 790 1421 l 1,1,-1
 790 149 l 1,2,-1
 1120 149 l 1,3,-1
 1120 0 l 1,4,-1
 292 0 l 1,5,-1
 292 149 l 1,6,-1
 626 149 l 1,7,-1
 626 1257 l 1,8,-1
 314 1134 l 1,9,-1
 250 1281 l 1,10,-1
 594 1421 l 1,0,-1
EndSplineSet
EndChar

StartChar: two
Encoding: 50 50 21
Width: 1300
Flags: W
LayerCount: 2
Fore
SplineSet
188 1334 m 1,0,1
 417 1431 417 1431 642 1431 c 0,2,3
 851 1431 851 1431 978.5 1325 c 128,-1,4
 1106 1219 1106 1219 1106 1065 c 0,5,6
 1106 992 1106 992 1077.5 927.5 c 128,-1,7
 1049 863 1049 863 1000.5 810.5 c 128,-1,8
 952 758 952 758 892 707 c 128,-1,9
 832 656 832 656 765 599 c 128,-1,10
 698 542 698 542 637 480.5 c 128,-1,11
 576 419 576 419 520.5 333 c 128,-1,12
 465 247 465 247 432 150 c 1,13,-1
 1132 150 l 1,14,-1
 1132 0 l 1,15,-1
 225 0 l 1,16,-1
 225 93 l 1,17,18
 264 215 264 215 324.5 321.5 c 128,-1,19
 385 428 385 428 449.5 501.5 c 128,-1,20
 514 575 514 575 583 639.5 c 128,-1,21
 652 704 652 704 713 753 c 128,-1,22
 774 802 774 802 823 847 c 128,-1,23
 872 892 872 892 900.5 939 c 128,-1,24
 929 986 929 986 929 1035 c 0,25,26
 929 1137 929 1137 835 1210.5 c 128,-1,27
 741 1284 741 1284 610 1284 c 0,28,29
 467 1284 467 1284 237 1202 c 1,30,-1
 188 1334 l 1,0,1
EndSplineSet
EndChar

StartChar: three
Encoding: 51 51 22
Width: 1300
Flags: W
LayerCount: 2
Fore
SplineSet
205 1336 m 1,0,1
 411 1438 411 1438 607 1438 c 0,2,3
 793 1438 793 1438 914.5 1342 c 128,-1,4
 1036 1246 1036 1246 1036 1101 c 0,5,6
 1036 990 1036 990 976.5 903 c 128,-1,7
 917 816 917 816 818 778 c 1,8,9
 963 739 963 739 1030.5 649.5 c 128,-1,10
 1098 560 1098 560 1098 436 c 0,11,12
 1098 294 1098 294 1026.5 184 c 128,-1,13
 955 74 955 74 830 14.5 c 128,-1,14
 705 -45 705 -45 547 -45 c 0,15,16
 361 -45 361 -45 176 32 c 1,17,-1
 224 170 l 1,18,19
 432 113 432 113 549 113 c 0,20,21
 705 113 705 113 815 193 c 128,-1,22
 925 273 925 273 925 399 c 0,23,24
 925 434 925 434 916 467.5 c 128,-1,25
 907 501 907 501 878 542 c 128,-1,26
 849 583 849 583 801.5 613 c 128,-1,27
 754 643 754 643 669 663.5 c 128,-1,28
 584 684 584 684 472 684 c 1,29,-1
 472 830 l 1,30,31
 562 830 562 830 632.5 846.5 c 128,-1,32
 703 863 703 863 745.5 888 c 128,-1,33
 788 913 788 913 815.5 946.5 c 128,-1,34
 843 980 843 980 853.5 1011 c 128,-1,35
 864 1042 864 1042 864 1074 c 0,36,37
 864 1161 864 1161 788 1222.5 c 128,-1,38
 712 1284 712 1284 586 1284 c 0,39,40
 440 1284 440 1284 260 1201 c 1,41,-1
 205 1336 l 1,0,1
EndSplineSet
EndChar

StartChar: four
Encoding: 52 52 23
Width: 1300
Flags: W
LayerCount: 2
Fore
SplineSet
694 1421 m 1,0,-1
 932 1421 l 1,1,-1
 932 494 l 1,2,-1
 1180 494 l 1,3,-1
 1180 344 l 1,4,-1
 932 344 l 1,5,-1
 932 0 l 1,6,-1
 768 0 l 1,7,-1
 768 344 l 1,8,-1
 120 344 l 1,9,-1
 120 456 l 1,10,-1
 694 1421 l 1,0,-1
768 1259 m 1,11,-1
 316 494 l 1,12,-1
 768 494 l 1,13,-1
 768 1259 l 1,11,-1
EndSplineSet
EndChar

StartChar: five
Encoding: 53 53 24
Width: 1300
Flags: W
LayerCount: 2
Fore
SplineSet
235 1421 m 1,0,-1
 1091 1421 l 1,1,-1
 1091 1271 l 1,2,-1
 398 1271 l 1,3,-1
 398 883 l 1,4,5
 502 896 502 896 601 896 c 0,6,7
 694 896 694 896 772.5 879.5 c 128,-1,8
 851 863 851 863 905 836.5 c 128,-1,9
 959 810 959 810 1001.5 772.5 c 128,-1,10
 1044 735 1044 735 1069 695.5 c 128,-1,11
 1094 656 1094 656 1110 611.5 c 128,-1,12
 1126 567 1126 567 1132 529 c 128,-1,13
 1138 491 1138 491 1138 454 c 128,-1,14
 1138 417 1138 417 1132 378.5 c 128,-1,15
 1126 340 1126 340 1109 292.5 c 128,-1,16
 1092 245 1092 245 1065 202.5 c 128,-1,17
 1038 160 1038 160 991 118 c 128,-1,18
 944 76 944 76 883.5 46.5 c 128,-1,19
 823 17 823 17 734.5 -1.5 c 128,-1,20
 646 -20 646 -20 539 -20 c 0,21,22
 354 -20 354 -20 173 15 c 1,23,-1
 205 166 l 1,24,25
 355 134 355 134 526 134 c 0,26,27
 611 134 611 134 680.5 148 c 128,-1,28
 750 162 750 162 796 186 c 128,-1,29
 842 210 842 210 875 240 c 128,-1,30
 908 270 908 270 926 305 c 128,-1,31
 944 340 944 340 952 372 c 128,-1,32
 960 404 960 404 960 437 c 0,33,34
 960 476 960 476 948.5 515 c 128,-1,35
 937 554 937 554 907.5 596.5 c 128,-1,36
 878 639 878 639 833 671 c 128,-1,37
 788 703 788 703 713.5 723.5 c 128,-1,38
 639 744 639 744 545 744 c 0,39,40
 440 744 440 744 235 720 c 1,41,-1
 235 1421 l 1,0,-1
EndSplineSet
EndChar

StartChar: six
Encoding: 54 54 25
Width: 1300
Flags: W
LayerCount: 2
Fore
SplineSet
906 1432 m 0,0,1
 958 1432 958 1432 1030 1425 c 1,2,-1
 1018 1277 l 1,3,4
 964 1283 964 1283 911 1283 c 0,5,6
 815 1283 815 1283 735.5 1265 c 128,-1,7
 656 1247 656 1247 602 1219 c 128,-1,8
 548 1191 548 1191 505 1148.5 c 128,-1,9
 462 1106 462 1106 437 1065 c 128,-1,10
 412 1024 412 1024 394 971.5 c 128,-1,11
 376 919 376 919 368.5 880 c 128,-1,12
 361 841 361 841 355 794 c 1,13,14
 411 857 411 857 496 894.5 c 128,-1,15
 581 932 581 932 683 932 c 0,16,17
 878 932 878 932 1002.5 805.5 c 128,-1,18
 1127 679 1127 679 1127 482 c 0,19,20
 1127 345 1127 345 1066.5 229.5 c 128,-1,21
 1006 114 1006 114 892.5 44.5 c 128,-1,22
 779 -25 779 -25 635 -25 c 0,23,24
 594 -25 594 -25 554 -19 c 128,-1,25
 514 -13 514 -13 466.5 4 c 128,-1,26
 419 21 419 21 378 48 c 128,-1,27
 337 75 337 75 297.5 122 c 128,-1,28
 258 169 258 169 230.5 230 c 128,-1,29
 203 291 203 291 186 380 c 128,-1,30
 169 469 169 469 169 577 c 0,31,32
 169 773 169 773 210 924 c 128,-1,33
 251 1075 251 1075 318.5 1169.5 c 128,-1,34
 386 1264 386 1264 483 1324.5 c 128,-1,35
 580 1385 580 1385 682.5 1408.5 c 128,-1,36
 785 1432 785 1432 906 1432 c 0,0,1
644 792 m 0,37,38
 515 792 515 792 425.5 703 c 128,-1,39
 336 614 336 614 336 476 c 0,40,41
 336 335 336 335 428.5 225 c 128,-1,42
 521 115 521 115 654 115 c 0,43,44
 781 115 781 115 872 218.5 c 128,-1,45
 963 322 963 322 963 464 c 0,46,47
 963 610 963 610 868.5 701 c 128,-1,48
 774 792 774 792 644 792 c 0,37,38
EndSplineSet
EndChar

StartChar: seven
Encoding: 55 55 26
Width: 1300
Flags: W
LayerCount: 2
Fore
SplineSet
131 1421 m 1,0,-1
 1169 1421 l 1,1,-1
 1169 1314 l 1,2,-1
 506 0 l 1,3,-1
 308 0 l 1,4,-1
 960 1261 l 1,5,-1
 131 1261 l 1,6,-1
 131 1421 l 1,0,-1
EndSplineSet
EndChar

StartChar: eight
Encoding: 56 56 27
Width: 1300
Flags: W
LayerCount: 2
Fore
SplineSet
643 1297 m 0,0,1
 540 1297 540 1297 468.5 1237 c 128,-1,2
 397 1177 397 1177 397 1097 c 0,3,4
 397 1066 397 1066 408.5 1037.5 c 128,-1,5
 420 1009 420 1009 435.5 988.5 c 128,-1,6
 451 968 451 968 479.5 948 c 128,-1,7
 508 928 508 928 530 916 c 128,-1,8
 552 904 552 904 588.5 889.5 c 128,-1,9
 625 875 625 875 644 869 c 128,-1,10
 663 863 663 863 698 852 c 1,11,12
 752 885 752 885 783 907.5 c 128,-1,13
 814 930 814 930 846 959.5 c 128,-1,14
 878 989 878 989 892 1020.5 c 128,-1,15
 906 1052 906 1052 906 1088 c 0,16,17
 906 1186 906 1186 830 1241.5 c 128,-1,18
 754 1297 754 1297 643 1297 c 0,0,1
620 726 m 1,19,20
 482 685 482 685 403 595 c 128,-1,21
 324 505 324 505 324 405 c 0,22,23
 324 293 324 293 418 211.5 c 128,-1,24
 512 130 512 130 663 130 c 0,25,26
 803 130 803 130 889 207.5 c 128,-1,27
 975 285 975 285 975 397 c 0,28,29
 975 454 975 454 954 502.5 c 128,-1,30
 933 551 933 551 901 584.5 c 128,-1,31
 869 618 869 618 820 646 c 128,-1,32
 771 674 771 674 724.5 692 c 128,-1,33
 678 710 678 710 620 726 c 1,19,20
643 1440 m 0,34,35
 852 1440 852 1440 961 1348.5 c 128,-1,36
 1070 1257 1070 1257 1070 1093 c 0,37,38
 1070 1006 1070 1006 1021 936 c 128,-1,39
 972 866 972 866 869 792 c 1,40,41
 1012 728 1012 728 1081 628.5 c 128,-1,42
 1150 529 1150 529 1150 409 c 0,43,44
 1150 328 1150 328 1117 252 c 128,-1,45
 1084 176 1084 176 1023.5 115 c 128,-1,46
 963 54 963 54 867 17 c 128,-1,47
 771 -20 771 -20 655 -20 c 0,48,49
 517 -20 517 -20 401.5 32 c 128,-1,50
 286 84 286 84 218 178.5 c 128,-1,51
 150 273 150 273 150 390 c 0,52,53
 150 511 150 511 228 620.5 c 128,-1,54
 306 730 306 730 434 791 c 1,55,56
 373 822 373 822 330 863.5 c 128,-1,57
 287 905 287 905 267 949 c 128,-1,58
 247 993 247 993 238.5 1028.5 c 128,-1,59
 230 1064 230 1064 230 1098 c 0,60,61
 230 1242 230 1242 342.5 1341 c 128,-1,62
 455 1440 455 1440 643 1440 c 0,34,35
EndSplineSet
EndChar

StartChar: nine
Encoding: 57 57 28
Width: 1300
Flags: W
LayerCount: 2
Fore
SplineSet
666 1441 m 0,0,1
 709 1441 709 1441 750 1434.5 c 128,-1,2
 791 1428 791 1428 838 1410.5 c 128,-1,3
 885 1393 885 1393 925.5 1364.5 c 128,-1,4
 966 1336 966 1336 1004.5 1289 c 128,-1,5
 1043 1242 1043 1242 1070 1180.5 c 128,-1,6
 1097 1119 1097 1119 1113 1030.5 c 128,-1,7
 1129 942 1129 942 1129 835 c 0,8,9
 1129 641 1129 641 1088 491 c 128,-1,10
 1047 341 1047 341 979.5 247 c 128,-1,11
 912 153 912 153 815 92.5 c 128,-1,12
 718 32 718 32 615 8.5 c 128,-1,13
 512 -15 512 -15 392 -15 c 0,14,15
 330 -15 330 -15 268 -9 c 1,16,-1
 280 139 l 1,17,18
 325 134 325 134 388 134 c 0,19,20
 466 134 466 134 532 145 c 128,-1,21
 598 156 598 156 647.5 174 c 128,-1,22
 697 192 697 192 737.5 221 c 128,-1,23
 778 250 778 250 806 279 c 128,-1,24
 834 308 834 308 856 349 c 128,-1,25
 878 390 878 390 891 423 c 128,-1,26
 904 456 904 456 914 502 c 128,-1,27
 924 548 924 548 928.5 579 c 128,-1,28
 933 610 933 610 938 655 c 1,29,30
 876 589 876 589 791 556.5 c 128,-1,31
 706 524 706 524 617 524 c 0,32,33
 427 524 427 524 299 647.5 c 128,-1,34
 171 771 171 771 171 959 c 0,35,36
 171 1157 171 1157 313.5 1299 c 128,-1,37
 456 1441 456 1441 666 1441 c 0,0,1
644 1301 m 0,38,39
 523 1301 523 1301 429 1201 c 128,-1,40
 335 1101 335 1101 335 975 c 0,41,42
 335 846 335 846 430.5 755 c 128,-1,43
 526 664 526 664 654 664 c 0,44,45
 781 664 781 664 871.5 752 c 128,-1,46
 962 840 962 840 962 963 c 0,47,48
 962 1044 962 1044 919.5 1122 c 128,-1,49
 877 1200 877 1200 802.5 1250.5 c 128,-1,50
 728 1301 728 1301 644 1301 c 0,38,39
EndSplineSet
EndChar

StartChar: colon
Encoding: 58 58 29
Width: 570
Flags: W
LayerCount: 2
Fore
SplineSet
180 210 m 1,0,-1
 390 210 l 1,1,-1
 390 0 l 1,2,-1
 180 0 l 1,3,-1
 180 210 l 1,0,-1
180 993 m 1,4,-1
 390 993 l 1,5,-1
 390 783 l 1,6,-1
 180 783 l 1,7,-1
 180 993 l 1,4,-1
EndSplineSet
EndChar

StartChar: semicolon
Encoding: 59 59 30
Width: 570
Flags: W
LayerCount: 2
Fore
SplineSet
200 170 m 1,0,-1
 380 170 l 1,1,-1
 222 -220 l 1,2,-1
 42 -220 l 1,3,-1
 200 170 l 1,0,-1
180 993 m 1,4,-1
 390 993 l 1,5,-1
 390 783 l 1,6,-1
 180 783 l 1,7,-1
 180 993 l 1,4,-1
EndSplineSet
EndChar

StartChar: less
Encoding: 60 60 31
Width: 1073
Flags: W
LayerCount: 2
Fore
SplineSet
973 1128 m 1,0,-1
 973 973 l 1,1,-1
 274 621 l 1,2,-1
 973 285 l 1,3,-1
 973 120 l 1,4,-1
 100 533 l 1,5,-1
 100 698 l 1,6,-1
 973 1128 l 1,0,-1
EndSplineSet
EndChar

StartChar: equal
Encoding: 61 61 32
Width: 1400
Flags: W
LayerCount: 2
Fore
SplineSet
220 501 m 1,0,-1
 1180 501 l 1,1,-1
 1180 351 l 1,2,-1
 220 351 l 1,3,-1
 220 501 l 1,0,-1
220 954 m 1,4,-1
 1180 954 l 1,5,-1
 1180 804 l 1,6,-1
 220 804 l 1,7,-1
 220 954 l 1,4,-1
EndSplineSet
EndChar

StartChar: greater
Encoding: 62 62 33
Width: 1073
Flags: W
LayerCount: 2
Fore
SplineSet
100 1128 m 1,0,-1
 973 698 l 1,1,-1
 973 533 l 1,2,-1
 100 120 l 1,3,-1
 100 285 l 1,4,-1
 799 621 l 1,5,-1
 100 973 l 1,6,-1
 100 1128 l 1,0,-1
EndSplineSet
EndChar

StartChar: question
Encoding: 63 63 34
Width: 1046
Flags: W
LayerCount: 2
Fore
SplineSet
311 200 m 1,0,-1
 511 200 l 1,1,-1
 511 0 l 1,2,-1
 311 0 l 1,3,-1
 311 200 l 1,0,-1
423 1437 m 0,4,5
 637 1437 637 1437 756.5 1351.5 c 128,-1,6
 876 1266 876 1266 876 1097 c 0,7,8
 876 1015 876 1015 855 950.5 c 128,-1,9
 834 886 834 886 800.5 843.5 c 128,-1,10
 767 801 767 801 726.5 764.5 c 128,-1,11
 686 728 686 728 645.5 693.5 c 128,-1,12
 605 659 605 659 571.5 620 c 128,-1,13
 538 581 538 581 517 523 c 128,-1,14
 496 465 496 465 496 392 c 1,15,-1
 326 392 l 1,16,17
 326 478 326 478 347 548 c 128,-1,18
 368 618 368 618 402 664 c 128,-1,19
 436 710 436 710 477 748.5 c 128,-1,20
 518 787 518 787 559.5 820 c 128,-1,21
 601 853 601 853 635 886.5 c 128,-1,22
 669 920 669 920 690 966.5 c 128,-1,23
 711 1013 711 1013 711 1069 c 0,24,25
 711 1098 711 1098 704 1125.5 c 128,-1,26
 697 1153 697 1153 676 1185 c 128,-1,27
 655 1217 655 1217 621.5 1240 c 128,-1,28
 588 1263 588 1263 530 1278.5 c 128,-1,29
 472 1294 472 1294 396 1294 c 0,30,31
 339 1294 339 1294 268.5 1280.5 c 128,-1,32
 198 1267 198 1267 152 1247 c 1,33,-1
 100 1369 l 1,34,35
 239 1437 239 1437 423 1437 c 0,4,5
EndSplineSet
EndChar

StartChar: at
Encoding: 64 64 35
Width: 2100
Flags: W
LayerCount: 2
Fore
SplineSet
1054 962 m 0,0,1
 1180 962 1180 962 1300 903 c 1,2,-1
 1323 968 l 1,3,-1
 1436 968 l 1,4,-1
 1436 252 l 2,5,6
 1436 220 1436 220 1437 201.5 c 128,-1,7
 1438 183 1438 183 1441 151.5 c 128,-1,8
 1444 120 1444 120 1452.5 100.5 c 128,-1,9
 1461 81 1461 81 1474.5 60.5 c 128,-1,10
 1488 40 1488 40 1511 30 c 128,-1,11
 1534 20 1534 20 1565 20 c 0,12,13
 1602 20 1602 20 1640 46 c 128,-1,14
 1678 72 1678 72 1714 126 c 128,-1,15
 1750 180 1750 180 1772.5 280 c 128,-1,16
 1795 380 1795 380 1795 510 c 0,17,18
 1795 596 1795 596 1786 671.5 c 128,-1,19
 1777 747 1777 747 1754.5 822 c 128,-1,20
 1732 897 1732 897 1697 958 c 128,-1,21
 1662 1019 1662 1019 1607 1072 c 128,-1,22
 1552 1125 1552 1125 1481 1161 c 128,-1,23
 1410 1197 1410 1197 1313.5 1217.5 c 128,-1,24
 1217 1238 1217 1238 1100 1238 c 0,25,26
 975 1238 975 1238 869.5 1210 c 128,-1,27
 764 1182 764 1182 688 1135 c 128,-1,28
 612 1088 612 1088 552 1022.5 c 128,-1,29
 492 957 492 957 455 886 c 128,-1,30
 418 815 418 815 393.5 734.5 c 128,-1,31
 369 654 369 654 359 582 c 128,-1,32
 349 510 349 510 349 438 c 0,33,34
 349 299 349 299 386 180.5 c 128,-1,35
 423 62 423 62 486.5 -22.5 c 128,-1,36
 550 -107 550 -107 635 -167 c 128,-1,37
 720 -227 720 -227 817 -256 c 128,-1,38
 914 -285 914 -285 1017 -285 c 0,39,40
 1171 -285 1171 -285 1309 -218 c 1,41,-1
 1372 -337 l 1,42,43
 1197 -427 1197 -427 992 -427 c 0,44,45
 931 -427 931 -427 866 -419 c 128,-1,46
 801 -411 801 -411 719.5 -387 c 128,-1,47
 638 -363 638 -363 565 -325.5 c 128,-1,48
 492 -288 492 -288 420 -223 c 128,-1,49
 348 -158 348 -158 296.5 -74 c 128,-1,50
 245 10 245 10 213 133 c 128,-1,51
 181 256 181 256 181 404 c 0,52,53
 181 506 181 506 193.5 602 c 128,-1,54
 206 698 206 698 237.5 799 c 128,-1,55
 269 900 269 900 317 986.5 c 128,-1,56
 365 1073 365 1073 441.5 1150 c 128,-1,57
 518 1227 518 1227 615.5 1281.5 c 128,-1,58
 713 1336 713 1336 847.5 1367.5 c 128,-1,59
 982 1399 982 1399 1142 1399 c 0,60,61
 1290 1399 1290 1399 1410.5 1371 c 128,-1,62
 1531 1343 1531 1343 1615 1296.5 c 128,-1,63
 1699 1250 1699 1250 1762.5 1181 c 128,-1,64
 1826 1112 1826 1112 1863.5 1039 c 128,-1,65
 1901 966 1901 966 1924 875 c 128,-1,66
 1947 784 1947 784 1955 703.5 c 128,-1,67
 1963 623 1963 623 1963 530 c 0,68,69
 1963 374 1963 374 1932 253.5 c 128,-1,70
 1901 133 1901 133 1856 65.5 c 128,-1,71
 1811 -2 1811 -2 1751 -45 c 128,-1,72
 1691 -88 1691 -88 1642 -101.5 c 128,-1,73
 1593 -115 1593 -115 1545 -115 c 0,74,75
 1457 -115 1457 -115 1391.5 -68 c 128,-1,76
 1326 -21 1326 -21 1299 56 c 1,77,78
 1169 -20 1169 -20 1029 -20 c 0,79,80
 841 -20 841 -20 721 108 c 128,-1,81
 601 236 601 236 601 452 c 0,82,83
 601 678 601 678 726 820 c 128,-1,84
 851 962 851 962 1054 962 c 0,0,1
1077 840 m 0,85,86
 934 840 934 840 843.5 743.5 c 128,-1,87
 753 647 753 647 753 475 c 0,88,89
 753 302 753 302 846.5 205.5 c 128,-1,90
 940 109 940 109 1082 109 c 0,91,92
 1185 109 1185 109 1281 161 c 1,93,-1
 1281 794 l 1,94,95
 1178 840 1178 840 1077 840 c 0,85,86
EndSplineSet
EndChar

StartChar: A
Encoding: 65 65 36
Width: 1383
Flags: W
LayerCount: 2
Fore
SplineSet
635 1421 m 1,0,-1
 828 1421 l 1,1,-1
 1333 0 l 1,2,-1
 1161 0 l 1,3,-1
 1017 413 l 1,4,-1
 431 413 l 1,5,-1
 287 0 l 1,6,-1
 130 0 l 1,7,-1
 635 1421 l 1,0,-1
724 1255 m 1,8,-1
 482 562 l 1,9,-1
 965 562 l 1,10,-1
 724 1255 l 1,8,-1
EndSplineSet
EndChar

StartChar: B
Encoding: 66 66 37
Width: 1424
Flags: W
LayerCount: 2
Fore
SplineSet
460 1291 m 1,0,-1
 460 814 l 1,1,2
 479 815 479 815 526 815.5 c 128,-1,3
 573 816 573 816 599 816.5 c 128,-1,4
 625 817 625 817 672 820.5 c 128,-1,5
 719 824 719 824 747.5 828.5 c 128,-1,6
 776 833 776 833 816.5 842.5 c 128,-1,7
 857 852 857 852 882.5 864.5 c 128,-1,8
 908 877 908 877 936.5 896.5 c 128,-1,9
 965 916 965 916 981 940 c 128,-1,10
 997 964 997 964 1007.5 997.5 c 128,-1,11
 1018 1031 1018 1031 1018 1071 c 0,12,13
 1018 1101 1018 1101 1012 1128 c 128,-1,14
 1006 1155 1006 1155 987 1186 c 128,-1,15
 968 1217 968 1217 938 1239 c 128,-1,16
 908 1261 908 1261 855.5 1276 c 128,-1,17
 803 1291 803 1291 734 1291 c 2,18,-1
 460 1291 l 1,0,-1
460 682 m 1,19,-1
 460 150 l 1,20,-1
 725 150 l 2,21,22
 761 150 761 150 785.5 150.5 c 128,-1,23
 810 151 810 151 856 156.5 c 128,-1,24
 902 162 902 162 934.5 171.5 c 128,-1,25
 967 181 967 181 1007 200.5 c 128,-1,26
 1047 220 1047 220 1071.5 247 c 128,-1,27
 1096 274 1096 274 1113 316.5 c 128,-1,28
 1130 359 1130 359 1130 413 c 0,29,30
 1130 546 1130 546 1027 621 c 128,-1,31
 924 696 924 696 750 696 c 0,32,33
 731 696 731 696 460 682 c 1,19,-1
290 1421 m 1,34,-1
 791 1421 l 2,35,36
 864 1421 864 1421 924.5 1405.5 c 128,-1,37
 985 1390 985 1390 1024.5 1366 c 128,-1,38
 1064 1342 1064 1342 1094.5 1309 c 128,-1,39
 1125 1276 1125 1276 1141 1245 c 128,-1,40
 1157 1214 1157 1214 1167 1179 c 128,-1,41
 1177 1144 1177 1144 1179.5 1121.5 c 128,-1,42
 1182 1099 1182 1099 1182 1079 c 0,43,44
 1182 992 1182 992 1123 905.5 c 128,-1,45
 1064 819 1064 819 998 794 c 1,46,47
 1130 770 1130 770 1214.5 666.5 c 128,-1,48
 1299 563 1299 563 1299 431 c 0,49,50
 1299 400 1299 400 1293.5 366 c 128,-1,51
 1288 332 1288 332 1272 289 c 128,-1,52
 1256 246 1256 246 1231 207 c 128,-1,53
 1206 168 1206 168 1163 129.5 c 128,-1,54
 1120 91 1120 91 1064.5 63 c 128,-1,55
 1009 35 1009 35 928.5 17.5 c 128,-1,56
 848 0 848 0 752 0 c 2,57,-1
 290 0 l 1,58,-1
 290 1421 l 1,34,-1
EndSplineSet
EndChar

StartChar: C
Encoding: 67 67 38
Width: 1451
Flags: W
LayerCount: 2
Fore
SplineSet
986 1431 m 0,0,1
 1180 1431 1180 1431 1372 1355 c 1,2,-1
 1320 1214 l 1,3,4
 1126 1281 1126 1281 981 1281 c 0,5,6
 861 1281 861 1281 758.5 1233.5 c 128,-1,7
 656 1186 656 1186 588.5 1106.5 c 128,-1,8
 521 1027 521 1027 483 924.5 c 128,-1,9
 445 822 445 822 445 710 c 0,10,11
 445 594 445 594 485.5 489.5 c 128,-1,12
 526 385 526 385 599 306.5 c 128,-1,13
 672 228 672 228 780.5 182 c 128,-1,14
 889 136 889 136 1018 136 c 0,15,16
 1172 136 1172 136 1339 196 c 1,17,-1
 1391 70 l 1,18,19
 1182 -20 1182 -20 975 -20 c 0,20,21
 847 -20 847 -20 735 17 c 128,-1,22
 623 54 623 54 539.5 120.5 c 128,-1,23
 456 187 456 187 396 278 c 128,-1,24
 336 369 336 369 305.5 478.5 c 128,-1,25
 275 588 275 588 275 709 c 0,26,27
 275 914 275 914 360.5 1077 c 128,-1,28
 446 1240 446 1240 609 1335.5 c 128,-1,29
 772 1431 772 1431 986 1431 c 0,0,1
EndSplineSet
EndChar

StartChar: D
Encoding: 68 68 39
Width: 1606
Flags: W
LayerCount: 2
Fore
SplineSet
460 1271 m 1,0,-1
 460 150 l 1,1,-1
 667 150 l 2,2,3
 712 150 712 150 741.5 151 c 128,-1,4
 771 152 771 152 821.5 157 c 128,-1,5
 872 162 872 162 908.5 172 c 128,-1,6
 945 182 945 182 991.5 201 c 128,-1,7
 1038 220 1038 220 1074 247 c 128,-1,8
 1110 274 1110 274 1146 316 c 128,-1,9
 1182 358 1182 358 1209 411 c 0,10,11
 1275 538 1275 538 1275 720 c 0,12,13
 1275 846 1275 846 1238.5 947.5 c 128,-1,14
 1202 1049 1202 1049 1141.5 1112.5 c 128,-1,15
 1081 1176 1081 1176 1012.5 1213 c 128,-1,16
 944 1250 944 1250 869 1263 c 0,17,18
 825 1271 825 1271 736 1271 c 2,19,-1
 460 1271 l 1,0,-1
730 1421 m 2,20,21
 868 1421 868 1421 981 1393.5 c 128,-1,22
 1094 1366 1094 1366 1170.5 1316 c 128,-1,23
 1247 1266 1247 1266 1302 1203 c 128,-1,24
 1357 1140 1357 1140 1387.5 1062.5 c 128,-1,25
 1418 985 1418 985 1432 910 c 128,-1,26
 1446 835 1446 835 1446 754 c 0,27,28
 1446 661 1446 661 1432 575 c 128,-1,29
 1418 489 1418 489 1383.5 400 c 128,-1,30
 1349 311 1349 311 1295.5 240.5 c 128,-1,31
 1242 170 1242 170 1157 113.5 c 128,-1,32
 1072 57 1072 57 964 30 c 0,33,34
 908 16 908 16 839 9 c 128,-1,35
 770 2 770 2 725 1 c 128,-1,36
 680 0 680 0 598 0 c 2,37,-1
 290 0 l 1,38,-1
 290 1421 l 1,39,-1
 730 1421 l 2,20,21
EndSplineSet
EndChar

StartChar: E
Encoding: 69 69 40
Width: 1283
Flags: W
LayerCount: 2
Fore
SplineSet
290 0 m 1,0,-1
 290 1421 l 1,1,-1
 1123 1421 l 1,2,-1
 1123 1271 l 1,3,-1
 460 1271 l 1,4,-1
 460 807 l 1,5,-1
 1068 807 l 1,6,-1
 1068 657 l 1,7,-1
 460 657 l 1,8,-1
 460 150 l 1,9,-1
 1123 150 l 1,10,-1
 1123 0 l 1,11,-1
 290 0 l 1,0,-1
EndSplineSet
EndChar

StartChar: F
Encoding: 70 70 41
Width: 1248
Flags: W
LayerCount: 2
Fore
SplineSet
460 1271 m 1,0,-1
 460 807 l 1,1,-1
 1053 807 l 1,2,-1
 1053 657 l 1,3,-1
 460 657 l 1,4,-1
 460 0 l 1,5,-1
 290 0 l 1,6,-1
 290 1421 l 1,7,-1
 1113 1421 l 1,8,-1
 1113 1271 l 1,9,-1
 460 1271 l 1,0,-1
EndSplineSet
EndChar

StartChar: G
Encoding: 71 71 42
Width: 1591
Flags: W
LayerCount: 2
Fore
SplineSet
919 1432 m 0,0,1
 1159 1432 1159 1432 1376 1311 c 1,2,-1
 1309 1184 l 1,3,4
 1233 1224 1233 1224 1132 1253 c 128,-1,5
 1031 1282 1031 1282 928 1282 c 0,6,7
 823 1282 823 1282 725.5 1243 c 128,-1,8
 628 1204 628 1204 552 1133.5 c 128,-1,9
 476 1063 476 1063 430.5 955.5 c 128,-1,10
 385 848 385 848 385 720 c 0,11,12
 385 551 385 551 460 416 c 128,-1,13
 535 281 535 281 667 206 c 128,-1,14
 799 131 799 131 962 131 c 0,15,16
 1155 131 1155 131 1276 247 c 1,17,-1
 1276 610 l 1,18,-1
 872 610 l 1,19,-1
 872 750 l 1,20,-1
 1441 750 l 1,21,-1
 1441 192 l 1,22,23
 1414 161 1414 161 1378.5 132 c 128,-1,24
 1343 103 1343 103 1279.5 65 c 128,-1,25
 1216 27 1216 27 1123 3.5 c 128,-1,26
 1030 -20 1030 -20 922 -20 c 0,27,28
 780 -20 780 -20 660.5 22.5 c 128,-1,29
 541 65 541 65 460 136 c 128,-1,30
 379 207 379 207 323 301.5 c 128,-1,31
 267 396 267 396 241 499 c 128,-1,32
 215 602 215 602 215 709 c 0,33,34
 215 821 215 821 243.5 926.5 c 128,-1,35
 272 1032 272 1032 331 1124 c 128,-1,36
 390 1216 390 1216 472.5 1284.5 c 128,-1,37
 555 1353 555 1353 670 1392.5 c 128,-1,38
 785 1432 785 1432 919 1432 c 0,0,1
EndSplineSet
EndChar

StartChar: H
Encoding: 72 72 43
Width: 1600
Flags: W
LayerCount: 2
Fore
SplineSet
1220 1421 m 1,0,-1
 1390 1421 l 1,1,-1
 1390 0 l 1,2,-1
 1220 0 l 1,3,-1
 1220 658 l 1,4,-1
 460 658 l 1,5,-1
 460 0 l 1,6,-1
 290 0 l 1,7,-1
 290 1421 l 1,8,-1
 460 1421 l 1,9,-1
 460 808 l 1,10,-1
 1220 808 l 1,11,-1
 1220 1421 l 1,0,-1
EndSplineSet
EndChar

StartChar: I
Encoding: 73 73 44
Width: 730
Flags: W
LayerCount: 2
Fore
SplineSet
320 1421 m 1,0,-1
 490 1421 l 1,1,-1
 490 0 l 1,2,-1
 320 0 l 1,3,-1
 320 1421 l 1,0,-1
EndSplineSet
EndChar

StartChar: J
Encoding: 74 74 45
Width: 953
Flags: W
LayerCount: 2
Fore
SplineSet
573 1421 m 1,0,-1
 743 1421 l 1,1,-1
 743 426 l 2,2,3
 743 315 743 315 723 241 c 128,-1,4
 703 167 703 167 645 106 c 0,5,6
 528 -17 528 -17 306 -17 c 0,7,8
 206 -17 206 -17 110 7 c 1,9,-1
 137 149 l 1,10,11
 204 133 204 133 278 133 c 0,12,13
 339 133 339 133 387 145.5 c 128,-1,14
 435 158 435 158 465.5 175.5 c 128,-1,15
 496 193 496 193 518 221.5 c 128,-1,16
 540 250 540 250 550 272.5 c 128,-1,17
 560 295 560 295 566 327.5 c 128,-1,18
 572 360 572 360 572.5 376 c 128,-1,19
 573 392 573 392 573 417 c 2,20,-1
 573 1421 l 1,0,-1
EndSplineSet
EndChar

StartChar: K
Encoding: 75 75 46
Width: 1417
Flags: W
LayerCount: 2
Fore
SplineSet
290 1421 m 1,0,-1
 460 1421 l 1,1,-1
 460 0 l 1,2,-1
 290 0 l 1,3,-1
 290 1421 l 1,0,-1
1086 1421 m 1,4,-1
 1299 1421 l 1,5,-1
 698 743 l 1,6,-1
 1337 0 l 1,7,-1
 1118 0 l 1,8,-1
 484 729 l 1,9,-1
 1086 1421 l 1,4,-1
EndSplineSet
EndChar

StartChar: L
Encoding: 76 76 47
Width: 1133
Flags: W
LayerCount: 2
Fore
SplineSet
290 1421 m 1,0,-1
 460 1421 l 1,1,-1
 460 149 l 1,2,-1
 1098 149 l 1,3,-1
 1098 0 l 1,4,-1
 290 0 l 1,5,-1
 290 1421 l 1,0,-1
EndSplineSet
EndChar

StartChar: M
Encoding: 77 77 48
Width: 1884
Flags: W
LayerCount: 2
Fore
SplineSet
290 1421 m 1,0,-1
 530 1421 l 1,1,-1
 986 559 l 1,2,-1
 1449 1421 l 1,3,-1
 1674 1421 l 1,4,-1
 1674 0 l 1,5,-1
 1504 0 l 1,6,-1
 1504 1177 l 1,7,-1
 1067 407 l 1,8,-1
 897 407 l 1,9,-1
 460 1177 l 1,10,-1
 460 0 l 1,11,-1
 290 0 l 1,12,-1
 290 1421 l 1,0,-1
EndSplineSet
EndChar

StartChar: N
Encoding: 78 78 49
Width: 1659
Flags: W
LayerCount: 2
Fore
SplineSet
290 1421 m 1,0,-1
 505 1421 l 1,1,-1
 1279 232 l 1,2,-1
 1279 1421 l 1,3,-1
 1449 1421 l 1,4,-1
 1449 0 l 1,5,-1
 1234 0 l 1,6,-1
 460 1191 l 1,7,-1
 460 0 l 1,8,-1
 290 0 l 1,9,-1
 290 1421 l 1,0,-1
EndSplineSet
EndChar

StartChar: O
Encoding: 79 79 50
Width: 1686
Flags: W
LayerCount: 2
Fore
SplineSet
884 1436 m 0,0,1
 1025 1436 1025 1436 1147.5 1386.5 c 128,-1,2
 1270 1337 1270 1337 1359.5 1247 c 128,-1,3
 1449 1157 1449 1157 1500 1022.5 c 128,-1,4
 1551 888 1551 888 1551 727 c 0,5,6
 1551 509 1551 509 1464.5 339.5 c 128,-1,7
 1378 170 1378 170 1224.5 77.5 c 128,-1,8
 1071 -15 1071 -15 877 -15 c 0,9,10
 749 -15 749 -15 632 30.5 c 128,-1,11
 515 76 515 76 421 163 c 128,-1,12
 327 250 327 250 271 390.5 c 128,-1,13
 215 531 215 531 215 707 c 0,14,15
 215 872 215 872 266 1009 c 128,-1,16
 317 1146 317 1146 406 1239.5 c 128,-1,17
 495 1333 495 1333 618 1384.5 c 128,-1,18
 741 1436 741 1436 884 1436 c 0,0,1
875 1287 m 0,19,20
 784 1287 784 1287 700 1253 c 128,-1,21
 616 1219 616 1219 545.5 1153.5 c 128,-1,22
 475 1088 475 1088 432.5 977.5 c 128,-1,23
 390 867 390 867 390 728 c 0,24,25
 390 595 390 595 429 482.5 c 128,-1,26
 468 370 468 370 535 294 c 128,-1,27
 602 218 602 218 693.5 176 c 128,-1,28
 785 134 785 134 890 134 c 0,29,30
 961 134 961 134 1029.5 155 c 128,-1,31
 1098 176 1098 176 1161 221.5 c 128,-1,32
 1224 267 1224 267 1271.5 333 c 128,-1,33
 1319 399 1319 399 1347.5 496 c 128,-1,34
 1376 593 1376 593 1376 709 c 0,35,36
 1376 827 1376 827 1346 925 c 128,-1,37
 1316 1023 1316 1023 1266.5 1089 c 128,-1,38
 1217 1155 1217 1155 1151.5 1200.5 c 128,-1,39
 1086 1246 1086 1246 1016.5 1266.5 c 128,-1,40
 947 1287 947 1287 875 1287 c 0,19,20
EndSplineSet
EndChar

StartChar: P
Encoding: 80 80 51
Width: 1339
Flags: W
LayerCount: 2
Fore
SplineSet
290 1421 m 1,0,-1
 759 1421 l 2,1,2
 792 1421 792 1421 813.5 1420.5 c 128,-1,3
 835 1420 835 1420 876 1416.5 c 128,-1,4
 917 1413 917 1413 946 1406.5 c 128,-1,5
 975 1400 975 1400 1014.5 1386.5 c 128,-1,6
 1054 1373 1054 1373 1082 1355 c 128,-1,7
 1110 1337 1110 1337 1140.5 1307.5 c 128,-1,8
 1171 1278 1171 1278 1189.5 1242 c 128,-1,9
 1208 1206 1208 1206 1220 1155 c 128,-1,10
 1232 1104 1232 1104 1232 1043 c 0,11,12
 1232 955 1232 955 1212 885 c 128,-1,13
 1192 815 1192 815 1160.5 768 c 128,-1,14
 1129 721 1129 721 1079 687 c 128,-1,15
 1029 653 1029 653 980 634.5 c 128,-1,16
 931 616 931 616 864.5 605.5 c 128,-1,17
 798 595 798 595 745.5 592 c 128,-1,18
 693 589 693 589 624 589 c 0,19,20
 556 589 556 589 460 596 c 1,21,-1
 460 0 l 1,22,-1
 290 0 l 1,23,-1
 290 1421 l 1,0,-1
460 746 m 1,24,25
 556 738 556 738 642 738 c 0,26,27
 691 738 691 738 724 739 c 128,-1,28
 757 740 757 740 805 746 c 128,-1,29
 853 752 853 752 885 762.5 c 128,-1,30
 917 773 917 773 953 794 c 128,-1,31
 989 815 989 815 1010.5 843.5 c 128,-1,32
 1032 872 1032 872 1046 915.5 c 128,-1,33
 1060 959 1060 959 1060 1015 c 0,34,35
 1060 1073 1060 1073 1045 1117.5 c 128,-1,36
 1030 1162 1030 1162 1001.5 1189 c 128,-1,37
 973 1216 973 1216 941.5 1233.5 c 128,-1,38
 910 1251 910 1251 865.5 1258.5 c 128,-1,39
 821 1266 821 1266 787.5 1268.5 c 128,-1,40
 754 1271 754 1271 708 1271 c 2,41,-1
 460 1271 l 1,42,-1
 460 746 l 1,24,25
EndSplineSet
EndChar

StartChar: Q
Encoding: 81 81 52
Width: 1706
Flags: W
LayerCount: 2
Fore
SplineSet
886 1436 m 0,0,1
 1185 1436 1185 1436 1368 1238 c 128,-1,2
 1551 1040 1551 1040 1551 711 c 0,3,4
 1551 412 1551 412 1401 220 c 1,5,-1
 1582 41 l 1,6,-1
 1490 -56 l 1,7,-1
 1303 121 l 1,8,9
 1131 -15 1131 -15 888 -15 c 0,10,11
 747 -15 747 -15 625 34 c 128,-1,12
 503 83 503 83 411.5 173 c 128,-1,13
 320 263 320 263 267.5 400 c 128,-1,14
 215 537 215 537 215 705 c 0,15,16
 215 871 215 871 266 1008.5 c 128,-1,17
 317 1146 317 1146 406 1239.5 c 128,-1,18
 495 1333 495 1333 618.5 1384.5 c 128,-1,19
 742 1436 742 1436 886 1436 c 0,0,1
872 1287 m 0,20,21
 784 1287 784 1287 701 1254 c 128,-1,22
 618 1221 618 1221 547 1155.5 c 128,-1,23
 476 1090 476 1090 433 978.5 c 128,-1,24
 390 867 390 867 390 724 c 0,25,26
 390 584 390 584 432 470 c 128,-1,27
 474 356 474 356 546 283.5 c 128,-1,28
 618 211 618 211 711 172.5 c 128,-1,29
 804 134 804 134 908 134 c 0,30,31
 1071 134 1071 134 1191 227 c 1,32,-1
 876 525 l 1,33,-1
 981 633 l 1,34,-1
 1287 332 l 1,35,36
 1376 469 1376 469 1376 685 c 0,37,38
 1376 820 1376 820 1343 927.5 c 128,-1,39
 1310 1035 1310 1035 1258.5 1101 c 128,-1,40
 1207 1167 1207 1167 1138.5 1210.5 c 128,-1,41
 1070 1254 1070 1254 1004.5 1270.5 c 128,-1,42
 939 1287 939 1287 872 1287 c 0,20,21
EndSplineSet
EndChar

StartChar: R
Encoding: 82 82 53
Width: 1438
Flags: W
LayerCount: 2
Fore
SplineSet
1228 1031 m 0,0,1
 1228 960 1228 960 1211 896 c 128,-1,2
 1194 832 1194 832 1158 774 c 128,-1,3
 1122 716 1122 716 1058.5 673.5 c 128,-1,4
 995 631 995 631 910 611 c 1,5,-1
 1311 0 l 1,6,-1
 1121 0 l 1,7,-1
 736 592 l 1,8,-1
 461 592 l 1,9,-1
 461 0 l 1,10,-1
 290 0 l 1,11,-1
 290 1421 l 1,12,-1
 812 1421 l 2,13,14
 848 1421 848 1421 877 1419 c 128,-1,15
 906 1417 906 1417 951.5 1408.5 c 128,-1,16
 997 1400 997 1400 1032 1385.5 c 128,-1,17
 1067 1371 1067 1371 1105.5 1341.5 c 128,-1,18
 1144 1312 1144 1312 1169.5 1272 c 128,-1,19
 1195 1232 1195 1232 1211.5 1170 c 128,-1,20
 1228 1108 1228 1108 1228 1031 c 0,0,1
461 742 m 1,21,-1
 706 742 l 2,22,23
 757 742 757 742 796 745.5 c 128,-1,24
 835 749 835 749 887.5 764.5 c 128,-1,25
 940 780 940 780 974.5 807.5 c 128,-1,26
 1009 835 1009 835 1033.5 887.5 c 128,-1,27
 1058 940 1058 940 1058 1012 c 0,28,29
 1058 1063 1058 1063 1045 1104 c 128,-1,30
 1032 1145 1032 1145 1012 1171.5 c 128,-1,31
 992 1198 992 1198 963 1217.5 c 128,-1,32
 934 1237 934 1237 907 1247 c 128,-1,33
 880 1257 880 1257 847 1263 c 128,-1,34
 814 1269 814 1269 792.5 1270.5 c 128,-1,35
 771 1272 771 1272 747 1272 c 2,36,-1
 461 1272 l 1,37,-1
 461 742 l 1,21,-1
EndSplineSet
EndChar

StartChar: S
Encoding: 83 83 54
Width: 1361
Flags: W
LayerCount: 2
Fore
SplineSet
821 1434 m 0,0,1
 985 1434 985 1434 1174 1377 c 1,2,-1
 1119 1222 l 1,3,4
 939 1274 939 1274 807 1274 c 0,5,6
 659 1274 659 1274 556.5 1211.5 c 128,-1,7
 454 1149 454 1149 454 1050 c 0,8,9
 454 995 454 995 487 952 c 128,-1,10
 520 909 520 909 574 882 c 128,-1,11
 628 855 628 855 697 828.5 c 128,-1,12
 766 802 766 802 837.5 780 c 128,-1,13
 909 758 909 758 978 724 c 128,-1,14
 1047 690 1047 690 1101 649.5 c 128,-1,15
 1155 609 1155 609 1188 544 c 128,-1,16
 1221 479 1221 479 1221 397 c 0,17,18
 1221 340 1221 340 1203 283.5 c 128,-1,19
 1185 227 1185 227 1143 171.5 c 128,-1,20
 1101 116 1101 116 1039 74 c 128,-1,21
 977 32 977 32 882.5 6 c 128,-1,22
 788 -20 788 -20 672 -20 c 128,-1,23
 556 -20 556 -20 458.5 4 c 128,-1,24
 361 28 361 28 240 76 c 1,25,-1
 298 241 l 1,26,27
 548 148 548 148 693 148 c 0,28,29
 845 148 845 148 940.5 209 c 128,-1,30
 1036 270 1036 270 1036 372 c 0,31,32
 1036 440 1036 440 993.5 489.5 c 128,-1,33
 951 539 951 539 883.5 569.5 c 128,-1,34
 816 600 816 600 734 626.5 c 128,-1,35
 652 653 652 653 570.5 683.5 c 128,-1,36
 489 714 489 714 421.5 754 c 128,-1,37
 354 794 354 794 311.5 862 c 128,-1,38
 269 930 269 930 269 1022 c 0,39,40
 269 1104 269 1104 308.5 1179 c 128,-1,41
 348 1254 348 1254 418 1310.5 c 128,-1,42
 488 1367 488 1367 593 1400.5 c 128,-1,43
 698 1434 698 1434 821 1434 c 0,0,1
EndSplineSet
EndChar

StartChar: T
Encoding: 84 84 55
Width: 1210
Flags: W
LayerCount: 2
Fore
SplineSet
85 1421 m 1,0,-1
 1205 1421 l 1,1,-1
 1205 1271 l 1,2,-1
 730 1271 l 1,3,-1
 730 0 l 1,4,-1
 560 0 l 1,5,-1
 560 1271 l 1,6,-1
 85 1271 l 1,7,-1
 85 1421 l 1,0,-1
EndSplineSet
EndChar

StartChar: U
Encoding: 85 85 56
Width: 1582
Flags: W
LayerCount: 2
Fore
SplineSet
290 1421 m 1,0,-1
 460 1421 l 1,1,-1
 460 500 l 2,2,3
 460 415 460 415 474.5 354 c 128,-1,4
 489 293 489 293 536 240 c 0,5,6
 636 127 636 127 831 127 c 0,7,8
 972 127 972 127 1066.5 188.5 c 128,-1,9
 1161 250 1161 250 1189 362 c 0,10,11
 1202 415 1202 415 1202 500 c 2,12,-1
 1202 1421 l 1,13,-1
 1370 1421 l 1,14,15
 1370 1100 1370 1100 1370.5 896 c 128,-1,16
 1371 692 1371 692 1371 634.5 c 128,-1,17
 1371 577 1371 577 1371.5 542.5 c 128,-1,18
 1372 508 1372 508 1372 485 c 0,19,20
 1372 439 1372 439 1370 404.5 c 128,-1,21
 1368 370 1368 370 1356.5 314 c 128,-1,22
 1345 258 1345 258 1325 216.5 c 128,-1,23
 1305 175 1305 175 1264.5 128 c 128,-1,24
 1224 81 1224 81 1168.5 50.5 c 128,-1,25
 1113 20 1113 20 1026.5 0 c 128,-1,26
 940 -20 940 -20 831 -20 c 0,27,28
 714 -20 714 -20 621 4.5 c 128,-1,29
 528 29 528 29 475 63 c 128,-1,30
 422 97 422 97 383.5 145 c 128,-1,31
 345 193 345 193 330.5 227.5 c 128,-1,32
 316 262 316 262 307 300 c 0,33,34
 290 366 290 366 290 487 c 2,35,-1
 290 1421 l 1,0,-1
EndSplineSet
EndChar

StartChar: V
Encoding: 86 86 57
Width: 1401
Flags: W
LayerCount: 2
Fore
SplineSet
140 1421 m 1,0,-1
 342 1421 l 1,1,-1
 748 180 l 1,2,-1
 1154 1421 l 1,3,-1
 1341 1421 l 1,4,-1
 846 0 l 1,5,-1
 635 0 l 1,6,-1
 140 1421 l 1,0,-1
EndSplineSet
EndChar

StartChar: W
Encoding: 87 87 58
Width: 2165
Flags: W
LayerCount: 2
Fore
SplineSet
140 1421 m 1,0,-1
 320 1421 l 1,1,-1
 677 227 l 1,2,-1
 1037 1421 l 1,3,-1
 1208 1421 l 1,4,-1
 1578 227 l 1,5,-1
 1925 1421 l 1,6,-1
 2105 1421 l 1,7,-1
 1667 0 l 1,8,-1
 1486 0 l 1,9,-1
 1113 1187 l 1,10,-1
 764 0 l 1,11,-1
 583 0 l 1,12,-1
 140 1421 l 1,0,-1
EndSplineSet
EndChar

StartChar: X
Encoding: 88 88 59
Width: 1368
Flags: W
LayerCount: 2
Fore
SplineSet
1087 1421 m 1,0,-1
 1283 1421 l 1,1,-1
 833 746 l 1,2,-1
 1338 0 l 1,3,-1
 1118 0 l 1,4,-1
 719 599 l 1,5,-1
 320 0 l 1,6,-1
 110 0 l 1,7,-1
 623 742 l 1,8,-1
 170 1421 l 1,9,-1
 376 1421 l 1,10,-1
 738 886 l 1,11,-1
 1087 1421 l 1,0,-1
EndSplineSet
EndChar

StartChar: Y
Encoding: 89 89 60
Width: 1263
Flags: W
LayerCount: 2
Fore
SplineSet
100 1421 m 1,0,-1
 301 1421 l 1,1,-1
 663 834 l 1,2,-1
 1033 1421 l 1,3,-1
 1223 1421 l 1,4,-1
 739 673 l 1,5,-1
 739 0 l 1,6,-1
 569 0 l 1,7,-1
 569 673 l 1,8,-1
 100 1421 l 1,0,-1
EndSplineSet
EndChar

StartChar: Z
Encoding: 90 90 61
Width: 1358
Flags: W
LayerCount: 2
Fore
SplineSet
185 1421 m 1,0,-1
 1271 1421 l 1,1,-1
 1271 1312 l 1,2,-1
 381 150 l 1,3,-1
 1298 150 l 1,4,-1
 1298 0 l 1,5,-1
 155 0 l 1,6,-1
 155 111 l 1,7,-1
 1028 1271 l 1,8,-1
 185 1271 l 1,9,-1
 185 1421 l 1,0,-1
EndSplineSet
EndChar

StartChar: bracketleft
Encoding: 91 91 62
Width: 758
Flags: W
LayerCount: 2
Fore
SplineSet
250 1511 m 1,0,-1
 708 1511 l 1,1,-1
 708 1362 l 1,2,-1
 414 1362 l 1,3,-1
 414 -261 l 1,4,-1
 708 -261 l 1,5,-1
 708 -410 l 1,6,-1
 250 -410 l 1,7,-1
 250 1511 l 1,0,-1
EndSplineSet
EndChar

StartChar: backslash
Encoding: 92 92 63
Width: 726
Flags: W
LayerCount: 2
Fore
SplineSet
20 1421 m 1,0,-1
 190 1421 l 1,1,-1
 686 -90 l 1,2,-1
 516 -90 l 1,3,-1
 20 1421 l 1,0,-1
EndSplineSet
EndChar

StartChar: bracketright
Encoding: 93 93 64
Width: 758
Flags: W
LayerCount: 2
Fore
SplineSet
50 1511 m 1,0,-1
 508 1511 l 1,1,-1
 508 -410 l 1,2,-1
 50 -410 l 1,3,-1
 50 -261 l 1,4,-1
 344 -261 l 1,5,-1
 344 1362 l 1,6,-1
 50 1362 l 1,7,-1
 50 1511 l 1,0,-1
EndSplineSet
EndChar

StartChar: asciicircum
Encoding: 94 94 65
Width: 1479
Flags: W
LayerCount: 2
Fore
SplineSet
725 1541 m 1,0,-1
 981 1255 l 1,1,-1
 888 1167 l 1,2,-1
 712 1363 l 1,3,-1
 531 1167 l 1,4,-1
 443 1246 l 1,5,-1
 725 1541 l 1,0,-1
EndSplineSet
EndChar

StartChar: underscore
Encoding: 95 95 66
Width: 1160
Flags: W
LayerCount: 2
Fore
SplineSet
150 150 m 1,0,-1
 1010 150 l 1,1,-1
 1010 0 l 1,2,-1
 150 0 l 1,3,-1
 150 150 l 1,0,-1
EndSplineSet
EndChar

StartChar: grave
Encoding: 96 96 67
Width: 1122
Flags: W
LayerCount: 2
Fore
SplineSet
345 1586 m 1,0,-1
 849 1276 l 1,1,-1
 786 1168 l 1,2,-1
 274 1463 l 1,3,-1
 345 1586 l 1,0,-1
EndSplineSet
EndChar

StartChar: a
Encoding: 97 97 68
Width: 1069
Flags: W
LayerCount: 2
Fore
SplineSet
507 1007 m 0,0,1
 617 1007 617 1007 693.5 981.5 c 128,-1,2
 770 956 770 956 811.5 907 c 128,-1,3
 853 858 853 858 871 798 c 128,-1,4
 889 738 889 738 889 660 c 2,5,-1
 889 0 l 1,6,-1
 773 0 l 1,7,-1
 735 90 l 1,8,9
 614 -20 614 -20 457 -20 c 0,10,11
 317 -20 317 -20 220 64.5 c 128,-1,12
 123 149 123 149 123 262 c 0,13,14
 123 322 123 322 145 370 c 128,-1,15
 167 418 167 418 208.5 450 c 128,-1,16
 250 482 250 482 303 504.5 c 128,-1,17
 356 527 356 527 426.5 539 c 128,-1,18
 497 551 497 551 568 556 c 128,-1,19
 639 561 639 561 724 561 c 1,20,-1
 724 639 l 2,21,22
 724 673 724 673 721.5 698 c 128,-1,23
 719 723 719 723 705 758 c 128,-1,24
 691 793 691 793 667 815.5 c 128,-1,25
 643 838 643 838 595 854.5 c 128,-1,26
 547 871 547 871 481 871 c 0,27,28
 379 871 379 871 217 826 c 1,29,-1
 186 946 l 1,30,31
 350 1007 350 1007 507 1007 c 0,0,1
724 437 m 1,32,-1
 663 437 l 2,33,34
 606 437 606 437 564 435 c 128,-1,35
 522 433 522 433 465.5 423.5 c 128,-1,36
 409 414 409 414 373 397 c 128,-1,37
 337 380 337 380 311.5 347.5 c 128,-1,38
 286 315 286 315 286 270 c 0,39,40
 286 207 286 207 349.5 158 c 128,-1,41
 413 109 413 109 501 109 c 0,42,43
 630 109 630 109 724 210 c 1,44,-1
 724 437 l 1,32,-1
EndSplineSet
EndChar

StartChar: b
Encoding: 98 98 69
Width: 1183
Flags: W
LayerCount: 2
Fore
SplineSet
190 1511 m 1,0,-1
 354 1511 l 1,1,-1
 354 941 l 1,2,3
 483 1008 483 1008 618 1008 c 0,4,5
 678 1008 678 1008 736 993.5 c 128,-1,6
 794 979 794 979 852.5 942.5 c 128,-1,7
 911 906 911 906 955 851 c 128,-1,8
 999 796 999 796 1026.5 707 c 128,-1,9
 1054 618 1054 618 1054 506 c 0,10,11
 1054 262 1054 262 924.5 121 c 128,-1,12
 795 -20 795 -20 589 -20 c 0,13,14
 454 -20 454 -20 324 46 c 1,15,-1
 304 0 l 1,16,-1
 190 0 l 1,17,-1
 190 1511 l 1,0,-1
562 872 m 0,18,19
 455 872 455 872 354 819 c 1,20,-1
 354 155 l 1,21,22
 461 109 461 109 565 109 c 0,23,24
 611 109 611 109 654 119 c 128,-1,25
 697 129 697 129 741.5 155.5 c 128,-1,26
 786 182 786 182 819 222 c 128,-1,27
 852 262 852 262 873 328 c 128,-1,28
 894 394 894 394 894 477 c 0,29,30
 894 571 894 571 872 643.5 c 128,-1,31
 850 716 850 716 816 758 c 128,-1,32
 782 800 782 800 736 827 c 128,-1,33
 690 854 690 854 648 863 c 128,-1,34
 606 872 606 872 562 872 c 0,18,19
EndSplineSet
EndChar

StartChar: c
Encoding: 99 99 70
Width: 1001
Flags: W
LayerCount: 2
Fore
SplineSet
130 471 m 0,0,1
 130 588 130 588 158 681.5 c 128,-1,2
 186 775 186 775 232.5 834.5 c 128,-1,3
 279 894 279 894 342 933.5 c 128,-1,4
 405 973 405 973 471 989.5 c 128,-1,5
 537 1006 537 1006 609 1006 c 0,6,7
 751 1006 751 1006 886 947 c 1,8,-1
 846 827 l 1,9,10
 735 865 735 865 629 865 c 0,11,12
 577 865 577 865 531 855.5 c 128,-1,13
 485 846 485 846 439.5 821 c 128,-1,14
 394 796 394 796 361.5 756.5 c 128,-1,15
 329 717 329 717 309 653 c 128,-1,16
 289 589 289 589 289 506 c 0,17,18
 289 415 289 415 310 345.5 c 128,-1,19
 331 276 331 276 365 233 c 128,-1,20
 399 190 399 190 446.5 163 c 128,-1,21
 494 136 494 136 542.5 125.5 c 128,-1,22
 591 115 591 115 647 115 c 0,23,24
 741 115 741 115 835 148 c 1,25,-1
 875 35 l 1,26,27
 733 -20 733 -20 590 -20 c 0,28,29
 524 -20 524 -20 463.5 -7 c 128,-1,30
 403 6 403 6 340.5 40.5 c 128,-1,31
 278 75 278 75 232.5 128 c 128,-1,32
 187 181 187 181 158.5 269.5 c 128,-1,33
 130 358 130 358 130 471 c 0,0,1
EndSplineSet
EndChar

StartChar: d
Encoding: 100 100 71
Width: 1188
Flags: W
LayerCount: 2
Fore
SplineSet
130 477 m 0,0,1
 130 605 130 605 166 707 c 128,-1,2
 202 809 202 809 265 874 c 128,-1,3
 328 939 328 939 412.5 973.5 c 128,-1,4
 497 1008 497 1008 595 1008 c 0,5,6
 713 1008 713 1008 834 955 c 1,7,-1
 834 1511 l 1,8,-1
 998 1511 l 1,9,-1
 998 0 l 1,10,-1
 884 0 l 1,11,-1
 857 62 l 1,12,13
 718 -20 718 -20 567 -20 c 0,14,15
 505 -20 505 -20 446 -5 c 128,-1,16
 387 10 387 10 329 47 c 128,-1,17
 271 84 271 84 227.5 139.5 c 128,-1,18
 184 195 184 195 157 282 c 128,-1,19
 130 369 130 369 130 477 c 0,0,1
621 115 m 0,20,21
 730 115 730 115 834 171 c 1,22,-1
 834 831 l 1,23,24
 727 879 727 879 619 879 c 0,25,26
 573 879 573 879 530 869 c 128,-1,27
 487 859 487 859 442 833 c 128,-1,28
 397 807 397 807 364.5 766 c 128,-1,29
 332 725 332 725 311 657.5 c 128,-1,30
 290 590 290 590 290 503 c 0,31,32
 290 413 290 413 312 342.5 c 128,-1,33
 334 272 334 272 368 230 c 128,-1,34
 402 188 402 188 448 161 c 128,-1,35
 494 134 494 134 536 124.5 c 128,-1,36
 578 115 578 115 621 115 c 0,20,21
EndSplineSet
EndChar

StartChar: e
Encoding: 101 101 72
Width: 1102
Flags: W
LayerCount: 2
Fore
SplineSet
605 1007 m 0,0,1
 677 1007 677 1007 734.5 989.5 c 128,-1,2
 792 972 792 972 830 945 c 128,-1,3
 868 918 868 918 895.5 874.5 c 128,-1,4
 923 831 923 831 937.5 790.5 c 128,-1,5
 952 750 952 750 960 693 c 128,-1,6
 968 636 968 636 970 594 c 128,-1,7
 972 552 972 552 972 495 c 2,8,-1
 972 417 l 1,9,-1
 293 417 l 1,10,11
 293 363 293 363 317.5 309.5 c 128,-1,12
 342 256 342 256 386.5 211.5 c 128,-1,13
 431 167 431 167 503.5 139 c 128,-1,14
 576 111 576 111 664 111 c 0,15,16
 768 111 768 111 889 147 c 1,17,-1
 918 35 l 1,18,19
 757 -20 757 -20 602 -20 c 0,20,21
 493 -20 493 -20 408.5 9 c 128,-1,22
 324 38 324 38 272.5 84.5 c 128,-1,23
 221 131 221 131 188 196 c 128,-1,24
 155 261 155 261 142.5 325.5 c 128,-1,25
 130 390 130 390 130 462 c 0,26,27
 130 573 130 573 157 665 c 128,-1,28
 184 757 184 757 230 819.5 c 128,-1,29
 276 882 276 882 337.5 925 c 128,-1,30
 399 968 399 968 466.5 987.5 c 128,-1,31
 534 1007 534 1007 605 1007 c 0,0,1
570 865 m 0,32,33
 482 865 482 865 418.5 816.5 c 128,-1,34
 355 768 355 768 326 696 c 128,-1,35
 297 624 297 624 297 541 c 1,36,-1
 813 541 l 1,37,38
 813 865 813 865 570 865 c 0,32,33
EndSplineSet
EndChar

StartChar: f
Encoding: 102 102 73
Width: 820
Flags: W
LayerCount: 2
Fore
SplineSet
662 1292 m 0,0,1
 603 1292 603 1292 560 1275.5 c 128,-1,2
 517 1259 517 1259 495.5 1237.5 c 128,-1,3
 474 1216 474 1216 461.5 1185.5 c 128,-1,4
 449 1155 449 1155 446.5 1135.5 c 128,-1,5
 444 1116 444 1116 444 1095 c 2,6,-1
 444 988 l 1,7,-1
 775 988 l 1,8,-1
 775 859 l 1,9,-1
 444 859 l 1,10,-1
 444 0 l 1,11,-1
 278 0 l 1,12,-1
 278 859 l 1,13,-1
 135 859 l 1,14,-1
 135 988 l 1,15,-1
 278 988 l 1,16,-1
 278 1088 l 2,17,18
 278 1218 278 1218 317 1286 c 0,19,20
 356 1355 356 1355 432 1392 c 128,-1,21
 508 1429 508 1429 608 1429 c 0,22,23
 715 1429 715 1429 845 1390 c 1,24,-1
 820 1268 l 1,25,26
 727 1292 727 1292 662 1292 c 0,0,1
EndSplineSet
EndChar

StartChar: g
Encoding: 103 103 74
Width: 1176
Flags: W
LayerCount: 2
Fore
SplineSet
587 1008 m 0,0,1
 705 1008 705 1008 860 929 c 1,2,-1
 881 988 l 1,3,-1
 996 988 l 1,4,-1
 996 -62 l 2,5,6
 996 -92 996 -92 994 -120 c 128,-1,7
 992 -148 992 -148 982 -199 c 128,-1,8
 972 -250 972 -250 954 -292 c 128,-1,9
 936 -334 936 -334 899.5 -382.5 c 128,-1,10
 863 -431 863 -431 813.5 -464 c 128,-1,11
 764 -497 764 -497 685.5 -519 c 128,-1,12
 607 -541 607 -541 510 -541 c 0,13,14
 357 -541 357 -541 204 -477 c 1,15,-1
 250 -358 l 1,16,17
 373 -404 373 -404 489 -404 c 0,18,19
 832 -404 832 -404 832 -25 c 2,20,-1
 832 48 l 1,21,22
 703 -20 703 -20 571 -20 c 0,23,24
 507 -20 507 -20 446 -3.5 c 128,-1,25
 385 13 385 13 326.5 51.5 c 128,-1,26
 268 90 268 90 224.5 147.5 c 128,-1,27
 181 205 181 205 154.5 293.5 c 128,-1,28
 128 382 128 382 128 491 c 0,29,30
 128 606 128 606 160 698.5 c 128,-1,31
 192 791 192 791 241 847 c 128,-1,32
 290 903 290 903 353.5 941 c 128,-1,33
 417 979 417 979 475 993.5 c 128,-1,34
 533 1008 533 1008 587 1008 c 0,0,1
597 875 m 0,35,36
 458 875 458 875 373 775 c 128,-1,37
 288 675 288 675 288 510 c 0,38,39
 288 400 288 400 323 312 c 128,-1,40
 358 224 358 224 434 169.5 c 128,-1,41
 510 115 510 115 617 115 c 0,42,43
 726 115 726 115 832 172 c 1,44,-1
 832 819 l 1,45,46
 695 875 695 875 597 875 c 0,35,36
EndSplineSet
EndChar

StartChar: h
Encoding: 104 104 75
Width: 1191
Flags: W
LayerCount: 2
Fore
SplineSet
618 860 m 0,0,1
 501 860 501 860 354 783 c 1,2,-1
 354 0 l 1,3,-1
 190 0 l 1,4,-1
 190 1511 l 1,5,-1
 354 1511 l 1,6,-1
 354 913 l 1,7,8
 529 1006 529 1006 682 1006 c 0,9,10
 748 1006 748 1006 800.5 989 c 128,-1,11
 853 972 853 972 887 946.5 c 128,-1,12
 921 921 921 921 945.5 880.5 c 128,-1,13
 970 840 970 840 982.5 804.5 c 128,-1,14
 995 769 995 769 1001.5 720 c 128,-1,15
 1008 671 1008 671 1009.5 640 c 128,-1,16
 1011 609 1011 609 1011 567 c 2,17,-1
 1011 0 l 1,18,-1
 843 0 l 1,19,-1
 843 597 l 2,20,21
 843 860 843 860 618 860 c 0,0,1
EndSplineSet
EndChar

StartChar: i
Encoding: 105 105 76
Width: 524
Flags: W
LayerCount: 2
Fore
SplineSet
165 1421 m 1,0,-1
 359 1421 l 1,1,-1
 359 1232 l 1,2,-1
 165 1232 l 1,3,-1
 165 1421 l 1,0,-1
180 988 m 1,4,-1
 344 988 l 1,5,-1
 344 0 l 1,6,-1
 180 0 l 1,7,-1
 180 988 l 1,4,-1
EndSplineSet
EndChar

StartChar: j
Encoding: 106 106 77
Width: 524
Flags: W
LayerCount: 2
Fore
SplineSet
165 1421 m 1,0,-1
 359 1421 l 1,1,-1
 359 1232 l 1,2,-1
 165 1232 l 1,3,-1
 165 1421 l 1,0,-1
180 988 m 1,4,-1
 344 988 l 1,5,-1
 344 -137 l 2,6,7
 344 -169 344 -169 343 -189.5 c 128,-1,8
 342 -210 342 -210 337 -246.5 c 128,-1,9
 332 -283 332 -283 322.5 -310 c 128,-1,10
 313 -337 313 -337 293.5 -372 c 128,-1,11
 274 -407 274 -407 246.5 -433.5 c 128,-1,12
 219 -460 219 -460 176.5 -487 c 128,-1,13
 134 -514 134 -514 80 -534 c 1,14,-1
 18 -410 l 1,15,16
 180 -333 180 -333 180 -154 c 2,17,-1
 180 988 l 1,4,-1
EndSplineSet
EndChar

StartChar: k
Encoding: 107 107 78
Width: 1073
Flags: W
LayerCount: 2
Fore
SplineSet
180 1511 m 1,0,-1
 344 1511 l 1,1,-1
 344 0 l 1,2,-1
 180 0 l 1,3,-1
 180 1511 l 1,0,-1
796 1008 m 1,4,-1
 977 1008 l 1,5,-1
 547 563 l 1,6,-1
 1003 0 l 1,7,-1
 806 0 l 1,8,-1
 360 546 l 1,9,-1
 796 1008 l 1,4,-1
EndSplineSet
EndChar

StartChar: l
Encoding: 108 108 79
Width: 564
Flags: W
LayerCount: 2
Fore
SplineSet
200 1511 m 1,0,-1
 364 1511 l 1,1,-1
 364 0 l 1,2,-1
 200 0 l 1,3,-1
 200 1511 l 1,0,-1
EndSplineSet
EndChar

StartChar: m
Encoding: 109 109 80
Width: 1734
Flags: W
LayerCount: 2
Fore
SplineSet
575 856 m 0,0,1
 489 856 489 856 344 780 c 1,2,-1
 344 0 l 1,3,-1
 180 0 l 1,4,-1
 180 988 l 1,5,-1
 295 988 l 1,6,-1
 330 906 l 1,7,8
 509 1007 509 1007 640 1007 c 0,9,10
 791 1007 791 1007 877 897 c 1,11,12
 1073 1006 1073 1006 1228 1006 c 0,13,14
 1303 1006 1303 1006 1360 985.5 c 128,-1,15
 1417 965 1417 965 1452.5 929.5 c 128,-1,16
 1488 894 1488 894 1510.5 840.5 c 128,-1,17
 1533 787 1533 787 1541.5 727.5 c 128,-1,18
 1550 668 1550 668 1550 593 c 2,19,-1
 1550 0 l 1,20,-1
 1386 0 l 1,21,-1
 1386 604 l 2,22,23
 1386 622 1386 622 1385 637.5 c 128,-1,24
 1384 653 1384 653 1380 680.5 c 128,-1,25
 1376 708 1376 708 1368 729.5 c 128,-1,26
 1360 751 1360 751 1344.5 776 c 128,-1,27
 1329 801 1329 801 1307 817.5 c 128,-1,28
 1285 834 1285 834 1251 845 c 128,-1,29
 1217 856 1217 856 1175 856 c 0,30,31
 1083 856 1083 856 932 778 c 1,32,33
 946 719 946 719 946 586 c 2,34,-1
 946 0 l 1,35,-1
 782 0 l 1,36,-1
 782 608 l 2,37,38
 782 634 782 634 780 657.5 c 128,-1,39
 778 681 778 681 766 720 c 128,-1,40
 754 759 754 759 734 786.5 c 128,-1,41
 714 814 714 814 672.5 835 c 128,-1,42
 631 856 631 856 575 856 c 0,0,1
EndSplineSet
EndChar

StartChar: n
Encoding: 110 110 81
Width: 1176
Flags: W
LayerCount: 2
Fore
SplineSet
180 988 m 1,0,-1
 295 988 l 1,1,-1
 331 904 l 1,2,3
 522 1008 522 1008 679 1008 c 0,4,5
 760 1008 760 1008 820 982.5 c 128,-1,6
 880 957 880 957 913 918.5 c 128,-1,7
 946 880 946 880 965.5 821.5 c 128,-1,8
 985 763 985 763 990.5 710 c 128,-1,9
 996 657 996 657 996 589 c 2,10,-1
 996 0 l 1,11,-1
 832 0 l 1,12,-1
 832 600 l 2,13,14
 832 860 832 860 608 860 c 0,15,16
 492 860 492 860 344 783 c 1,17,-1
 344 0 l 1,18,-1
 180 0 l 1,19,-1
 180 988 l 1,0,-1
EndSplineSet
EndChar

StartChar: o
Encoding: 111 111 82
Width: 1211
Flags: W
LayerCount: 2
Fore
SplineSet
611 1007 m 0,0,1
 816 1007 816 1007 948.5 876 c 128,-1,2
 1081 745 1081 745 1081 514 c 0,3,4
 1081 269 1081 269 945.5 124.5 c 128,-1,5
 810 -20 810 -20 595 -20 c 0,6,7
 390 -20 390 -20 260 115.5 c 128,-1,8
 130 251 130 251 130 483 c 0,9,10
 130 722 130 722 262.5 864.5 c 128,-1,11
 395 1007 395 1007 611 1007 c 0,0,1
597 867 m 0,12,13
 474 867 474 867 382 772 c 128,-1,14
 290 677 290 677 290 511 c 0,15,16
 290 346 290 346 380 233 c 128,-1,17
 470 120 470 120 613 120 c 0,18,19
 745 120 745 120 833 220 c 128,-1,20
 921 320 921 320 921 481 c 0,21,22
 921 573 921 573 892.5 648 c 128,-1,23
 864 723 864 723 817.5 770 c 128,-1,24
 771 817 771 817 714 842 c 128,-1,25
 657 867 657 867 597 867 c 0,12,13
EndSplineSet
EndChar

StartChar: p
Encoding: 112 112 83
Width: 1177
Flags: W
LayerCount: 2
Fore
SplineSet
612 1007 m 0,0,1
 673 1007 673 1007 731 992.5 c 128,-1,2
 789 978 789 978 847.5 941.5 c 128,-1,3
 906 905 906 905 949.5 849.5 c 128,-1,4
 993 794 993 794 1020.5 705 c 128,-1,5
 1048 616 1048 616 1048 505 c 0,6,7
 1048 262 1048 262 918.5 121 c 128,-1,8
 789 -20 789 -20 583 -20 c 0,9,10
 465 -20 465 -20 344 33 c 1,11,-1
 344 -531 l 1,12,-1
 180 -531 l 1,13,-1
 180 988 l 1,14,-1
 294 988 l 1,15,-1
 321 925 l 1,16,17
 461 1007 461 1007 612 1007 c 0,0,1
556 871 m 0,18,19
 447 871 447 871 344 816 c 1,20,-1
 344 157 l 1,21,22
 451 109 451 109 559 109 c 0,23,24
 605 109 605 109 648 119 c 128,-1,25
 691 129 691 129 735.5 155.5 c 128,-1,26
 780 182 780 182 813 222 c 128,-1,27
 846 262 846 262 867 328 c 128,-1,28
 888 394 888 394 888 477 c 0,29,30
 888 571 888 571 866 643 c 128,-1,31
 844 715 844 715 810 757 c 128,-1,32
 776 799 776 799 730 826 c 128,-1,33
 684 853 684 853 642 862 c 128,-1,34
 600 871 600 871 556 871 c 0,18,19
EndSplineSet
EndChar

StartChar: q
Encoding: 113 113 84
Width: 1176
Flags: W
LayerCount: 2
Fore
SplineSet
587 1008 m 0,0,1
 705 1008 705 1008 860 929 c 1,2,-1
 881 988 l 1,3,-1
 996 988 l 1,4,-1
 996 -531 l 1,5,-1
 832 -531 l 1,6,-1
 832 49 l 1,7,8
 701 -20 701 -20 564 -20 c 0,9,10
 502 -20 502 -20 443.5 -5 c 128,-1,11
 385 10 385 10 326.5 47.5 c 128,-1,12
 268 85 268 85 225 141 c 128,-1,13
 182 197 182 197 155 286.5 c 128,-1,14
 128 376 128 376 128 488 c 0,15,16
 128 616 128 616 168 718 c 128,-1,17
 208 820 208 820 274.5 881.5 c 128,-1,18
 341 943 341 943 421 975.5 c 128,-1,19
 501 1008 501 1008 587 1008 c 0,0,1
597 875 m 0,20,21
 457 875 457 875 372.5 775 c 128,-1,22
 288 675 288 675 288 504 c 0,23,24
 288 416 288 416 309 346.5 c 128,-1,25
 330 277 330 277 363.5 234.5 c 128,-1,26
 397 192 397 192 442 164.5 c 128,-1,27
 487 137 487 137 530.5 126.5 c 128,-1,28
 574 116 574 116 620 116 c 0,29,30
 729 116 729 116 832 171 c 1,31,-1
 832 819 l 1,32,33
 695 875 695 875 597 875 c 0,20,21
EndSplineSet
EndChar

StartChar: r
Encoding: 114 114 85
Width: 801
Flags: W
LayerCount: 2
Fore
SplineSet
326 914 m 1,0,1
 451 1007 451 1007 602 1007 c 0,2,3
 706 1007 706 1007 791 968 c 1,4,-1
 741 837 l 1,5,6
 663 867 663 867 579 867 c 0,7,8
 454 867 454 867 344 798 c 1,9,-1
 344 0 l 1,10,-1
 180 0 l 1,11,-1
 180 988 l 1,12,-1
 295 988 l 1,13,-1
 326 914 l 1,0,1
EndSplineSet
EndChar

StartChar: s
Encoding: 115 115 86
Width: 1016
Flags: W
LayerCount: 2
Fore
SplineSet
590 1007 m 0,0,1
 611 1007 611 1007 629.5 1006.5 c 128,-1,2
 648 1006 648 1006 665.5 1004 c 128,-1,3
 683 1002 683 1002 695.5 1001 c 128,-1,4
 708 1000 708 1000 724.5 997 c 128,-1,5
 741 994 741 994 748.5 992.5 c 128,-1,6
 756 991 756 991 773.5 986.5 c 128,-1,7
 791 982 791 982 795 981 c 128,-1,8
 799 980 799 980 818.5 974 c 128,-1,9
 838 968 838 968 841 967 c 1,10,-1
 799 842 l 1,11,12
 665 879 665 879 563 879 c 0,13,14
 504 879 504 879 458.5 867 c 128,-1,15
 413 855 413 855 388.5 838 c 128,-1,16
 364 821 364 821 348.5 798.5 c 128,-1,17
 333 776 333 776 328.5 759 c 128,-1,18
 324 742 324 742 324 726 c 0,19,20
 324 685 324 685 366.5 653 c 128,-1,21
 409 621 409 621 472.5 601 c 128,-1,22
 536 581 536 581 610 553.5 c 128,-1,23
 684 526 684 526 747.5 495.5 c 128,-1,24
 811 465 811 465 853.5 410 c 128,-1,25
 896 355 896 355 896 283 c 0,26,27
 896 242 896 242 885.5 203.5 c 128,-1,28
 875 165 875 165 845.5 123 c 128,-1,29
 816 81 816 81 769.5 50.5 c 128,-1,30
 723 20 723 20 645 0 c 128,-1,31
 567 -20 567 -20 466 -20 c 0,32,33
 313 -20 313 -20 130 55 c 1,34,-1
 176 179 l 1,35,36
 279 141 279 141 344.5 125 c 128,-1,37
 410 109 410 109 473 109 c 0,38,39
 717 109 717 109 717 264 c 0,40,41
 717 298 717 298 693 324 c 128,-1,42
 669 350 669 350 629 366.5 c 128,-1,43
 589 383 589 383 538.5 400.5 c 128,-1,44
 488 418 488 418 435.5 433 c 128,-1,45
 383 448 383 448 332.5 472.5 c 128,-1,46
 282 497 282 497 242 526.5 c 128,-1,47
 202 556 202 556 178 603 c 128,-1,48
 154 650 154 650 154 709 c 0,49,50
 154 745 154 745 165.5 782.5 c 128,-1,51
 177 820 177 820 208.5 861.5 c 128,-1,52
 240 903 240 903 287 934.5 c 128,-1,53
 334 966 334 966 412.5 986.5 c 128,-1,54
 491 1007 491 1007 590 1007 c 0,0,1
EndSplineSet
EndChar

StartChar: t
Encoding: 116 116 87
Width: 775
Flags: W
LayerCount: 2
Fore
SplineSet
705 17 m 1,0,1
 560 -20 560 -20 479 -20 c 128,-1,2
 398 -20 398 -20 342 6 c 128,-1,3
 286 32 286 32 257 80 c 128,-1,4
 228 128 228 128 215.5 183.5 c 128,-1,5
 203 239 203 239 203 311 c 2,6,-1
 203 859 l 1,7,-1
 70 859 l 1,8,-1
 70 988 l 1,9,-1
 203 988 l 1,10,-1
 203 1271 l 1,11,-1
 367 1271 l 1,12,-1
 367 988 l 1,13,-1
 668 988 l 1,14,-1
 668 859 l 1,15,-1
 367 859 l 1,16,-1
 367 313 l 2,17,18
 367 108 367 108 529 108 c 0,19,20
 558 108 558 108 682 129 c 1,21,-1
 705 17 l 1,0,1
EndSplineSet
EndChar

StartChar: u
Encoding: 117 117 88
Width: 1177
Flags: W
LayerCount: 2
Fore
SplineSet
833 988 m 1,0,-1
 997 988 l 1,1,-1
 997 0 l 1,2,-1
 882 0 l 1,3,-1
 847 83 l 1,4,5
 658 -20 658 -20 498 -20 c 0,6,7
 417 -20 417 -20 357 5.5 c 128,-1,8
 297 31 297 31 264 69 c 128,-1,9
 231 107 231 107 211 165.5 c 128,-1,10
 191 224 191 224 185.5 277 c 128,-1,11
 180 330 180 330 180 398 c 2,12,-1
 180 988 l 1,13,-1
 344 988 l 1,14,-1
 344 386 l 2,15,16
 344 127 344 127 569 127 c 0,17,18
 685 127 685 127 833 204 c 1,19,-1
 833 988 l 1,0,-1
EndSplineSet
EndChar

StartChar: v
Encoding: 118 118 89
Width: 993
Flags: W
LayerCount: 2
Fore
SplineSet
928 988 m 1,0,-1
 581 0 l 1,1,-1
 411 0 l 1,2,-1
 65 988 l 1,3,-1
 245 988 l 1,4,-1
 501 163 l 1,5,-1
 758 988 l 1,6,-1
 928 988 l 1,0,-1
EndSplineSet
EndChar

StartChar: w
Encoding: 119 119 90
Width: 1685
Flags: W
LayerCount: 2
Fore
SplineSet
60 988 m 1,0,-1
 235 988 l 1,1,-1
 503 159 l 1,2,-1
 757 988 l 1,3,-1
 918 988 l 1,4,-1
 1182 160 l 1,5,-1
 1450 988 l 1,6,-1
 1625 988 l 1,7,-1
 1264 0 l 1,8,-1
 1099 0 l 1,9,-1
 836 801 l 1,10,-1
 576 0 l 1,11,-1
 411 0 l 1,12,-1
 60 988 l 1,0,-1
EndSplineSet
EndChar

StartChar: x
Encoding: 120 120 91
Width: 1048
Flags: W
LayerCount: 2
Fore
SplineSet
65 988 m 1,0,-1
 255 988 l 1,1,-1
 534 596 l 1,2,-1
 803 988 l 1,3,-1
 978 988 l 1,4,-1
 614 484 l 1,5,-1
 959 0 l 1,6,-1
 769 0 l 1,7,-1
 504 371 l 1,8,-1
 252 0 l 1,9,-1
 77 0 l 1,10,-1
 423 485 l 1,11,-1
 65 988 l 1,0,-1
EndSplineSet
EndChar

StartChar: y
Encoding: 121 121 92
Width: 1060
Flags: W
LayerCount: 2
Fore
SplineSet
50 988 m 1,0,-1
 230 988 l 1,1,-1
 546 150 l 1,2,-1
 840 988 l 1,3,-1
 1010 988 l 1,4,-1
 440 -531 l 1,5,-1
 265 -531 l 1,6,-1
 463 -49 l 1,7,-1
 50 988 l 1,0,-1
EndSplineSet
EndChar

StartChar: z
Encoding: 122 122 93
Width: 1078
Flags: W
LayerCount: 2
Fore
SplineSet
150 988 m 1,0,-1
 903 988 l 1,1,-1
 903 901 l 1,2,-1
 363 129 l 1,3,-1
 928 129 l 1,4,-1
 928 0 l 1,5,-1
 150 0 l 1,6,-1
 150 87 l 1,7,-1
 688 859 l 1,8,-1
 150 859 l 1,9,-1
 150 988 l 1,0,-1
EndSplineSet
EndChar

StartChar: braceleft
Encoding: 123 123 94
Width: 798
Flags: W
LayerCount: 2
Fore
SplineSet
90 618 m 1,0,1
 183 634 183 634 249 707 c 128,-1,2
 315 780 315 780 333 916 c 0,3,4
 337 948 337 948 341.5 1007.5 c 128,-1,5
 346 1067 346 1067 347 1080 c 0,6,7
 357 1185 357 1185 390.5 1265.5 c 128,-1,8
 424 1346 424 1346 464 1389.5 c 128,-1,9
 504 1433 504 1433 555.5 1462 c 128,-1,10
 607 1491 607 1491 642.5 1499.5 c 128,-1,11
 678 1508 678 1508 712 1511 c 1,12,-1
 742 1382 l 1,13,14
 686 1375 686 1375 637 1342.5 c 128,-1,15
 588 1310 588 1310 556 1262 c 0,16,17
 526 1217 526 1217 510.5 1153 c 128,-1,18
 495 1089 495 1089 492.5 1028 c 128,-1,19
 490 967 490 967 481.5 897 c 128,-1,20
 473 827 473 827 459 767 c 128,-1,21
 445 707 445 707 405.5 648.5 c 128,-1,22
 366 590 366 590 302 549 c 1,23,24
 377 500 377 500 418.5 428 c 128,-1,25
 460 356 460 356 472 278 c 128,-1,26
 484 200 484 200 488.5 123.5 c 128,-1,27
 493 47 493 47 507.5 -32 c 128,-1,28
 522 -111 522 -111 556 -163 c 0,29,30
 588 -211 588 -211 637 -243.5 c 128,-1,31
 686 -276 686 -276 742 -283 c 1,32,-1
 712 -412 l 1,33,34
 681 -410 681 -410 647 -401.5 c 128,-1,35
 613 -393 613 -393 561 -365.5 c 128,-1,36
 509 -338 509 -338 468 -295.5 c 128,-1,37
 427 -253 427 -253 392 -174.5 c 128,-1,38
 357 -96 357 -96 347 6 c 0,39,40
 345 28 345 28 341.5 75.5 c 128,-1,41
 338 123 338 123 335.5 153.5 c 128,-1,42
 333 184 333 184 324 229 c 128,-1,43
 315 274 315 274 302 306 c 128,-1,44
 289 338 289 338 264 372.5 c 128,-1,45
 239 407 239 407 204 432 c 0,46,47
 153 469 153 469 90 480 c 1,48,-1
 90 618 l 1,0,1
EndSplineSet
EndChar

StartChar: bar
Encoding: 124 124 95
Width: 884
Flags: W
LayerCount: 2
Fore
SplineSet
360 1601 m 1,0,-1
 524 1601 l 1,1,-1
 524 -308 l 1,2,-1
 360 -308 l 1,3,-1
 360 1601 l 1,0,-1
EndSplineSet
EndChar

StartChar: braceright
Encoding: 125 125 96
Width: 798
Flags: W
LayerCount: 2
Fore
SplineSet
86 1511 m 1,0,1
 120 1508 120 1508 155.5 1499.5 c 128,-1,2
 191 1491 191 1491 242.5 1462 c 128,-1,3
 294 1433 294 1433 334 1389.5 c 128,-1,4
 374 1346 374 1346 407.5 1265.5 c 128,-1,5
 441 1185 441 1185 451 1080 c 0,6,7
 452 1067 452 1067 456.5 1007.5 c 128,-1,8
 461 948 461 948 465 916 c 0,9,10
 483 780 483 780 549 707 c 128,-1,11
 615 634 615 634 708 618 c 1,12,-1
 708 480 l 1,13,14
 645 469 645 469 594 432 c 0,15,16
 559 407 559 407 534 372.5 c 128,-1,17
 509 338 509 338 496 306 c 128,-1,18
 483 274 483 274 474 229 c 128,-1,19
 465 184 465 184 462.5 153.5 c 128,-1,20
 460 123 460 123 456.5 75.5 c 128,-1,21
 453 28 453 28 451 6 c 0,22,23
 441 -96 441 -96 406 -174.5 c 128,-1,24
 371 -253 371 -253 330 -295.5 c 128,-1,25
 289 -338 289 -338 237 -365.5 c 128,-1,26
 185 -393 185 -393 151 -401.5 c 128,-1,27
 117 -410 117 -410 86 -412 c 1,28,-1
 56 -283 l 1,29,30
 112 -276 112 -276 161 -243.5 c 128,-1,31
 210 -211 210 -211 242 -163 c 0,32,33
 276 -111 276 -111 290.5 -32 c 128,-1,34
 305 47 305 47 309.5 123.5 c 128,-1,35
 314 200 314 200 326 278 c 128,-1,36
 338 356 338 356 379.5 428 c 128,-1,37
 421 500 421 500 496 549 c 1,38,39
 432 590 432 590 392.5 648.5 c 128,-1,40
 353 707 353 707 339 767 c 128,-1,41
 325 827 325 827 316.5 897 c 128,-1,42
 308 967 308 967 305.5 1028 c 128,-1,43
 303 1089 303 1089 287.5 1153 c 128,-1,44
 272 1217 272 1217 242 1262 c 0,45,46
 210 1310 210 1310 161 1342.5 c 128,-1,47
 112 1375 112 1375 56 1382 c 1,48,-1
 86 1511 l 1,0,1
EndSplineSet
EndChar

StartChar: asciitilde
Encoding: 126 126 97
Width: 1400
Flags: W
LayerCount: 2
Fore
SplineSet
876 1361 m 0,0,1
 888 1361 888 1361 898.5 1364.5 c 128,-1,2
 909 1368 909 1368 917 1375.5 c 128,-1,3
 925 1383 925 1383 931.5 1390.5 c 128,-1,4
 938 1398 938 1398 943.5 1411.5 c 128,-1,5
 949 1425 949 1425 952.5 1435 c 128,-1,6
 956 1445 956 1445 960 1462.5 c 128,-1,7
 964 1480 964 1480 966 1489.5 c 128,-1,8
 968 1499 968 1499 971.5 1518 c 128,-1,9
 975 1537 975 1537 976 1545 c 1,10,-1
 1084 1528 l 1,11,12
 1082 1519 1082 1519 1076 1487 c 128,-1,13
 1070 1455 1070 1455 1067 1442.5 c 128,-1,14
 1064 1430 1064 1430 1057 1400.5 c 128,-1,15
 1050 1371 1050 1371 1043 1357.5 c 128,-1,16
 1036 1344 1036 1344 1025 1321 c 128,-1,17
 1014 1298 1014 1298 1001 1286.5 c 128,-1,18
 988 1275 988 1275 970.5 1262 c 128,-1,19
 953 1249 953 1249 930.5 1244 c 128,-1,20
 908 1239 908 1239 882 1239 c 0,21,22
 838 1239 838 1239 796.5 1257.5 c 128,-1,23
 755 1276 755 1276 724.5 1303 c 128,-1,24
 694 1330 694 1330 667 1357 c 128,-1,25
 640 1384 640 1384 613.5 1402.5 c 128,-1,26
 587 1421 587 1421 564 1421 c 0,27,28
 552 1421 552 1421 541.5 1418 c 128,-1,29
 531 1415 531 1415 522.5 1406.5 c 128,-1,30
 514 1398 514 1398 508 1391.5 c 128,-1,31
 502 1385 502 1385 496 1370.5 c 128,-1,32
 490 1356 490 1356 487 1348 c 128,-1,33
 484 1340 484 1340 479.5 1321 c 128,-1,34
 475 1302 475 1302 473.5 1295 c 128,-1,35
 472 1288 472 1288 468.5 1267 c 128,-1,36
 465 1246 465 1246 464 1241 c 1,37,-1
 356 1256 l 1,38,39
 358 1264 358 1264 364 1296.5 c 128,-1,40
 370 1329 370 1329 373 1341 c 128,-1,41
 376 1353 376 1353 383 1383 c 128,-1,42
 390 1413 390 1413 397 1426 c 128,-1,43
 404 1439 404 1439 415 1462 c 128,-1,44
 426 1485 426 1485 439 1496 c 128,-1,45
 452 1507 452 1507 469.5 1520 c 128,-1,46
 487 1533 487 1533 509.5 1538 c 128,-1,47
 532 1543 532 1543 558 1543 c 0,48,49
 602 1543 602 1543 643.5 1524.5 c 128,-1,50
 685 1506 685 1506 715.5 1479 c 128,-1,51
 746 1452 746 1452 773 1425 c 128,-1,52
 800 1398 800 1398 826.5 1379.5 c 128,-1,53
 853 1361 853 1361 876 1361 c 0,0,1
EndSplineSet
EndChar

StartChar: exclamdown
Encoding: 161 161 99
Width: 650
Flags: W
LayerCount: 2
Fore
SplineSet
240 863 m 1,0,-1
 410 863 l 1,1,-1
 410 -410 l 1,2,-1
 240 -410 l 1,3,-1
 240 863 l 1,0,-1
225 1321 m 1,4,-1
 425 1321 l 1,5,-1
 425 1121 l 1,6,-1
 225 1121 l 1,7,-1
 225 1321 l 1,4,-1
EndSplineSet
EndChar

StartChar: cent
Encoding: 162 162 100
Width: 1021
Flags: W
LayerCount: 2
Fore
SplineSet
150 713 m 0,0,1
 150 930 150 930 252 1069 c 128,-1,2
 354 1208 354 1208 543 1236 c 1,3,-1
 543 1511 l 1,4,-1
 664 1511 l 1,5,-1
 664 1241 l 1,6,7
 772 1241 772 1241 906 1183 c 1,8,-1
 866 1063 l 1,9,10
 755 1101 755 1101 649 1101 c 0,11,12
 484 1101 484 1101 396.5 1009.5 c 128,-1,13
 309 918 309 918 309 747 c 0,14,15
 309 658 309 658 331 588.5 c 128,-1,16
 353 519 353 519 387.5 477 c 128,-1,17
 422 435 422 435 470.5 407.5 c 128,-1,18
 519 380 519 380 567 370 c 128,-1,19
 615 360 615 360 669 360 c 0,20,21
 761 360 761 360 855 393 c 1,22,-1
 895 280 l 1,23,24
 765 229 765 229 664 229 c 1,25,-1
 664 -65 l 1,26,-1
 543 -65 l 1,27,-1
 543 229 l 1,28,29
 367 249 367 249 258.5 369.5 c 128,-1,30
 150 490 150 490 150 713 c 0,0,1
EndSplineSet
EndChar

StartChar: sterling
Encoding: 163 163 101
Width: 1300
Flags: W
LayerCount: 2
Fore
SplineSet
152 135 m 1,0,-1
 396 135 l 1,1,-1
 396 662 l 1,2,-1
 220 662 l 1,3,-1
 220 797 l 1,4,-1
 396 797 l 1,5,-1
 396 938 l 2,6,7
 396 1052 396 1052 425.5 1140 c 128,-1,8
 455 1228 455 1228 502.5 1282 c 128,-1,9
 550 1336 550 1336 615.5 1370.5 c 128,-1,10
 681 1405 681 1405 745.5 1418 c 128,-1,11
 810 1431 810 1431 882 1431 c 0,12,13
 998 1431 998 1431 1117 1393 c 1,14,-1
 1069 1271 l 1,15,16
 980 1295 980 1295 904 1295 c 0,17,18
 838 1295 838 1295 785.5 1281.5 c 128,-1,19
 733 1268 733 1268 697.5 1246 c 128,-1,20
 662 1224 662 1224 636 1191.5 c 128,-1,21
 610 1159 610 1159 595.5 1127 c 128,-1,22
 581 1095 581 1095 573 1054 c 128,-1,23
 565 1013 565 1013 562.5 981 c 128,-1,24
 560 949 560 949 560 911 c 2,25,-1
 560 797 l 1,26,-1
 1090 797 l 1,27,-1
 1090 662 l 1,28,-1
 560 662 l 1,29,-1
 560 135 l 1,30,-1
 1148 135 l 1,31,-1
 1148 0 l 1,32,-1
 152 0 l 1,33,-1
 152 135 l 1,0,-1
EndSplineSet
EndChar

StartChar: currency
Encoding: 164 164 102
Width: 1300
Flags: W
LayerCount: 2
Fore
SplineSet
650 1087 m 0,0,1
 744 1087 744 1087 823 1040 c 1,2,-1
 989 1205 l 1,3,-1
 1114 1080 l 1,4,-1
 948 915 l 1,5,6
 995 834 995 834 995 742 c 0,7,8
 995 648 995 648 948 569 c 1,9,-1
 1113 404 l 1,10,-1
 988 279 l 1,11,-1
 823 444 l 1,12,13
 742 396 742 396 649 396 c 128,-1,14
 556 396 556 396 477 443 c 1,15,-1
 311 277 l 1,16,-1
 186 402 l 1,17,-1
 352 568 l 1,18,19
 304 647 304 647 304 741 c 0,20,21
 304 834 304 834 352 915 c 1,22,-1
 185 1082 l 1,23,-1
 310 1207 l 1,24,-1
 477 1040 l 1,25,26
 558 1087 558 1087 650 1087 c 0,0,1
650 946 m 128,-1,28
 568 946 568 946 509 886.5 c 128,-1,29
 450 827 450 827 450 741 c 0,30,31
 450 657 450 657 508 597 c 128,-1,32
 566 537 566 537 649 537 c 0,33,34
 731 537 731 537 790 597 c 128,-1,35
 849 657 849 657 849 741 c 0,36,37
 849 827 849 827 790.5 886.5 c 128,-1,27
 732 946 732 946 650 946 c 128,-1,28
EndSplineSet
EndChar

StartChar: yen
Encoding: 165 165 103
Width: 1300
Flags: W
LayerCount: 2
Fore
SplineSet
143 1421 m 1,0,-1
 328 1421 l 1,1,-1
 650 818 l 1,2,-1
 982 1421 l 1,3,-1
 1157 1421 l 1,4,-1
 730 699 l 1,5,-1
 1012 699 l 1,6,-1
 1012 574 l 1,7,-1
 723 574 l 1,8,-1
 723 374 l 1,9,-1
 1012 374 l 1,10,-1
 1012 249 l 1,11,-1
 723 249 l 1,12,-1
 723 0 l 1,13,-1
 563 0 l 1,14,-1
 563 249 l 1,15,-1
 288 249 l 1,16,-1
 288 374 l 1,17,-1
 563 374 l 1,18,-1
 563 574 l 1,19,-1
 288 574 l 1,20,-1
 288 699 l 1,21,-1
 556 699 l 1,22,-1
 143 1421 l 1,0,-1
EndSplineSet
EndChar

StartChar: brokenbar
Encoding: 166 166 104
Width: 884
Flags: W
LayerCount: 2
Fore
SplineSet
360 460 m 1,0,-1
 524 460 l 1,1,-1
 524 -308 l 1,2,-1
 360 -308 l 1,3,-1
 360 460 l 1,0,-1
360 1601 m 1,4,-1
 524 1601 l 1,5,-1
 524 837 l 1,6,-1
 360 837 l 1,7,-1
 360 1601 l 1,4,-1
EndSplineSet
EndChar

StartChar: section
Encoding: 167 167 105
Width: 1136
Flags: W
LayerCount: 2
Fore
SplineSet
651 1434 m 0,0,1
 679 1434 679 1434 704 1433 c 128,-1,2
 729 1432 729 1432 752 1429 c 128,-1,3
 775 1426 775 1426 790 1424 c 128,-1,4
 805 1422 805 1422 827.5 1416.5 c 128,-1,5
 850 1411 850 1411 858 1409 c 128,-1,6
 866 1407 866 1407 891 1400 c 128,-1,7
 916 1393 916 1393 922 1391 c 1,8,-1
 877 1260 l 1,9,10
 752 1299 752 1299 626 1299 c 0,11,12
 518 1299 518 1299 446 1259 c 128,-1,13
 374 1219 374 1219 374 1148 c 0,14,15
 374 1106 374 1106 407 1074 c 128,-1,16
 440 1042 440 1042 493 1019.5 c 128,-1,17
 546 997 546 997 610 976 c 128,-1,18
 674 955 674 955 738.5 930 c 128,-1,19
 803 905 803 905 856 874 c 128,-1,20
 909 843 909 843 942 794 c 128,-1,21
 975 745 975 745 975 682 c 0,22,23
 975 559 975 559 891 474 c 1,24,25
 974 406 974 406 974 306 c 0,26,27
 974 263 974 263 963 221.5 c 128,-1,28
 952 180 952 180 920.5 135 c 128,-1,29
 889 90 889 90 841 57 c 128,-1,30
 793 24 793 24 711 2 c 128,-1,31
 629 -20 629 -20 524 -20 c 2,32,-1
 511 -20 l 2,33,34
 325 -20 325 -20 160 45 c 1,35,-1
 206 169 l 1,36,37
 377 109 377 109 510 109 c 0,38,39
 786 109 786 109 786 286 c 0,40,41
 786 329 786 329 753.5 361 c 128,-1,42
 721 393 721 393 669 413 c 128,-1,43
 617 433 617 433 554 451.5 c 128,-1,44
 491 470 491 470 427.5 493 c 128,-1,45
 364 516 364 516 312 547 c 128,-1,46
 260 578 260 578 227.5 630.5 c 128,-1,47
 195 683 195 683 195 752 c 0,48,49
 195 860 195 860 283 944 c 1,50,51
 195 1015 195 1015 195 1127 c 0,52,53
 195 1167 195 1167 208 1206.5 c 128,-1,54
 221 1246 221 1246 254.5 1288 c 128,-1,55
 288 1330 288 1330 338 1361.5 c 128,-1,56
 388 1393 388 1393 469 1413.5 c 128,-1,57
 550 1434 550 1434 651 1434 c 0,0,1
424 870 m 1,58,59
 374 830 374 830 374 771 c 0,60,61
 374 736 374 736 394.5 709 c 128,-1,62
 415 682 415 682 457.5 660.5 c 128,-1,63
 500 639 500 639 538.5 624.5 c 128,-1,64
 577 610 577 610 641.5 589 c 128,-1,65
 706 568 706 568 743 554 c 1,66,67
 786 596 786 596 786 662 c 0,68,69
 786 692 786 692 770 717 c 128,-1,70
 754 742 754 742 730 758.5 c 128,-1,71
 706 775 706 775 666.5 791 c 128,-1,72
 627 807 627 807 592.5 817 c 128,-1,73
 558 827 558 827 508 842.5 c 128,-1,74
 458 858 458 858 424 870 c 1,58,59
EndSplineSet
EndChar

StartChar: dieresis
Encoding: 168 168 106
Width: 1200
Flags: W
LayerCount: 2
Fore
SplineSet
283 1421 m 1,0,-1
 468 1421 l 1,1,-1
 468 1235 l 1,2,-1
 283 1235 l 1,3,-1
 283 1421 l 1,0,-1
732 1421 m 1,4,-1
 917 1421 l 1,5,-1
 917 1235 l 1,6,-1
 732 1235 l 1,7,-1
 732 1421 l 1,4,-1
EndSplineSet
EndChar

StartChar: copyright
Encoding: 169 169 107
Width: 1760
Flags: W
LayerCount: 2
Fore
SplineSet
906 1055 m 0,0,1
 1010 1055 1010 1055 1107 1012 c 1,2,-1
 1077 925 l 1,3,4
 998 953 998 953 919 953 c 0,5,6
 871 953 871 953 831 941 c 128,-1,7
 791 929 791 929 754 902 c 128,-1,8
 717 875 717 875 696 822 c 128,-1,9
 675 769 675 769 675 694 c 0,10,11
 675 614 675 614 697 557.5 c 128,-1,12
 719 501 719 501 757.5 471.5 c 128,-1,13
 796 442 796 442 838.5 429 c 128,-1,14
 881 416 881 416 932 416 c 0,15,16
 999 416 999 416 1069 440 c 1,17,-1
 1099 358 l 1,18,19
 998 319 998 319 895 319 c 0,20,21
 848 319 848 319 804 328.5 c 128,-1,22
 760 338 760 338 714.5 362.5 c 128,-1,23
 669 387 669 387 635.5 425.5 c 128,-1,24
 602 464 602 464 581 528 c 128,-1,25
 560 592 560 592 560 673 c 0,26,27
 560 776 560 776 590 853 c 128,-1,28
 620 930 620 930 671.5 972.5 c 128,-1,29
 723 1015 723 1015 781.5 1035 c 128,-1,30
 840 1055 840 1055 906 1055 c 0,0,1
880 1248 m 128,-1,32
 761 1248 761 1248 654 1202.5 c 128,-1,33
 547 1157 547 1157 470 1080.5 c 128,-1,34
 393 1004 393 1004 348 900 c 128,-1,35
 303 796 303 796 303 683 c 128,-1,36
 303 570 303 570 348 466 c 128,-1,37
 393 362 393 362 470 285.5 c 128,-1,38
 547 209 547 209 654 163.5 c 128,-1,39
 761 118 761 118 880 118 c 128,-1,40
 999 118 999 118 1106 163.5 c 128,-1,41
 1213 209 1213 209 1290 285.5 c 128,-1,42
 1367 362 1367 362 1412 466 c 128,-1,43
 1457 570 1457 570 1457 683 c 128,-1,44
 1457 796 1457 796 1412 900 c 128,-1,45
 1367 1004 1367 1004 1290 1080.5 c 128,-1,46
 1213 1157 1213 1157 1106 1202.5 c 128,-1,31
 999 1248 999 1248 880 1248 c 128,-1,32
880 1380 m 0,47,48
 1026 1380 1026 1380 1158.5 1323.5 c 128,-1,49
 1291 1267 1291 1267 1385 1172.5 c 128,-1,50
 1479 1078 1479 1078 1534.5 950 c 128,-1,51
 1590 822 1590 822 1590 683 c 128,-1,52
 1590 544 1590 544 1534.5 416 c 128,-1,53
 1479 288 1479 288 1385 193.5 c 128,-1,54
 1291 99 1291 99 1158.5 42.5 c 128,-1,55
 1026 -14 1026 -14 880 -14 c 128,-1,56
 734 -14 734 -14 601.5 42.5 c 128,-1,57
 469 99 469 99 375 193.5 c 128,-1,58
 281 288 281 288 225.5 416 c 128,-1,59
 170 544 170 544 170 683 c 0,60,61
 170 820 170 820 224.5 947.5 c 128,-1,62
 279 1075 279 1075 372 1170 c 128,-1,63
 465 1265 465 1265 598 1322.5 c 128,-1,64
 731 1380 731 1380 880 1380 c 0,47,48
EndSplineSet
EndChar

StartChar: ordfeminine
Encoding: 170 170 108
Width: 766
Flags: W
LayerCount: 2
Fore
SplineSet
523 1102 m 1,0,-1
 523 1125 l 2,1,2
 523 1259 523 1259 381 1259 c 0,3,4
 300 1259 300 1259 211 1232 c 1,5,-1
 193 1303 l 1,6,7
 292 1339 292 1339 392 1339 c 0,8,9
 456 1339 456 1339 502 1322.5 c 128,-1,10
 548 1306 548 1306 570.5 1285 c 128,-1,11
 593 1264 593 1264 605 1231 c 128,-1,12
 617 1198 617 1198 619 1178.5 c 128,-1,13
 621 1159 621 1159 621 1131 c 2,14,-1
 621 760 l 1,15,-1
 551 760 l 1,16,-1
 529 814 l 1,17,18
 462 742 462 742 379 742 c 0,19,20
 288 742 288 742 231.5 787.5 c 128,-1,21
 175 833 175 833 175 915 c 0,22,23
 175 1027 175 1027 256.5 1064.5 c 128,-1,24
 338 1102 338 1102 523 1102 c 1,0,-1
523 1019 m 1,25,-1
 495 1019 l 2,26,27
 451 1019 451 1019 420 1016.5 c 128,-1,28
 389 1014 389 1014 351 1005 c 128,-1,29
 313 996 313 996 292.5 973.5 c 128,-1,30
 272 951 272 951 272 917 c 0,31,32
 272 881 272 881 306 851.5 c 128,-1,33
 340 822 340 822 394 822 c 0,34,35
 470 822 470 822 523 902 c 1,36,-1
 523 1019 l 1,25,-1
EndSplineSet
EndChar

StartChar: guillemotleft
Encoding: 171 171 109
Width: 936
Flags: W
LayerCount: 2
Fore
SplineSet
701 988 m 1,0,-1
 886 988 l 1,1,-1
 612 623 l 1,2,-1
 886 258 l 1,3,-1
 701 258 l 1,4,-1
 446 623 l 1,5,-1
 701 988 l 1,0,-1
330 988 m 1,6,-1
 515 988 l 1,7,-1
 241 623 l 1,8,-1
 515 258 l 1,9,-1
 330 258 l 1,10,-1
 75 623 l 1,11,-1
 330 988 l 1,6,-1
EndSplineSet
EndChar

StartChar: logicalnot
Encoding: 172 172 110
Width: 1400
Flags: W
LayerCount: 2
Fore
SplineSet
125 732 m 1,0,-1
 1275 732 l 1,1,-1
 1275 282 l 1,2,-1
 1127 282 l 1,3,-1
 1127 583 l 1,4,-1
 125 583 l 1,5,-1
 125 732 l 1,0,-1
EndSplineSet
EndChar

StartChar: uni00AD
Encoding: 173 173 111
Width: 1074
Flags: W
LayerCount: 2
Fore
SplineSet
220 728 m 1,0,-1
 854 728 l 1,1,-1
 854 589 l 1,2,-1
 220 589 l 1,3,-1
 220 728 l 1,0,-1
EndSplineSet
EndChar

StartChar: registered
Encoding: 174 174 112
Width: 1232
Flags: W
LayerCount: 2
Fore
SplineSet
649 1320 m 2,0,1
 672 1320 672 1320 688 1318 c 128,-1,2
 704 1316 704 1316 729.5 1309.5 c 128,-1,3
 755 1303 755 1303 775.5 1284.5 c 128,-1,4
 796 1266 796 1266 810 1237 c 0,5,6
 826 1203 826 1203 826 1158 c 0,7,8
 826 1033 826 1033 721 998 c 1,9,-1
 833 776 l 1,10,-1
 733 776 l 1,11,-1
 632 984 l 1,12,-1
 520 984 l 1,13,-1
 520 776 l 1,14,-1
 427 776 l 1,15,-1
 427 1320 l 1,16,-1
 649 1320 l 2,0,1
616 1561 m 0,17,18
 758 1561 758 1561 879 1492 c 128,-1,19
 1000 1423 1000 1423 1071 1303.5 c 128,-1,20
 1142 1184 1142 1184 1142 1043 c 0,21,22
 1142 937 1142 937 1100 841 c 128,-1,23
 1058 745 1058 745 987 676 c 128,-1,24
 916 607 916 607 819 566 c 128,-1,25
 722 525 722 525 616 525 c 0,26,27
 472 525 472 525 350.5 596 c 128,-1,28
 229 667 229 667 159.5 786 c 128,-1,29
 90 905 90 905 90 1043 c 0,30,31
 90 1149 90 1149 132 1245 c 128,-1,32
 174 1341 174 1341 245 1410 c 128,-1,33
 316 1479 316 1479 413 1520 c 128,-1,34
 510 1561 510 1561 616 1561 c 0,17,18
616 1450 m 128,-1,36
 443 1450 443 1450 322 1330 c 128,-1,37
 201 1210 201 1210 201 1043 c 0,38,39
 201 877 201 877 322 756.5 c 128,-1,40
 443 636 443 636 616 636 c 128,-1,41
 789 636 789 636 910 756.5 c 128,-1,42
 1031 877 1031 877 1031 1043 c 128,-1,43
 1031 1209 1031 1209 910 1329.5 c 128,-1,35
 789 1450 789 1450 616 1450 c 128,-1,36
616 1240 m 2,44,-1
 520 1240 l 1,45,-1
 520 1061 l 1,46,47
 567 1061 567 1061 583 1060.5 c 128,-1,48
 599 1060 599 1060 611 1060 c 0,49,50
 670 1060 670 1060 704 1078.5 c 128,-1,51
 738 1097 738 1097 738 1147 c 0,52,53
 738 1172 738 1172 729.5 1190.5 c 128,-1,54
 721 1209 721 1209 709 1218 c 128,-1,55
 697 1227 697 1227 678.5 1232.5 c 128,-1,56
 660 1238 660 1238 647 1239 c 128,-1,57
 634 1240 634 1240 616 1240 c 2,44,-1
EndSplineSet
EndChar

StartChar: macron
Encoding: 175 175 113
Width: 1400
Flags: W
LayerCount: 2
Fore
SplineSet
285 1640 m 1,0,-1
 1115 1640 l 1,1,-1
 1115 1491 l 1,2,-1
 285 1491 l 1,3,-1
 285 1640 l 1,0,-1
EndSplineSet
EndChar

StartChar: degree
Encoding: 176 176 114
Width: 589
Flags: W
LayerCount: 2
Fore
SplineSet
295 1368 m 0,0,1
 240 1368 240 1368 202.5 1328.5 c 128,-1,2
 165 1289 165 1289 165 1235 c 128,-1,3
 165 1181 165 1181 201.5 1141 c 128,-1,4
 238 1101 238 1101 295 1101 c 0,5,6
 349 1101 349 1101 385.5 1141.5 c 128,-1,7
 422 1182 422 1182 422 1235 c 128,-1,8
 422 1288 422 1288 385.5 1328 c 128,-1,9
 349 1368 349 1368 295 1368 c 0,0,1
294 1459 m 128,-1,11
 384 1459 384 1459 449 1393.5 c 128,-1,12
 514 1328 514 1328 514 1235 c 128,-1,13
 514 1142 514 1142 449.5 1076 c 128,-1,14
 385 1010 385 1010 295 1010 c 128,-1,15
 205 1010 205 1010 140 1075.5 c 128,-1,16
 75 1141 75 1141 75 1235 c 0,17,18
 75 1328 75 1328 139.5 1393.5 c 128,-1,10
 204 1459 204 1459 294 1459 c 128,-1,11
EndSplineSet
EndChar

StartChar: plusminus
Encoding: 177 177 115
Width: 1400
Flags: W
LayerCount: 2
Fore
SplineSet
220 287 m 1,0,-1
 1180 287 l 1,1,-1
 1180 150 l 1,2,-1
 220 150 l 1,3,-1
 220 287 l 1,0,-1
627 1421 m 1,4,-1
 773 1421 l 1,5,-1
 773 1009 l 1,6,-1
 1180 1009 l 1,7,-1
 1180 872 l 1,8,-1
 773 872 l 1,9,-1
 773 461 l 1,10,-1
 627 461 l 1,11,-1
 627 872 l 1,12,-1
 220 872 l 1,13,-1
 220 1009 l 1,14,-1
 627 1009 l 1,15,-1
 627 1421 l 1,4,-1
EndSplineSet
EndChar

StartChar: uni00B2
Encoding: 178 178 116
Width: 800
Flags: W
LayerCount: 2
Fore
SplineSet
370 1524 m 0,0,1
 475 1524 475 1524 545.5 1468.5 c 128,-1,2
 616 1413 616 1413 616 1325 c 0,3,4
 616 1282 616 1282 597.5 1242 c 128,-1,5
 579 1202 579 1202 550 1172.5 c 128,-1,6
 521 1143 521 1143 483.5 1107.5 c 128,-1,7
 446 1072 446 1072 410.5 1040 c 128,-1,8
 375 1008 375 1008 340.5 961 c 128,-1,9
 306 914 306 914 286 863 c 1,10,-1
 629 863 l 1,11,-1
 629 758 l 1,12,-1
 147 758 l 1,13,-1
 147 823 l 1,14,15
 169 892 169 892 205 954 c 128,-1,16
 241 1016 241 1016 279 1058 c 128,-1,17
 317 1100 317 1100 357 1138.5 c 128,-1,18
 397 1177 397 1177 427.5 1204 c 128,-1,19
 458 1231 458 1231 478 1259 c 128,-1,20
 498 1287 498 1287 498 1311 c 0,21,22
 498 1354 498 1354 456 1387.5 c 128,-1,23
 414 1421 414 1421 354 1421 c 0,24,25
 296 1421 296 1421 167 1370 c 1,26,-1
 130 1461 l 1,27,28
 256 1524 256 1524 370 1524 c 0,0,1
EndSplineSet
EndChar

StartChar: uni00B3
Encoding: 179 179 117
Width: 800
Flags: W
LayerCount: 2
Fore
SplineSet
139 1462 m 1,0,1
 262 1521 262 1521 359 1521 c 0,2,3
 457 1521 457 1521 522.5 1469 c 128,-1,4
 588 1417 588 1417 588 1338 c 0,5,6
 588 1288 588 1288 565 1246 c 128,-1,7
 542 1204 542 1204 503 1179 c 1,8,9
 619 1132 619 1132 619 1005 c 0,10,11
 619 891 619 891 536 820.5 c 128,-1,12
 453 750 453 750 327 750 c 0,13,14
 232 750 232 750 125 794 c 1,15,-1
 158 890 l 1,16,17
 270 859 270 859 330 859 c 0,18,19
 402 859 402 859 452.5 895.5 c 128,-1,20
 503 932 503 932 503 988 c 0,21,22
 503 1029 503 1029 482 1056 c 128,-1,23
 461 1083 461 1083 423 1094.5 c 128,-1,24
 385 1106 385 1106 352.5 1110 c 128,-1,25
 320 1114 320 1114 277 1114 c 1,26,-1
 277 1217 l 1,27,28
 388 1217 388 1217 430.5 1249 c 128,-1,29
 473 1281 473 1281 473 1324 c 0,30,31
 473 1361 473 1361 439.5 1387.5 c 128,-1,32
 406 1414 406 1414 348 1414 c 0,33,34
 278 1414 278 1414 178 1368 c 1,35,-1
 139 1462 l 1,0,1
EndSplineSet
EndChar

StartChar: acute
Encoding: 180 180 118
Width: 1122
Flags: W
LayerCount: 2
Fore
SplineSet
778 1585 m 1,0,-1
 848 1462 l 1,1,-1
 336 1167 l 1,2,-1
 274 1275 l 1,3,-1
 778 1585 l 1,0,-1
EndSplineSet
EndChar

StartChar: uni00B5
Encoding: 181 181 119
Width: 1187
Flags: W
LayerCount: 2
Fore
SplineSet
190 988 m 1,0,-1
 354 988 l 1,1,-1
 354 430 l 2,2,3
 354 401 354 401 356 375.5 c 128,-1,4
 358 350 358 350 365 310 c 128,-1,5
 372 270 372 270 388.5 238 c 128,-1,6
 405 206 405 206 430.5 176 c 128,-1,7
 456 146 456 146 499 129 c 128,-1,8
 542 112 542 112 597 112 c 0,9,10
 686 112 686 112 843 189 c 1,11,-1
 843 988 l 1,12,-1
 1007 988 l 1,13,-1
 1007 0 l 1,14,-1
 892 0 l 1,15,-1
 863 67 l 1,16,17
 716 -27 716 -27 570 -27 c 0,18,19
 444 -27 444 -27 354 53 c 1,20,-1
 354 -410 l 1,21,-1
 190 -410 l 1,22,-1
 190 988 l 1,0,-1
EndSplineSet
EndChar

StartChar: paragraph
Encoding: 182 182 120
Width: 1338
Flags: W
LayerCount: 2
Fore
SplineSet
601 1511 m 2,0,-1
 1148 1511 l 1,1,-1
 1148 0 l 1,2,-1
 978 0 l 1,3,-1
 978 1361 l 1,4,-1
 738 1361 l 1,5,-1
 738 0 l 1,6,-1
 567 0 l 1,7,-1
 567 686 l 1,8,9
 534 686 534 686 499.5 690 c 128,-1,10
 465 694 465 694 421 706.5 c 128,-1,11
 377 719 377 719 337.5 739 c 128,-1,12
 298 759 298 759 259.5 794 c 128,-1,13
 221 829 221 829 193 874 c 128,-1,14
 165 919 165 919 147.5 986 c 128,-1,15
 130 1053 130 1053 130 1133 c 0,16,17
 130 1194 130 1194 142 1244.5 c 128,-1,18
 154 1295 154 1295 172.5 1331.5 c 128,-1,19
 191 1368 191 1368 221 1397 c 128,-1,20
 251 1426 251 1426 279 1444.5 c 128,-1,21
 307 1463 307 1463 346.5 1476.5 c 128,-1,22
 386 1490 386 1490 415 1496.5 c 128,-1,23
 444 1503 444 1503 484.5 1506.5 c 128,-1,24
 525 1510 525 1510 547 1510.5 c 128,-1,25
 569 1511 569 1511 601 1511 c 2,0,-1
EndSplineSet
EndChar

StartChar: periodcentered
Encoding: 183 183 121
Width: 590
Flags: W
LayerCount: 2
Fore
SplineSet
190 838 m 1,0,-1
 400 838 l 1,1,-1
 400 628 l 1,2,-1
 190 628 l 1,3,-1
 190 838 l 1,0,-1
EndSplineSet
EndChar

StartChar: cedilla
Encoding: 184 184 122
Width: 1101
Flags: W
LayerCount: 2
Fore
SplineSet
718 -325 m 0,0,1
 718 -310 718 -310 714 -297.5 c 128,-1,2
 710 -285 710 -285 697.5 -275 c 128,-1,3
 685 -265 685 -265 674.5 -258 c 128,-1,4
 664 -251 664 -251 639.5 -242 c 128,-1,5
 615 -233 615 -233 599 -228 c 128,-1,6
 583 -223 583 -223 546.5 -212.5 c 128,-1,7
 510 -202 510 -202 489 -195 c 1,8,-1
 547 22 l 1,9,-1
 674 22 l 1,10,-1
 634 -135 l 1,11,12
 636 -136 636 -136 650 -140 c 128,-1,13
 664 -144 664 -144 671 -146 c 128,-1,14
 678 -148 678 -148 694 -154 c 128,-1,15
 710 -160 710 -160 719 -165 c 128,-1,16
 728 -170 728 -170 743 -178.5 c 128,-1,17
 758 -187 758 -187 767 -196 c 128,-1,18
 776 -205 776 -205 786.5 -218 c 128,-1,19
 797 -231 797 -231 803.5 -244.5 c 128,-1,20
 810 -258 810 -258 814 -276 c 128,-1,21
 818 -294 818 -294 818 -314 c 0,22,23
 818 -385 818 -385 763 -441 c 128,-1,24
 708 -497 708 -497 614 -497 c 0,25,26
 593 -497 593 -497 568.5 -493.5 c 128,-1,27
 544 -490 544 -490 516 -483 c 128,-1,28
 488 -476 488 -476 470 -471 c 128,-1,29
 452 -466 452 -466 422 -457 c 128,-1,30
 392 -448 392 -448 386 -446 c 1,31,-1
 412 -355 l 1,32,33
 569 -402 569 -402 618 -402 c 0,34,35
 664 -402 664 -402 691 -379.5 c 128,-1,36
 718 -357 718 -357 718 -325 c 0,0,1
EndSplineSet
EndChar

StartChar: uni00B9
Encoding: 185 185 123
Width: 543
Flags: W
LayerCount: 2
Fore
SplineSet
251 1511 m 1,0,-1
 343 1511 l 1,1,-1
 343 760 l 1,2,-1
 230 760 l 1,3,-1
 230 1403 l 1,4,-1
 85 1362 l 1,5,-1
 60 1459 l 1,6,-1
 251 1511 l 1,0,-1
EndSplineSet
EndChar

StartChar: ordmasculine
Encoding: 186 186 124
Width: 762
Flags: W
LayerCount: 2
Fore
SplineSet
380 1416 m 0,0,1
 343 1416 343 1416 310 1403.5 c 128,-1,2
 277 1391 277 1391 247 1362.5 c 128,-1,3
 217 1334 217 1334 199 1279.5 c 128,-1,4
 181 1225 181 1225 181 1149 c 0,5,6
 181 1077 181 1077 194.5 1022 c 128,-1,7
 208 967 208 967 228.5 935.5 c 128,-1,8
 249 904 249 904 277 884.5 c 128,-1,9
 305 865 305 865 330 858.5 c 128,-1,10
 355 852 355 852 382 852 c 0,11,12
 418 852 418 852 449.5 864.5 c 128,-1,13
 481 877 481 877 512.5 906.5 c 128,-1,14
 544 936 544 936 562.5 996.5 c 128,-1,15
 581 1057 581 1057 581 1142 c 0,16,17
 581 1209 581 1209 568 1259.5 c 128,-1,18
 555 1310 555 1310 534.5 1339 c 128,-1,19
 514 1368 514 1368 486 1386 c 128,-1,20
 458 1404 458 1404 433 1410 c 128,-1,21
 408 1416 408 1416 380 1416 c 0,0,1
382 1519 m 0,22,23
 422 1519 422 1519 459.5 1511.5 c 128,-1,24
 497 1504 497 1504 541.5 1479.5 c 128,-1,25
 586 1455 586 1455 618.5 1416 c 128,-1,26
 651 1377 651 1377 673 1307 c 128,-1,27
 695 1237 695 1237 695 1145 c 0,28,29
 695 963 695 963 605.5 857.5 c 128,-1,30
 516 752 516 752 380 752 c 0,31,32
 317 752 317 752 263.5 771.5 c 128,-1,33
 210 791 210 791 164.5 834.5 c 128,-1,34
 119 878 119 878 93 957.5 c 128,-1,35
 67 1037 67 1037 67 1146 c 0,36,37
 67 1237 67 1237 94 1310 c 128,-1,38
 121 1383 121 1383 166 1427.5 c 128,-1,39
 211 1472 211 1472 266.5 1495.5 c 128,-1,40
 322 1519 322 1519 382 1519 c 0,22,23
EndSplineSet
EndChar

StartChar: guillemotright
Encoding: 187 187 125
Width: 936
Flags: W
LayerCount: 2
Fore
SplineSet
236 988 m 1,0,-1
 490 623 l 1,1,-1
 235 258 l 1,2,-1
 50 258 l 1,3,-1
 324 623 l 1,4,-1
 50 988 l 1,5,-1
 236 988 l 1,0,-1
607 988 m 1,6,-1
 861 623 l 1,7,-1
 606 258 l 1,8,-1
 421 258 l 1,9,-1
 695 623 l 1,10,-1
 421 988 l 1,11,-1
 607 988 l 1,6,-1
EndSplineSet
EndChar

StartChar: onequarter
Encoding: 188 188 126
Width: 1800
Flags: W
LayerCount: 2
Fore
SplineSet
1180 1421 m 1,0,-1
 1355 1421 l 1,1,-1
 535 0 l 1,2,-1
 359 0 l 1,3,-1
 1180 1421 l 1,0,-1
341 1421 m 1,4,-1
 453 1421 l 1,5,-1
 453 618 l 1,6,-1
 320 618 l 1,7,-1
 320 1291 l 1,8,-1
 180 1252 l 1,9,-1
 150 1369 l 1,10,-1
 341 1421 l 1,4,-1
1391 836 m 1,11,-1
 1548 836 l 1,12,-1
 1548 305 l 1,13,-1
 1655 305 l 1,14,-1
 1655 195 l 1,15,-1
 1548 195 l 1,16,-1
 1548 0 l 1,17,-1
 1415 0 l 1,18,-1
 1415 195 l 1,19,-1
 1025 195 l 1,20,-1
 1025 284 l 1,21,-1
 1391 836 l 1,11,-1
1415 688 m 1,22,-1
 1174 305 l 1,23,-1
 1415 305 l 1,24,-1
 1415 688 l 1,22,-1
EndSplineSet
EndChar

StartChar: onehalf
Encoding: 189 189 127
Width: 1847
Flags: W
LayerCount: 2
Fore
SplineSet
1180 1421 m 1,0,-1
 1355 1421 l 1,1,-1
 535 0 l 1,2,-1
 359 0 l 1,3,-1
 1180 1421 l 1,0,-1
341 1421 m 1,4,-1
 453 1421 l 1,5,-1
 453 608 l 1,6,-1
 320 608 l 1,7,-1
 320 1291 l 1,8,-1
 180 1252 l 1,9,-1
 150 1369 l 1,10,-1
 341 1421 l 1,4,-1
1402 842 m 0,11,12
 1517 842 1517 842 1595 781.5 c 128,-1,13
 1673 721 1673 721 1673 624 c 0,14,15
 1673 568 1673 568 1645 518 c 128,-1,16
 1617 468 1617 468 1572 426 c 128,-1,17
 1527 384 1527 384 1479.5 342 c 128,-1,18
 1432 300 1432 300 1383.5 241 c 128,-1,19
 1335 182 1335 182 1309 116 c 1,20,-1
 1687 116 l 1,21,-1
 1687 0 l 1,22,-1
 1156 0 l 1,23,-1
 1156 72 l 1,24,25
 1184 162 1184 162 1234.5 240.5 c 128,-1,26
 1285 319 1285 319 1336.5 369.5 c 128,-1,27
 1388 420 1388 420 1435.5 462 c 128,-1,28
 1483 504 1483 504 1513 540.5 c 128,-1,29
 1543 577 1543 577 1543 608 c 0,30,31
 1543 655 1543 655 1497 691.5 c 128,-1,32
 1451 728 1451 728 1384 728 c 0,33,34
 1319 728 1319 728 1180 673 c 1,35,-1
 1138 773 l 1,36,37
 1280 842 1280 842 1402 842 c 0,11,12
EndSplineSet
EndChar

StartChar: threequarters
Encoding: 190 190 128
Width: 1950
Flags: W
LayerCount: 2
Fore
SplineSet
1340 1421 m 1,0,-1
 1515 1421 l 1,1,-1
 695 0 l 1,2,-1
 519 0 l 1,3,-1
 1340 1421 l 1,0,-1
1541 836 m 1,4,-1
 1698 836 l 1,5,-1
 1698 305 l 1,6,-1
 1805 305 l 1,7,-1
 1805 195 l 1,8,-1
 1698 195 l 1,9,-1
 1698 0 l 1,10,-1
 1565 0 l 1,11,-1
 1565 195 l 1,12,-1
 1175 195 l 1,13,-1
 1175 284 l 1,14,-1
 1541 836 l 1,4,-1
1565 688 m 1,15,-1
 1324 305 l 1,16,-1
 1565 305 l 1,17,-1
 1565 688 l 1,15,-1
209 1385 m 1,18,19
 341 1450 341 1450 452 1450 c 0,20,21
 560 1450 560 1450 631.5 1392.5 c 128,-1,22
 703 1335 703 1335 703 1248 c 0,23,24
 703 1193 703 1193 678 1147 c 128,-1,25
 653 1101 653 1101 610 1073 c 1,26,27
 738 1020 738 1020 738 882 c 0,28,29
 738 757 738 757 646.5 679 c 128,-1,30
 555 601 555 601 416 601 c 0,31,32
 316 601 316 601 194 650 c 1,33,-1
 231 756 l 1,34,35
 359 721 359 721 420 721 c 0,36,37
 498 721 498 721 554 760.5 c 128,-1,38
 610 800 610 800 610 862 c 0,39,40
 610 1002 610 1002 361 1002 c 1,41,-1
 361 1115 l 1,42,43
 426 1115 426 1115 471.5 1126.5 c 128,-1,44
 517 1138 517 1138 538.5 1157 c 128,-1,45
 560 1176 560 1176 568.5 1194.5 c 128,-1,46
 577 1213 577 1213 577 1233 c 0,47,48
 577 1273 577 1273 540 1302.5 c 128,-1,49
 503 1332 503 1332 440 1332 c 0,50,51
 361 1332 361 1332 253 1281 c 1,52,-1
 209 1385 l 1,18,19
EndSplineSet
EndChar

StartChar: questiondown
Encoding: 191 191 129
Width: 1047
Flags: W
LayerCount: 2
Fore
SplineSet
354 988 m 1,0,-1
 524 988 l 1,1,2
 524 887 524 887 545 810 c 128,-1,3
 566 733 566 733 599.5 685.5 c 128,-1,4
 633 638 633 638 673.5 599.5 c 128,-1,5
 714 561 714 561 754.5 528.5 c 128,-1,6
 795 496 795 496 828.5 460 c 128,-1,7
 862 424 862 424 883 368.5 c 128,-1,8
 904 313 904 313 904 241 c 0,9,10
 904 136 904 136 836.5 45.5 c 128,-1,11
 769 -45 769 -45 675 -93 c 128,-1,12
 581 -141 581 -141 491 -141 c 0,13,14
 387 -141 387 -141 304 -119 c 128,-1,15
 221 -97 221 -97 128 -53 c 1,16,-1
 180 69 l 1,17,18
 349 0 349 0 465 0 c 0,19,20
 593 0 593 0 666 66.5 c 128,-1,21
 739 133 739 133 739 225 c 0,22,23
 739 268 739 268 726 303 c 128,-1,24
 713 338 713 338 690.5 363.5 c 128,-1,25
 668 389 668 389 639 413 c 128,-1,26
 610 437 610 437 578 463 c 128,-1,27
 546 489 546 489 514.5 518.5 c 128,-1,28
 483 548 483 548 454 591 c 128,-1,29
 425 634 425 634 402.5 687 c 128,-1,30
 380 740 380 740 367 817.5 c 128,-1,31
 354 895 354 895 354 988 c 1,0,-1
339 1421 m 1,32,-1
 539 1421 l 1,33,-1
 539 1220 l 1,34,-1
 339 1220 l 1,35,-1
 339 1421 l 1,32,-1
EndSplineSet
EndChar

StartChar: Agrave
Encoding: 192 192 130
Width: 1383
Flags: W
LayerCount: 2
Fore
SplineSet
635 1421 m 1,0,-1
 828 1421 l 1,1,-1
 1333 0 l 1,2,-1
 1161 0 l 1,3,-1
 1017 413 l 1,4,-1
 431 413 l 1,5,-1
 287 0 l 1,6,-1
 130 0 l 1,7,-1
 635 1421 l 1,0,-1
724 1255 m 1,8,-1
 482 562 l 1,9,-1
 965 562 l 1,10,-1
 724 1255 l 1,8,-1
526 1929 m 1,11,-1
 1030 1619 l 1,12,-1
 968 1511 l 1,13,-1
 456 1806 l 1,14,-1
 526 1929 l 1,11,-1
EndSplineSet
EndChar

StartChar: Aacute
Encoding: 193 193 131
Width: 1383
Flags: W
LayerCount: 2
Fore
SplineSet
635 1421 m 1,0,-1
 828 1421 l 1,1,-1
 1333 0 l 1,2,-1
 1161 0 l 1,3,-1
 1017 413 l 1,4,-1
 431 413 l 1,5,-1
 287 0 l 1,6,-1
 130 0 l 1,7,-1
 635 1421 l 1,0,-1
724 1255 m 1,8,-1
 482 562 l 1,9,-1
 965 562 l 1,10,-1
 724 1255 l 1,8,-1
934 1929 m 1,11,-1
 1004 1806 l 1,12,-1
 492 1511 l 1,13,-1
 430 1619 l 1,14,-1
 934 1929 l 1,11,-1
EndSplineSet
EndChar

StartChar: Acircumflex
Encoding: 194 194 132
Width: 1383
Flags: W
LayerCount: 2
Fore
SplineSet
635 1421 m 1,0,-1
 828 1421 l 1,1,-1
 1333 0 l 1,2,-1
 1161 0 l 1,3,-1
 1017 413 l 1,4,-1
 431 413 l 1,5,-1
 287 0 l 1,6,-1
 130 0 l 1,7,-1
 635 1421 l 1,0,-1
724 1255 m 1,8,-1
 482 562 l 1,9,-1
 965 562 l 1,10,-1
 724 1255 l 1,8,-1
751 1924 m 1,11,-1
 1007 1638 l 1,12,-1
 914 1550 l 1,13,-1
 738 1746 l 1,14,-1
 557 1551 l 1,15,-1
 469 1629 l 1,16,-1
 751 1924 l 1,11,-1
EndSplineSet
EndChar

StartChar: Atilde
Encoding: 195 195 133
Width: 1383
Flags: W
LayerCount: 2
Fore
SplineSet
1008 1878 m 1,0,-1
 1116 1861 l 1,1,2
 1114 1850 1114 1850 1109 1824 c 128,-1,3
 1104 1798 1104 1798 1101.5 1784.5 c 128,-1,4
 1099 1771 1099 1771 1093 1746.5 c 128,-1,5
 1087 1722 1087 1722 1081.5 1708 c 128,-1,6
 1076 1694 1076 1694 1067 1673 c 128,-1,7
 1058 1652 1058 1652 1048.5 1640 c 128,-1,8
 1039 1628 1039 1628 1025 1613.5 c 128,-1,9
 1011 1599 1011 1599 995.5 1591.5 c 128,-1,10
 980 1584 980 1584 959.5 1579 c 128,-1,11
 939 1574 939 1574 915 1574 c 0,12,13
 871 1574 871 1574 829.5 1592.5 c 128,-1,14
 788 1611 788 1611 757.5 1637.5 c 128,-1,15
 727 1664 727 1664 700 1690.5 c 128,-1,16
 673 1717 673 1717 646.5 1735.5 c 128,-1,17
 620 1754 620 1754 597 1754 c 0,18,19
 585 1754 585 1754 574.5 1751 c 128,-1,20
 564 1748 564 1748 556 1740.5 c 128,-1,21
 548 1733 548 1733 541.5 1726 c 128,-1,22
 535 1719 535 1719 529.5 1705.5 c 128,-1,23
 524 1692 524 1692 520.5 1683 c 128,-1,24
 517 1674 517 1674 513 1656.5 c 128,-1,25
 509 1639 509 1639 507 1630 c 128,-1,26
 505 1621 505 1621 501 1601.5 c 128,-1,27
 497 1582 497 1582 496 1574 c 1,28,-1
 388 1589 l 1,29,30
 390 1597 390 1597 396 1629.5 c 128,-1,31
 402 1662 402 1662 405 1674 c 128,-1,32
 408 1686 408 1686 415 1716 c 128,-1,33
 422 1746 422 1746 429 1759 c 128,-1,34
 436 1772 436 1772 447 1795 c 128,-1,35
 458 1818 458 1818 471 1829 c 128,-1,36
 484 1840 484 1840 501.5 1853 c 128,-1,37
 519 1866 519 1866 541.5 1871 c 128,-1,38
 564 1876 564 1876 590 1876 c 0,39,40
 634 1876 634 1876 675.5 1857.5 c 128,-1,41
 717 1839 717 1839 747.5 1812.5 c 128,-1,42
 778 1786 778 1786 805 1759.5 c 128,-1,43
 832 1733 832 1733 858.5 1714.5 c 128,-1,44
 885 1696 885 1696 908 1696 c 0,45,46
 922 1696 922 1696 933.5 1701 c 128,-1,47
 945 1706 945 1706 953 1712.5 c 128,-1,48
 961 1719 961 1719 968.5 1732.5 c 128,-1,49
 976 1746 976 1746 980 1756 c 128,-1,50
 984 1766 984 1766 989 1785 c 128,-1,51
 994 1804 994 1804 996 1814.5 c 128,-1,52
 998 1825 998 1825 1002 1847.5 c 128,-1,53
 1006 1870 1006 1870 1008 1878 c 1,0,-1
724 1255 m 1,54,-1
 482 562 l 1,55,-1
 965 562 l 1,56,-1
 724 1255 l 1,54,-1
635 1421 m 1,57,-1
 828 1421 l 1,58,-1
 1333 0 l 1,59,-1
 1161 0 l 1,60,-1
 1017 413 l 1,61,-1
 431 413 l 1,62,-1
 287 0 l 1,63,-1
 130 0 l 1,64,-1
 635 1421 l 1,57,-1
EndSplineSet
EndChar

StartChar: Adieresis
Encoding: 196 196 134
Width: 1383
Flags: W
LayerCount: 2
Fore
SplineSet
635 1421 m 1,0,-1
 828 1421 l 1,1,-1
 1333 0 l 1,2,-1
 1161 0 l 1,3,-1
 1017 413 l 1,4,-1
 431 413 l 1,5,-1
 287 0 l 1,6,-1
 130 0 l 1,7,-1
 635 1421 l 1,0,-1
724 1255 m 1,8,-1
 482 562 l 1,9,-1
 965 562 l 1,10,-1
 724 1255 l 1,8,-1
416 1897 m 1,11,-1
 601 1897 l 1,12,-1
 601 1712 l 1,13,-1
 416 1712 l 1,14,-1
 416 1897 l 1,11,-1
864 1897 m 1,15,-1
 1049 1897 l 1,16,-1
 1049 1712 l 1,17,-1
 864 1712 l 1,18,-1
 864 1897 l 1,15,-1
EndSplineSet
EndChar

StartChar: Aring
Encoding: 197 197 135
Width: 1383
Flags: W
LayerCount: 2
Fore
SplineSet
733 1873 m 128,-1,1
 841 1873 841 1873 919.5 1798.5 c 128,-1,2
 998 1724 998 1724 998 1618 c 0,3,4
 998 1541 998 1541 954.5 1477.5 c 128,-1,5
 911 1414 911 1414 841 1383 c 1,6,-1
 1333 0 l 1,7,-1
 1161 0 l 1,8,-1
 1017 413 l 1,9,-1
 431 413 l 1,10,-1
 287 0 l 1,11,-1
 130 0 l 1,12,-1
 622 1385 l 1,13,14
 554 1416 554 1416 512 1479 c 128,-1,15
 470 1542 470 1542 470 1618 c 0,16,17
 470 1724 470 1724 547.5 1798.5 c 128,-1,0
 625 1873 625 1873 733 1873 c 128,-1,1
735 1769 m 0,18,19
 668 1769 668 1769 623 1724.5 c 128,-1,20
 578 1680 578 1680 578 1618 c 0,21,22
 578 1557 578 1557 622.5 1511 c 128,-1,23
 667 1465 667 1465 735 1465 c 0,24,25
 800 1465 800 1465 843.5 1511 c 128,-1,26
 887 1557 887 1557 887 1618 c 128,-1,27
 887 1679 887 1679 843.5 1724 c 128,-1,28
 800 1769 800 1769 735 1769 c 0,18,19
724 1255 m 1,29,-1
 482 562 l 1,30,-1
 965 562 l 1,31,-1
 724 1255 l 1,29,-1
EndSplineSet
EndChar

StartChar: AE
Encoding: 198 198 136
Width: 1915
Flags: W
LayerCount: 2
Fore
SplineSet
510 562 m 1,0,-1
 967 562 l 1,1,-1
 967 1271 l 1,2,-1
 784 1271 l 1,3,-1
 510 562 l 1,0,-1
685 1421 m 1,4,-1
 1755 1421 l 1,5,-1
 1755 1271 l 1,6,-1
 1137 1271 l 1,7,-1
 1137 807 l 1,8,-1
 1700 807 l 1,9,-1
 1700 657 l 1,10,-1
 1137 657 l 1,11,-1
 1137 150 l 1,12,-1
 1755 150 l 1,13,-1
 1755 0 l 1,14,-1
 967 0 l 1,15,-1
 967 414 l 1,16,-1
 452 414 l 1,17,-1
 292 0 l 1,18,-1
 130 0 l 1,19,-1
 685 1421 l 1,4,-1
EndSplineSet
EndChar

StartChar: Ccedilla
Encoding: 199 199 137
Width: 1451
Flags: W
LayerCount: 2
Fore
SplineSet
1098 -316 m 0,0,1
 1098 -392 1098 -392 1039 -449 c 128,-1,2
 980 -506 980 -506 886 -506 c 0,3,4
 849 -506 849 -506 811 -498 c 128,-1,5
 773 -490 773 -490 648 -453 c 1,6,-1
 678 -349 l 1,7,8
 842 -399 842 -399 893 -399 c 0,9,10
 936 -399 936 -399 960.5 -378 c 128,-1,11
 985 -357 985 -357 985 -328 c 0,12,13
 985 -287 985 -287 949 -267.5 c 128,-1,14
 913 -248 913 -248 810 -218 c 0,15,16
 771 -207 771 -207 750 -201 c 1,17,-1
 805 -2 l 1,18,19
 559 52 559 52 417 247.5 c 128,-1,20
 275 443 275 443 275 709 c 0,21,22
 275 914 275 914 360.5 1077 c 128,-1,23
 446 1240 446 1240 609 1335.5 c 128,-1,24
 772 1431 772 1431 986 1431 c 0,25,26
 1180 1431 1180 1431 1372 1355 c 1,27,-1
 1320 1214 l 1,28,29
 1126 1281 1126 1281 981 1281 c 0,30,31
 861 1281 861 1281 758.5 1233.5 c 128,-1,32
 656 1186 656 1186 588.5 1106.5 c 128,-1,33
 521 1027 521 1027 483 924.5 c 128,-1,34
 445 822 445 822 445 710 c 0,35,36
 445 594 445 594 485.5 489.5 c 128,-1,37
 526 385 526 385 599 306.5 c 128,-1,38
 672 228 672 228 780.5 182 c 128,-1,39
 889 136 889 136 1018 136 c 0,40,41
 1172 136 1172 136 1339 196 c 1,42,-1
 1391 70 l 1,43,44
 1182 -20 1182 -20 975 -20 c 2,45,-1
 947 -20 l 1,46,-1
 918 -135 l 1,47,-1
 929 -138 l 2,48,49
 940 -141 940 -141 949 -144 c 128,-1,50
 958 -147 958 -147 973.5 -152.5 c 128,-1,51
 989 -158 989 -158 1001.5 -165.5 c 128,-1,52
 1014 -173 1014 -173 1029.5 -183 c 128,-1,53
 1045 -193 1045 -193 1056 -206 c 128,-1,54
 1067 -219 1067 -219 1077 -235 c 128,-1,55
 1087 -251 1087 -251 1092.5 -272 c 128,-1,56
 1098 -293 1098 -293 1098 -316 c 0,0,1
EndSplineSet
EndChar

StartChar: Egrave
Encoding: 200 200 138
Width: 1283
Flags: W
LayerCount: 2
Fore
SplineSet
290 1421 m 1,0,-1
 1123 1421 l 1,1,-1
 1123 1271 l 1,2,-1
 460 1271 l 1,3,-1
 460 807 l 1,4,-1
 1068 807 l 1,5,-1
 1068 657 l 1,6,-1
 460 657 l 1,7,-1
 460 150 l 1,8,-1
 1123 150 l 1,9,-1
 1123 0 l 1,10,-1
 290 0 l 1,11,-1
 290 1421 l 1,0,-1
479 1929 m 1,12,-1
 983 1619 l 1,13,-1
 920 1511 l 1,14,-1
 408 1806 l 1,15,-1
 479 1929 l 1,12,-1
EndSplineSet
EndChar

StartChar: Eacute
Encoding: 201 201 139
Width: 1283
Flags: W
LayerCount: 2
Fore
SplineSet
290 1421 m 1,0,-1
 1123 1421 l 1,1,-1
 1123 1271 l 1,2,-1
 460 1271 l 1,3,-1
 460 807 l 1,4,-1
 1068 807 l 1,5,-1
 1068 657 l 1,6,-1
 460 657 l 1,7,-1
 460 150 l 1,8,-1
 1123 150 l 1,9,-1
 1123 0 l 1,10,-1
 290 0 l 1,11,-1
 290 1421 l 1,0,-1
952 1929 m 1,12,-1
 1022 1806 l 1,13,-1
 510 1511 l 1,14,-1
 448 1619 l 1,15,-1
 952 1929 l 1,12,-1
EndSplineSet
EndChar

StartChar: Ecircumflex
Encoding: 202 202 140
Width: 1283
Flags: W
LayerCount: 2
Fore
SplineSet
290 1421 m 1,0,-1
 1123 1421 l 1,1,-1
 1123 1271 l 1,2,-1
 460 1271 l 1,3,-1
 460 807 l 1,4,-1
 1068 807 l 1,5,-1
 1068 657 l 1,6,-1
 460 657 l 1,7,-1
 460 150 l 1,8,-1
 1123 150 l 1,9,-1
 1123 0 l 1,10,-1
 290 0 l 1,11,-1
 290 1421 l 1,0,-1
720 1932 m 1,12,-1
 976 1646 l 1,13,-1
 882 1558 l 1,14,-1
 707 1754 l 1,15,-1
 526 1559 l 1,16,-1
 438 1637 l 1,17,-1
 720 1932 l 1,12,-1
EndSplineSet
EndChar

StartChar: Edieresis
Encoding: 203 203 141
Width: 1283
Flags: W
LayerCount: 2
Fore
SplineSet
290 1421 m 1,0,-1
 1123 1421 l 1,1,-1
 1123 1271 l 1,2,-1
 460 1271 l 1,3,-1
 460 807 l 1,4,-1
 1068 807 l 1,5,-1
 1068 657 l 1,6,-1
 460 657 l 1,7,-1
 460 150 l 1,8,-1
 1123 150 l 1,9,-1
 1123 0 l 1,10,-1
 290 0 l 1,11,-1
 290 1421 l 1,0,-1
390 1898 m 1,12,-1
 575 1898 l 1,13,-1
 575 1713 l 1,14,-1
 390 1713 l 1,15,-1
 390 1898 l 1,12,-1
838 1898 m 1,16,-1
 1023 1898 l 1,17,-1
 1023 1713 l 1,18,-1
 838 1713 l 1,19,-1
 838 1898 l 1,16,-1
EndSplineSet
EndChar

StartChar: Igrave
Encoding: 204 204 142
Width: 730
Flags: W
LayerCount: 2
Fore
SplineSet
320 1421 m 1,0,-1
 490 1421 l 1,1,-1
 490 0 l 1,2,-1
 320 0 l 1,3,-1
 320 1421 l 1,0,-1
207 1927 m 1,4,-1
 711 1617 l 1,5,-1
 648 1511 l 1,6,-1
 136 1804 l 1,7,-1
 207 1927 l 1,4,-1
EndSplineSet
EndChar

StartChar: Iacute
Encoding: 205 205 143
Width: 730
Flags: W
LayerCount: 2
Fore
SplineSet
320 1421 m 1,0,-1
 490 1421 l 1,1,-1
 490 0 l 1,2,-1
 320 0 l 1,3,-1
 320 1421 l 1,0,-1
555 1930 m 1,4,-1
 625 1807 l 1,5,-1
 113 1511 l 1,6,-1
 51 1620 l 1,7,-1
 555 1930 l 1,4,-1
EndSplineSet
EndChar

StartChar: Icircumflex
Encoding: 206 206 144
Width: 730
Flags: W
LayerCount: 2
Fore
SplineSet
320 1421 m 1,0,-1
 490 1421 l 1,1,-1
 490 0 l 1,2,-1
 320 0 l 1,3,-1
 320 1421 l 1,0,-1
392 1924 m 1,4,-1
 648 1638 l 1,5,-1
 554 1550 l 1,6,-1
 379 1746 l 1,7,-1
 198 1551 l 1,8,-1
 110 1629 l 1,9,-1
 392 1924 l 1,4,-1
EndSplineSet
EndChar

StartChar: Idieresis
Encoding: 207 207 145
Width: 670
Flags: W
LayerCount: 2
Fore
SplineSet
290 1421 m 1,0,-1
 460 1421 l 1,1,-1
 460 0 l 1,2,-1
 290 0 l 1,3,-1
 290 1421 l 1,0,-1
88 1824 m 1,4,-1
 273 1824 l 1,5,-1
 273 1639 l 1,6,-1
 88 1639 l 1,7,-1
 88 1824 l 1,4,-1
477 1824 m 1,8,-1
 662 1824 l 1,9,-1
 662 1639 l 1,10,-1
 477 1639 l 1,11,-1
 477 1824 l 1,8,-1
EndSplineSet
EndChar

StartChar: Eth
Encoding: 208 208 146
Width: 1605
Flags: W
LayerCount: 2
Fore
SplineSet
335 1421 m 1,0,-1
 770 1421 l 2,1,2
 807 1421 807 1421 841 1419.5 c 128,-1,3
 875 1418 875 1418 931 1410.5 c 128,-1,4
 987 1403 987 1403 1035 1390.5 c 128,-1,5
 1083 1378 1083 1378 1142 1353.5 c 128,-1,6
 1201 1329 1201 1329 1248.5 1296 c 128,-1,7
 1296 1263 1296 1263 1342.5 1211.5 c 128,-1,8
 1389 1160 1389 1160 1420.5 1096.5 c 128,-1,9
 1452 1033 1452 1033 1471.5 945 c 128,-1,10
 1491 857 1491 857 1491 754 c 0,11,12
 1491 637 1491 637 1471.5 538.5 c 128,-1,13
 1452 440 1452 440 1420 368 c 128,-1,14
 1388 296 1388 296 1340 238 c 128,-1,15
 1292 180 1292 180 1243 142.5 c 128,-1,16
 1194 105 1194 105 1131.5 77 c 128,-1,17
 1069 49 1069 49 1017 35 c 128,-1,18
 965 21 965 21 901.5 12.5 c 128,-1,19
 838 4 838 4 796.5 2 c 128,-1,20
 755 0 755 0 706 0 c 2,21,-1
 335 0 l 1,22,-1
 335 658 l 1,23,-1
 117 658 l 1,24,-1
 117 808 l 1,25,-1
 335 808 l 1,26,-1
 335 1421 l 1,0,-1
505 1271 m 1,27,-1
 505 808 l 1,28,-1
 761 808 l 1,29,-1
 761 658 l 1,30,-1
 505 658 l 1,31,-1
 505 150 l 1,32,-1
 712 150 l 2,33,34
 757 150 757 150 794.5 152 c 128,-1,35
 832 154 832 154 882 161 c 128,-1,36
 932 168 932 168 973 179.5 c 128,-1,37
 1014 191 1014 191 1060.5 212.5 c 128,-1,38
 1107 234 1107 234 1143 263 c 128,-1,39
 1179 292 1179 292 1213.5 335.5 c 128,-1,40
 1248 379 1248 379 1270.5 433 c 128,-1,41
 1293 487 1293 487 1306.5 560.5 c 128,-1,42
 1320 634 1320 634 1320 720 c 0,43,44
 1320 797 1320 797 1306 868.5 c 128,-1,45
 1292 940 1292 940 1254 1015 c 128,-1,46
 1216 1090 1216 1090 1157.5 1145.5 c 128,-1,47
 1099 1201 1099 1201 1002 1236 c 128,-1,48
 905 1271 905 1271 781 1271 c 2,49,-1
 505 1271 l 1,27,-1
EndSplineSet
EndChar

StartChar: Ntilde
Encoding: 209 209 147
Width: 1659
Flags: W
LayerCount: 2
Fore
SplineSet
733 1876 m 0,0,1
 777 1876 777 1876 818.5 1857.5 c 128,-1,2
 860 1839 860 1839 890.5 1812.5 c 128,-1,3
 921 1786 921 1786 948 1759.5 c 128,-1,4
 975 1733 975 1733 1001.5 1714.5 c 128,-1,5
 1028 1696 1028 1696 1051 1696 c 0,6,7
 1063 1696 1063 1696 1073.5 1699 c 128,-1,8
 1084 1702 1084 1702 1092 1709.5 c 128,-1,9
 1100 1717 1100 1717 1106.5 1724.5 c 128,-1,10
 1113 1732 1113 1732 1118.5 1745.5 c 128,-1,11
 1124 1759 1124 1759 1128 1768 c 128,-1,12
 1132 1777 1132 1777 1135.5 1794.5 c 128,-1,13
 1139 1812 1139 1812 1141 1821.5 c 128,-1,14
 1143 1831 1143 1831 1146.5 1850.5 c 128,-1,15
 1150 1870 1150 1870 1152 1878 c 1,16,-1
 1260 1861 l 1,17,18
 1258 1853 1258 1853 1252 1820.5 c 128,-1,19
 1246 1788 1246 1788 1243 1776 c 128,-1,20
 1240 1764 1240 1764 1233 1734 c 128,-1,21
 1226 1704 1226 1704 1219 1691 c 128,-1,22
 1212 1678 1212 1678 1201 1655 c 128,-1,23
 1190 1632 1190 1632 1177 1621 c 128,-1,24
 1164 1610 1164 1610 1146.5 1597 c 128,-1,25
 1129 1584 1129 1584 1106.5 1579 c 128,-1,26
 1084 1574 1084 1574 1058 1574 c 0,27,28
 1014 1574 1014 1574 972.5 1592.5 c 128,-1,29
 931 1611 931 1611 900.5 1637.5 c 128,-1,30
 870 1664 870 1664 843 1690.5 c 128,-1,31
 816 1717 816 1717 789.5 1735.5 c 128,-1,32
 763 1754 763 1754 740 1754 c 0,33,34
 726 1754 726 1754 714.5 1749 c 128,-1,35
 703 1744 703 1744 695 1737.5 c 128,-1,36
 687 1731 687 1731 679.5 1717.5 c 128,-1,37
 672 1704 672 1704 668 1694 c 128,-1,38
 664 1684 664 1684 659 1665 c 128,-1,39
 654 1646 654 1646 652 1635.5 c 128,-1,40
 650 1625 650 1625 646 1602.5 c 128,-1,41
 642 1580 642 1580 640 1572 c 1,42,-1
 532 1589 l 1,43,44
 534 1600 534 1600 539 1626 c 128,-1,45
 544 1652 544 1652 546.5 1665.5 c 128,-1,46
 549 1679 549 1679 555 1703.5 c 128,-1,47
 561 1728 561 1728 566.5 1742 c 128,-1,48
 572 1756 572 1756 581 1777 c 128,-1,49
 590 1798 590 1798 599.5 1810 c 128,-1,50
 609 1822 609 1822 623 1836.5 c 128,-1,51
 637 1851 637 1851 652.5 1858.5 c 128,-1,52
 668 1866 668 1866 688.5 1871 c 128,-1,53
 709 1876 709 1876 733 1876 c 0,0,1
290 1421 m 1,54,-1
 505 1421 l 1,55,-1
 1279 232 l 1,56,-1
 1279 1421 l 1,57,-1
 1449 1421 l 1,58,-1
 1449 0 l 1,59,-1
 1234 0 l 1,60,-1
 460 1191 l 1,61,-1
 460 0 l 1,62,-1
 290 0 l 1,63,-1
 290 1421 l 1,54,-1
EndSplineSet
EndChar

StartChar: Ograve
Encoding: 210 210 148
Width: 1686
Flags: W
LayerCount: 2
Fore
SplineSet
884 1436 m 0,0,1
 1025 1436 1025 1436 1147.5 1386.5 c 128,-1,2
 1270 1337 1270 1337 1359.5 1247 c 128,-1,3
 1449 1157 1449 1157 1500 1022.5 c 128,-1,4
 1551 888 1551 888 1551 727 c 0,5,6
 1551 509 1551 509 1464.5 339.5 c 128,-1,7
 1378 170 1378 170 1224.5 77.5 c 128,-1,8
 1071 -15 1071 -15 877 -15 c 0,9,10
 749 -15 749 -15 632 30.5 c 128,-1,11
 515 76 515 76 421 163 c 128,-1,12
 327 250 327 250 271 390.5 c 128,-1,13
 215 531 215 531 215 707 c 0,14,15
 215 872 215 872 266 1009 c 128,-1,16
 317 1146 317 1146 406 1239.5 c 128,-1,17
 495 1333 495 1333 618 1384.5 c 128,-1,18
 741 1436 741 1436 884 1436 c 0,0,1
1376 709 m 0,19,20
 1376 827 1376 827 1346 924.5 c 128,-1,21
 1316 1022 1316 1022 1266.5 1088 c 128,-1,22
 1217 1154 1217 1154 1151.5 1200 c 128,-1,23
 1086 1246 1086 1246 1015.5 1266.5 c 128,-1,24
 945 1287 945 1287 872 1287 c 0,25,26
 802 1287 802 1287 734.5 1266.5 c 128,-1,27
 667 1246 667 1246 604 1201.5 c 128,-1,28
 541 1157 541 1157 494 1093 c 128,-1,29
 447 1029 447 1029 418.5 935 c 128,-1,30
 390 841 390 841 390 728 c 0,31,32
 390 595 390 595 429 482.5 c 128,-1,33
 468 370 468 370 535 294 c 128,-1,34
 602 218 602 218 693.5 176 c 128,-1,35
 785 134 785 134 890 134 c 0,36,37
 961 134 961 134 1029.5 155 c 128,-1,38
 1098 176 1098 176 1161 221.5 c 128,-1,39
 1224 267 1224 267 1271.5 333 c 128,-1,40
 1319 399 1319 399 1347.5 496 c 128,-1,41
 1376 593 1376 593 1376 709 c 0,19,20
737 1932 m 1,42,-1
 1241 1622 l 1,43,-1
 1178 1514 l 1,44,-1
 666 1809 l 1,45,-1
 737 1932 l 1,42,-1
EndSplineSet
EndChar

StartChar: Oacute
Encoding: 211 211 149
Width: 1686
Flags: W
LayerCount: 2
Fore
SplineSet
884 1436 m 0,0,1
 1025 1436 1025 1436 1147.5 1386.5 c 128,-1,2
 1270 1337 1270 1337 1359.5 1247 c 128,-1,3
 1449 1157 1449 1157 1500 1022.5 c 128,-1,4
 1551 888 1551 888 1551 727 c 0,5,6
 1551 509 1551 509 1464.5 339.5 c 128,-1,7
 1378 170 1378 170 1224.5 77.5 c 128,-1,8
 1071 -15 1071 -15 877 -15 c 0,9,10
 749 -15 749 -15 632 30.5 c 128,-1,11
 515 76 515 76 421 163 c 128,-1,12
 327 250 327 250 271 390.5 c 128,-1,13
 215 531 215 531 215 707 c 0,14,15
 215 872 215 872 266 1009 c 128,-1,16
 317 1146 317 1146 406 1239.5 c 128,-1,17
 495 1333 495 1333 618 1384.5 c 128,-1,18
 741 1436 741 1436 884 1436 c 0,0,1
1376 709 m 0,19,20
 1376 827 1376 827 1346 924.5 c 128,-1,21
 1316 1022 1316 1022 1266.5 1088 c 128,-1,22
 1217 1154 1217 1154 1151.5 1200 c 128,-1,23
 1086 1246 1086 1246 1015.5 1266.5 c 128,-1,24
 945 1287 945 1287 872 1287 c 0,25,26
 802 1287 802 1287 734.5 1266.5 c 128,-1,27
 667 1246 667 1246 604 1201.5 c 128,-1,28
 541 1157 541 1157 494 1093 c 128,-1,29
 447 1029 447 1029 418.5 935 c 128,-1,30
 390 841 390 841 390 728 c 0,31,32
 390 595 390 595 429 482.5 c 128,-1,33
 468 370 468 370 535 294 c 128,-1,34
 602 218 602 218 693.5 176 c 128,-1,35
 785 134 785 134 890 134 c 0,36,37
 961 134 961 134 1029.5 155 c 128,-1,38
 1098 176 1098 176 1161 221.5 c 128,-1,39
 1224 267 1224 267 1271.5 333 c 128,-1,40
 1319 399 1319 399 1347.5 496 c 128,-1,41
 1376 593 1376 593 1376 709 c 0,19,20
1107 1930 m 1,42,-1
 1177 1807 l 1,43,-1
 665 1511 l 1,44,-1
 603 1620 l 1,45,-1
 1107 1930 l 1,42,-1
EndSplineSet
EndChar

StartChar: Ocircumflex
Encoding: 212 212 150
Width: 1686
Flags: W
LayerCount: 2
Fore
SplineSet
884 1436 m 0,0,1
 1025 1436 1025 1436 1147.5 1386.5 c 128,-1,2
 1270 1337 1270 1337 1359.5 1247 c 128,-1,3
 1449 1157 1449 1157 1500 1022.5 c 128,-1,4
 1551 888 1551 888 1551 727 c 0,5,6
 1551 509 1551 509 1464.5 339.5 c 128,-1,7
 1378 170 1378 170 1224.5 77.5 c 128,-1,8
 1071 -15 1071 -15 877 -15 c 0,9,10
 749 -15 749 -15 632 30.5 c 128,-1,11
 515 76 515 76 421 163 c 128,-1,12
 327 250 327 250 271 390.5 c 128,-1,13
 215 531 215 531 215 707 c 0,14,15
 215 872 215 872 266 1009 c 128,-1,16
 317 1146 317 1146 406 1239.5 c 128,-1,17
 495 1333 495 1333 618 1384.5 c 128,-1,18
 741 1436 741 1436 884 1436 c 0,0,1
1376 709 m 0,19,20
 1376 827 1376 827 1346 924.5 c 128,-1,21
 1316 1022 1316 1022 1266.5 1088 c 128,-1,22
 1217 1154 1217 1154 1151.5 1200 c 128,-1,23
 1086 1246 1086 1246 1015.5 1266.5 c 128,-1,24
 945 1287 945 1287 872 1287 c 0,25,26
 802 1287 802 1287 734.5 1266.5 c 128,-1,27
 667 1246 667 1246 604 1201.5 c 128,-1,28
 541 1157 541 1157 494 1093 c 128,-1,29
 447 1029 447 1029 418.5 935 c 128,-1,30
 390 841 390 841 390 728 c 0,31,32
 390 595 390 595 429 482.5 c 128,-1,33
 468 370 468 370 535 294 c 128,-1,34
 602 218 602 218 693.5 176 c 128,-1,35
 785 134 785 134 890 134 c 0,36,37
 961 134 961 134 1029.5 155 c 128,-1,38
 1098 176 1098 176 1161 221.5 c 128,-1,39
 1224 267 1224 267 1271.5 333 c 128,-1,40
 1319 399 1319 399 1347.5 496 c 128,-1,41
 1376 593 1376 593 1376 709 c 0,19,20
912 1924 m 1,42,-1
 1168 1638 l 1,43,-1
 1075 1550 l 1,44,-1
 899 1746 l 1,45,-1
 718 1551 l 1,46,-1
 630 1629 l 1,47,-1
 912 1924 l 1,42,-1
EndSplineSet
EndChar

StartChar: Otilde
Encoding: 213 213 151
Width: 1686
Flags: W
LayerCount: 2
Fore
SplineSet
1169 1878 m 1,0,-1
 1277 1861 l 1,1,2
 1275 1853 1275 1853 1269 1820.5 c 128,-1,3
 1263 1788 1263 1788 1260 1776 c 128,-1,4
 1257 1764 1257 1764 1250 1734 c 128,-1,5
 1243 1704 1243 1704 1236 1691 c 128,-1,6
 1229 1678 1229 1678 1218 1655 c 128,-1,7
 1207 1632 1207 1632 1194 1621 c 128,-1,8
 1181 1610 1181 1610 1163.5 1597 c 128,-1,9
 1146 1584 1146 1584 1123.5 1579 c 128,-1,10
 1101 1574 1101 1574 1075 1574 c 0,11,12
 1031 1574 1031 1574 989.5 1592.5 c 128,-1,13
 948 1611 948 1611 917.5 1637.5 c 128,-1,14
 887 1664 887 1664 860 1690.5 c 128,-1,15
 833 1717 833 1717 806.5 1735.5 c 128,-1,16
 780 1754 780 1754 757 1754 c 0,17,18
 743 1754 743 1754 731.5 1749 c 128,-1,19
 720 1744 720 1744 712 1737.5 c 128,-1,20
 704 1731 704 1731 696.5 1717.5 c 128,-1,21
 689 1704 689 1704 685 1694 c 128,-1,22
 681 1684 681 1684 676 1665 c 128,-1,23
 671 1646 671 1646 669 1635.5 c 128,-1,24
 667 1625 667 1625 663 1602.5 c 128,-1,25
 659 1580 659 1580 657 1572 c 1,26,-1
 549 1589 l 1,27,28
 551 1597 551 1597 557 1629.5 c 128,-1,29
 563 1662 563 1662 566 1674 c 128,-1,30
 569 1686 569 1686 576 1716 c 128,-1,31
 583 1746 583 1746 590 1759 c 128,-1,32
 597 1772 597 1772 608 1795 c 128,-1,33
 619 1818 619 1818 632 1829 c 128,-1,34
 645 1840 645 1840 662.5 1853 c 128,-1,35
 680 1866 680 1866 702.5 1871 c 128,-1,36
 725 1876 725 1876 751 1876 c 0,37,38
 795 1876 795 1876 836.5 1857.5 c 128,-1,39
 878 1839 878 1839 908.5 1812.5 c 128,-1,40
 939 1786 939 1786 966 1759.5 c 128,-1,41
 993 1733 993 1733 1019.5 1714.5 c 128,-1,42
 1046 1696 1046 1696 1069 1696 c 0,43,44
 1083 1696 1083 1696 1094.5 1701 c 128,-1,45
 1106 1706 1106 1706 1114 1712.5 c 128,-1,46
 1122 1719 1122 1719 1129.5 1732.5 c 128,-1,47
 1137 1746 1137 1746 1141 1756 c 128,-1,48
 1145 1766 1145 1766 1150 1785 c 128,-1,49
 1155 1804 1155 1804 1157 1814.5 c 128,-1,50
 1159 1825 1159 1825 1163 1847.5 c 128,-1,51
 1167 1870 1167 1870 1169 1878 c 1,0,-1
1376 709 m 0,52,53
 1376 826 1376 826 1346.5 923.5 c 128,-1,54
 1317 1021 1317 1021 1268 1087.5 c 128,-1,55
 1219 1154 1219 1154 1153 1199.5 c 128,-1,56
 1087 1245 1087 1245 1016.5 1266 c 128,-1,57
 946 1287 946 1287 872 1287 c 0,58,59
 802 1287 802 1287 734.5 1266.5 c 128,-1,60
 667 1246 667 1246 604 1201.5 c 128,-1,61
 541 1157 541 1157 494 1093 c 128,-1,62
 447 1029 447 1029 418.5 935 c 128,-1,63
 390 841 390 841 390 728 c 0,64,65
 390 595 390 595 429 482.5 c 128,-1,66
 468 370 468 370 535 294 c 128,-1,67
 602 218 602 218 693.5 176 c 128,-1,68
 785 134 785 134 890 134 c 0,69,70
 961 134 961 134 1029.5 155 c 128,-1,71
 1098 176 1098 176 1161 221.5 c 128,-1,72
 1224 267 1224 267 1271.5 333 c 128,-1,73
 1319 399 1319 399 1347.5 496 c 128,-1,74
 1376 593 1376 593 1376 709 c 0,52,53
884 1436 m 0,75,76
 1025 1436 1025 1436 1147.5 1386.5 c 128,-1,77
 1270 1337 1270 1337 1359.5 1247 c 128,-1,78
 1449 1157 1449 1157 1500 1022.5 c 128,-1,79
 1551 888 1551 888 1551 727 c 0,80,81
 1551 509 1551 509 1464.5 339.5 c 128,-1,82
 1378 170 1378 170 1224.5 77.5 c 128,-1,83
 1071 -15 1071 -15 877 -15 c 0,84,85
 749 -15 749 -15 632 30.5 c 128,-1,86
 515 76 515 76 421 163 c 128,-1,87
 327 250 327 250 271 390.5 c 128,-1,88
 215 531 215 531 215 707 c 0,89,90
 215 872 215 872 266 1009 c 128,-1,91
 317 1146 317 1146 406 1239.5 c 128,-1,92
 495 1333 495 1333 618 1384.5 c 128,-1,93
 741 1436 741 1436 884 1436 c 0,75,76
EndSplineSet
EndChar

StartChar: Odieresis
Encoding: 214 214 152
Width: 1686
Flags: W
LayerCount: 2
Fore
SplineSet
884 1436 m 0,0,1
 1025 1436 1025 1436 1147.5 1386.5 c 128,-1,2
 1270 1337 1270 1337 1359.5 1247 c 128,-1,3
 1449 1157 1449 1157 1500 1022.5 c 128,-1,4
 1551 888 1551 888 1551 727 c 0,5,6
 1551 509 1551 509 1464.5 339.5 c 128,-1,7
 1378 170 1378 170 1224.5 77.5 c 128,-1,8
 1071 -15 1071 -15 877 -15 c 0,9,10
 749 -15 749 -15 632 30.5 c 128,-1,11
 515 76 515 76 421 163 c 128,-1,12
 327 250 327 250 271 390.5 c 128,-1,13
 215 531 215 531 215 707 c 0,14,15
 215 872 215 872 266 1009 c 128,-1,16
 317 1146 317 1146 406 1239.5 c 128,-1,17
 495 1333 495 1333 618 1384.5 c 128,-1,18
 741 1436 741 1436 884 1436 c 0,0,1
1376 709 m 0,19,20
 1376 827 1376 827 1346 924.5 c 128,-1,21
 1316 1022 1316 1022 1266.5 1088 c 128,-1,22
 1217 1154 1217 1154 1151.5 1200 c 128,-1,23
 1086 1246 1086 1246 1015.5 1266.5 c 128,-1,24
 945 1287 945 1287 872 1287 c 0,25,26
 802 1287 802 1287 734.5 1266.5 c 128,-1,27
 667 1246 667 1246 604 1201.5 c 128,-1,28
 541 1157 541 1157 494 1093 c 128,-1,29
 447 1029 447 1029 418.5 935 c 128,-1,30
 390 841 390 841 390 728 c 0,31,32
 390 595 390 595 429 482.5 c 128,-1,33
 468 370 468 370 535 294 c 128,-1,34
 602 218 602 218 693.5 176 c 128,-1,35
 785 134 785 134 890 134 c 0,36,37
 961 134 961 134 1029.5 155 c 128,-1,38
 1098 176 1098 176 1161 221.5 c 128,-1,39
 1224 267 1224 267 1271.5 333 c 128,-1,40
 1319 399 1319 399 1347.5 496 c 128,-1,41
 1376 593 1376 593 1376 709 c 0,19,20
576 1898 m 1,42,-1
 761 1898 l 1,43,-1
 761 1713 l 1,44,-1
 576 1713 l 1,45,-1
 576 1898 l 1,42,-1
1025 1898 m 1,46,-1
 1210 1898 l 1,47,-1
 1210 1713 l 1,48,-1
 1025 1713 l 1,49,-1
 1025 1898 l 1,46,-1
EndSplineSet
EndChar

StartChar: multiply
Encoding: 215 215 153
Width: 1299
Flags: W
LayerCount: 2
Fore
SplineSet
288 194 m 1,0,-1
 182 299 l 1,1,-1
 537 654 l 1,2,-1
 190 1000 l 1,3,-1
 295 1105 l 1,4,-1
 656 744 l 1,5,-1
 1010 1099 l 1,6,-1
 1115 993 l 1,7,-1
 762 639 l 1,8,-1
 1108 292 l 1,9,-1
 1003 187 l 1,10,-1
 642 548 l 1,11,-1
 288 194 l 1,0,-1
EndSplineSet
EndChar

StartChar: Oslash
Encoding: 216 216 154
Width: 1756
Flags: W
LayerCount: 2
Fore
SplineSet
884 1436 m 0,0,1
 1021 1436 1021 1436 1149.5 1385.5 c 128,-1,2
 1278 1335 1278 1335 1372 1233 c 1,3,-1
 1556 1409 l 1,4,-1
 1619 1344 l 1,5,-1
 1428 1162 l 1,6,7
 1551 980 1551 980 1551 727 c 0,8,9
 1551 509 1551 509 1464.5 339.5 c 128,-1,10
 1378 170 1378 170 1224.5 77.5 c 128,-1,11
 1071 -15 1071 -15 877 -15 c 0,12,13
 795 -15 795 -15 717 4 c 128,-1,14
 639 23 639 23 590.5 45.5 c 128,-1,15
 542 68 542 68 494.5 103 c 128,-1,16
 447 138 447 138 433 151 c 128,-1,17
 419 164 419 164 402 182 c 1,18,-1
 215 5 l 1,19,-1
 154 70 l 1,20,-1
 345 252 l 1,21,22
 215 439 215 439 215 707 c 0,23,24
 215 872 215 872 266 1009 c 128,-1,25
 317 1146 317 1146 406 1239.5 c 128,-1,26
 495 1333 495 1333 618 1384.5 c 128,-1,27
 741 1436 741 1436 884 1436 c 0,0,1
1247 1114 m 1,28,29
 1177 1198 1177 1198 1079.5 1242.5 c 128,-1,30
 982 1287 982 1287 875 1287 c 0,31,32
 784 1287 784 1287 700 1253 c 128,-1,33
 616 1219 616 1219 545.5 1153.5 c 128,-1,34
 475 1088 475 1088 432.5 977.5 c 128,-1,35
 390 867 390 867 390 728 c 0,36,37
 390 527 390 527 476 377 c 1,38,-1
 1247 1114 l 1,28,29
890 134 m 0,39,40
 961 134 961 134 1029.5 155 c 128,-1,41
 1098 176 1098 176 1161 221.5 c 128,-1,42
 1224 267 1224 267 1271.5 333 c 128,-1,43
 1319 399 1319 399 1347.5 496 c 128,-1,44
 1376 593 1376 593 1376 709 c 0,45,46
 1376 899 1376 899 1299 1038 c 1,47,-1
 528 302 l 1,48,49
 597 220 597 220 691.5 177 c 128,-1,50
 786 134 786 134 890 134 c 0,39,40
EndSplineSet
EndChar

StartChar: Ugrave
Encoding: 217 217 155
Width: 1580
Flags: W
LayerCount: 2
Fore
SplineSet
290 1421 m 1,0,-1
 460 1421 l 1,1,-1
 460 500 l 2,2,3
 460 468 460 468 461.5 441.5 c 128,-1,4
 463 415 463 415 471.5 374.5 c 128,-1,5
 480 334 480 334 494 302.5 c 128,-1,6
 508 271 508 271 536 236.5 c 128,-1,7
 564 202 564 202 602 179.5 c 128,-1,8
 640 157 640 157 698.5 142 c 128,-1,9
 757 127 757 127 830 127 c 0,10,11
 916 127 916 127 982 147 c 128,-1,12
 1048 167 1048 167 1088.5 200.5 c 128,-1,13
 1129 234 1129 234 1154.5 283 c 128,-1,14
 1180 332 1180 332 1190 384.5 c 128,-1,15
 1200 437 1200 437 1200 500 c 2,16,-1
 1200 1421 l 1,17,-1
 1370 1421 l 1,18,-1
 1370 483 l 2,19,20
 1370 448 1370 448 1369 423.5 c 128,-1,21
 1368 399 1368 399 1363 356 c 128,-1,22
 1358 313 1358 313 1348.5 281.5 c 128,-1,23
 1339 250 1339 250 1319.5 208.5 c 128,-1,24
 1300 167 1300 167 1273 137 c 128,-1,25
 1246 107 1246 107 1204 75.5 c 128,-1,26
 1162 44 1162 44 1109.5 24.5 c 128,-1,27
 1057 5 1057 5 983.5 -7.5 c 128,-1,28
 910 -20 910 -20 823 -20 c 0,29,30
 714 -20 714 -20 627.5 1 c 128,-1,31
 541 22 541 22 486 52.5 c 128,-1,32
 431 83 431 83 391.5 131.5 c 128,-1,33
 352 180 352 180 333 220.5 c 128,-1,34
 314 261 314 261 303.5 318.5 c 128,-1,35
 293 376 293 376 291.5 406.5 c 128,-1,36
 290 437 290 437 290 483 c 2,37,-1
 290 1421 l 1,0,-1
624 1927 m 1,38,-1
 1128 1617 l 1,39,-1
 1065 1511 l 1,40,-1
 553 1804 l 1,41,-1
 624 1927 l 1,38,-1
EndSplineSet
EndChar

StartChar: Uacute
Encoding: 218 218 156
Width: 1580
Flags: W
LayerCount: 2
Fore
SplineSet
290 1421 m 1,0,-1
 460 1421 l 1,1,-1
 460 500 l 2,2,3
 460 468 460 468 461.5 441.5 c 128,-1,4
 463 415 463 415 471.5 374.5 c 128,-1,5
 480 334 480 334 494 302.5 c 128,-1,6
 508 271 508 271 536 236.5 c 128,-1,7
 564 202 564 202 602 179.5 c 128,-1,8
 640 157 640 157 698.5 142 c 128,-1,9
 757 127 757 127 830 127 c 0,10,11
 916 127 916 127 982 147 c 128,-1,12
 1048 167 1048 167 1088.5 200.5 c 128,-1,13
 1129 234 1129 234 1154.5 283 c 128,-1,14
 1180 332 1180 332 1190 384.5 c 128,-1,15
 1200 437 1200 437 1200 500 c 2,16,-1
 1200 1421 l 1,17,-1
 1370 1421 l 1,18,-1
 1370 483 l 2,19,20
 1370 448 1370 448 1369 423.5 c 128,-1,21
 1368 399 1368 399 1363 356 c 128,-1,22
 1358 313 1358 313 1348.5 281.5 c 128,-1,23
 1339 250 1339 250 1319.5 208.5 c 128,-1,24
 1300 167 1300 167 1273 137 c 128,-1,25
 1246 107 1246 107 1204 75.5 c 128,-1,26
 1162 44 1162 44 1109.5 24.5 c 128,-1,27
 1057 5 1057 5 983.5 -7.5 c 128,-1,28
 910 -20 910 -20 823 -20 c 0,29,30
 714 -20 714 -20 627.5 1 c 128,-1,31
 541 22 541 22 486 52.5 c 128,-1,32
 431 83 431 83 391.5 131.5 c 128,-1,33
 352 180 352 180 333 220.5 c 128,-1,34
 314 261 314 261 303.5 318.5 c 128,-1,35
 293 376 293 376 291.5 406.5 c 128,-1,36
 290 437 290 437 290 483 c 2,37,-1
 290 1421 l 1,0,-1
1064 1930 m 1,38,-1
 1134 1807 l 1,39,-1
 622 1511 l 1,40,-1
 560 1620 l 1,41,-1
 1064 1930 l 1,38,-1
EndSplineSet
EndChar

StartChar: Ucircumflex
Encoding: 219 219 157
Width: 1580
Flags: W
LayerCount: 2
Fore
SplineSet
290 1421 m 1,0,-1
 460 1421 l 1,1,-1
 460 500 l 2,2,3
 460 468 460 468 461.5 441.5 c 128,-1,4
 463 415 463 415 471.5 374.5 c 128,-1,5
 480 334 480 334 494 302.5 c 128,-1,6
 508 271 508 271 536 236.5 c 128,-1,7
 564 202 564 202 602 179.5 c 128,-1,8
 640 157 640 157 698.5 142 c 128,-1,9
 757 127 757 127 830 127 c 0,10,11
 916 127 916 127 982 147 c 128,-1,12
 1048 167 1048 167 1088.5 200.5 c 128,-1,13
 1129 234 1129 234 1154.5 283 c 128,-1,14
 1180 332 1180 332 1190 384.5 c 128,-1,15
 1200 437 1200 437 1200 500 c 2,16,-1
 1200 1421 l 1,17,-1
 1370 1421 l 1,18,-1
 1370 483 l 2,19,20
 1370 448 1370 448 1369 423.5 c 128,-1,21
 1368 399 1368 399 1363 356 c 128,-1,22
 1358 313 1358 313 1348.5 281.5 c 128,-1,23
 1339 250 1339 250 1319.5 208.5 c 128,-1,24
 1300 167 1300 167 1273 137 c 128,-1,25
 1246 107 1246 107 1204 75.5 c 128,-1,26
 1162 44 1162 44 1109.5 24.5 c 128,-1,27
 1057 5 1057 5 983.5 -7.5 c 128,-1,28
 910 -20 910 -20 823 -20 c 0,29,30
 714 -20 714 -20 627.5 1 c 128,-1,31
 541 22 541 22 486 52.5 c 128,-1,32
 431 83 431 83 391.5 131.5 c 128,-1,33
 352 180 352 180 333 220.5 c 128,-1,34
 314 261 314 261 303.5 318.5 c 128,-1,35
 293 376 293 376 291.5 406.5 c 128,-1,36
 290 437 290 437 290 483 c 2,37,-1
 290 1421 l 1,0,-1
844 1924 m 1,38,-1
 1100 1638 l 1,39,-1
 1006 1550 l 1,40,-1
 831 1746 l 1,41,-1
 650 1551 l 1,42,-1
 562 1629 l 1,43,-1
 844 1924 l 1,38,-1
EndSplineSet
EndChar

StartChar: Udieresis
Encoding: 220 220 158
Width: 1580
Flags: W
LayerCount: 2
Fore
SplineSet
290 1421 m 1,0,-1
 460 1421 l 1,1,-1
 460 500 l 2,2,3
 460 468 460 468 461.5 441.5 c 128,-1,4
 463 415 463 415 471.5 374.5 c 128,-1,5
 480 334 480 334 494 302.5 c 128,-1,6
 508 271 508 271 536 236.5 c 128,-1,7
 564 202 564 202 602 179.5 c 128,-1,8
 640 157 640 157 698.5 142 c 128,-1,9
 757 127 757 127 830 127 c 0,10,11
 916 127 916 127 982 147 c 128,-1,12
 1048 167 1048 167 1088.5 200.5 c 128,-1,13
 1129 234 1129 234 1154.5 283 c 128,-1,14
 1180 332 1180 332 1190 384.5 c 128,-1,15
 1200 437 1200 437 1200 500 c 2,16,-1
 1200 1421 l 1,17,-1
 1370 1421 l 1,18,-1
 1370 483 l 2,19,20
 1370 448 1370 448 1369 423.5 c 128,-1,21
 1368 399 1368 399 1363 356 c 128,-1,22
 1358 313 1358 313 1348.5 281.5 c 128,-1,23
 1339 250 1339 250 1319.5 208.5 c 128,-1,24
 1300 167 1300 167 1273 137 c 128,-1,25
 1246 107 1246 107 1204 75.5 c 128,-1,26
 1162 44 1162 44 1109.5 24.5 c 128,-1,27
 1057 5 1057 5 983.5 -7.5 c 128,-1,28
 910 -20 910 -20 823 -20 c 0,29,30
 714 -20 714 -20 627.5 1 c 128,-1,31
 541 22 541 22 486 52.5 c 128,-1,32
 431 83 431 83 391.5 131.5 c 128,-1,33
 352 180 352 180 333 220.5 c 128,-1,34
 314 261 314 261 303.5 318.5 c 128,-1,35
 293 376 293 376 291.5 406.5 c 128,-1,36
 290 437 290 437 290 483 c 2,37,-1
 290 1421 l 1,0,-1
513 1898 m 1,38,-1
 698 1898 l 1,39,-1
 698 1713 l 1,40,-1
 513 1713 l 1,41,-1
 513 1898 l 1,38,-1
962 1898 m 1,42,-1
 1147 1898 l 1,43,-1
 1147 1713 l 1,44,-1
 962 1713 l 1,45,-1
 962 1898 l 1,42,-1
EndSplineSet
EndChar

StartChar: Yacute
Encoding: 221 221 159
Width: 1263
Flags: W
LayerCount: 2
Fore
SplineSet
100 1421 m 1,0,-1
 301 1421 l 1,1,-1
 663 834 l 1,2,-1
 1033 1421 l 1,3,-1
 1223 1421 l 1,4,-1
 739 673 l 1,5,-1
 739 0 l 1,6,-1
 569 0 l 1,7,-1
 569 673 l 1,8,-1
 100 1421 l 1,0,-1
871 1930 m 1,9,-1
 941 1807 l 1,10,-1
 429 1511 l 1,11,-1
 367 1620 l 1,12,-1
 871 1930 l 1,9,-1
EndSplineSet
EndChar

StartChar: Thorn
Encoding: 222 222 160
Width: 1326
Flags: W
LayerCount: 2
Fore
SplineSet
682 1008 m 0,0,1
 566 1008 566 1008 460 998 c 1,2,-1
 460 483 l 1,3,4
 570 474 570 474 655 474 c 2,5,-1
 683 474 l 2,6,7
 722 474 722 474 749 475 c 128,-1,8
 776 476 776 476 819 482 c 128,-1,9
 862 488 862 488 892 498 c 128,-1,10
 922 508 922 508 957 529 c 128,-1,11
 992 550 992 550 1013 578.5 c 128,-1,12
 1034 607 1034 607 1048.5 651.5 c 128,-1,13
 1063 696 1063 696 1063 752 c 0,14,15
 1063 801 1063 801 1050 840.5 c 128,-1,16
 1037 880 1037 880 1016.5 906 c 128,-1,17
 996 932 996 932 964 951.5 c 128,-1,18
 932 971 932 971 900.5 981.5 c 128,-1,19
 869 992 869 992 828 998.5 c 128,-1,20
 787 1005 787 1005 754.5 1006.5 c 128,-1,21
 722 1008 722 1008 682 1008 c 0,0,1
290 1421 m 1,22,-1
 460 1421 l 1,23,-1
 460 1147 l 1,24,25
 590 1160 590 1160 729 1160 c 0,26,27
 818 1160 818 1160 890 1150 c 128,-1,28
 962 1140 962 1140 1028 1114.5 c 128,-1,29
 1094 1089 1094 1089 1138.5 1048.5 c 128,-1,30
 1183 1008 1183 1008 1209.5 942.5 c 128,-1,31
 1236 877 1236 877 1236 791 c 0,32,33
 1236 742 1236 742 1228.5 694 c 128,-1,34
 1221 646 1221 646 1201 592.5 c 128,-1,35
 1181 539 1181 539 1150 495 c 128,-1,36
 1119 451 1119 451 1068 414 c 128,-1,37
 1017 377 1017 377 952 358 c 0,38,39
 842 326 842 326 624 326 c 0,40,41
 542 326 542 326 460 332 c 1,42,-1
 460 0 l 1,43,-1
 290 0 l 1,44,-1
 290 1421 l 1,22,-1
EndSplineSet
EndChar

StartChar: germandbls
Encoding: 223 223 161
Width: 1258
Flags: W
LayerCount: 2
Fore
SplineSet
594 1430 m 0,0,1
 661 1430 661 1430 719 1409.5 c 128,-1,2
 777 1389 777 1389 816.5 1355 c 128,-1,3
 856 1321 856 1321 884.5 1278 c 128,-1,4
 913 1235 913 1235 926.5 1190 c 128,-1,5
 940 1145 940 1145 940 1101 c 0,6,7
 940 1036 940 1036 913 984 c 128,-1,8
 886 932 886 932 848 899 c 128,-1,9
 810 866 810 866 772 838 c 128,-1,10
 734 810 734 810 707 778.5 c 128,-1,11
 680 747 680 747 680 712 c 0,12,13
 680 674 680 674 705.5 647 c 128,-1,14
 731 620 731 620 771 603 c 128,-1,15
 811 586 811 586 860 569.5 c 128,-1,16
 909 553 909 553 958 530.5 c 128,-1,17
 1007 508 1007 508 1047 476.5 c 128,-1,18
 1087 445 1087 445 1112.5 390 c 128,-1,19
 1138 335 1138 335 1138 261 c 0,20,21
 1138 227 1138 227 1130.5 192.5 c 128,-1,22
 1123 158 1123 158 1100 117.5 c 128,-1,23
 1077 77 1077 77 1042 46 c 128,-1,24
 1007 15 1007 15 946 -5.5 c 128,-1,25
 885 -26 885 -26 807 -26 c 0,26,27
 661 -26 661 -26 502 21 c 1,28,-1
 533 137 l 1,29,30
 690 106 690 106 773 106 c 0,31,32
 865 106 865 106 915 141 c 128,-1,33
 965 176 965 176 965 258 c 0,34,35
 965 302 965 302 945.5 334.5 c 128,-1,36
 926 367 926 367 895 386 c 128,-1,37
 864 405 864 405 823.5 422.5 c 128,-1,38
 783 440 783 440 741 453 c 128,-1,39
 699 466 699 466 658.5 487.5 c 128,-1,40
 618 509 618 509 587 534.5 c 128,-1,41
 556 560 556 560 536.5 604 c 128,-1,42
 517 648 517 648 517 705 c 0,43,44
 517 757 517 757 536.5 799.5 c 128,-1,45
 556 842 556 842 585 869 c 128,-1,46
 614 896 614 896 648.5 923.5 c 128,-1,47
 683 951 683 951 712 972.5 c 128,-1,48
 741 994 741 994 760.5 1025 c 128,-1,49
 780 1056 780 1056 780 1091 c 0,50,51
 780 1172 780 1172 716.5 1227.5 c 128,-1,52
 653 1283 653 1283 576 1283 c 0,53,54
 557 1283 557 1283 535 1279 c 128,-1,55
 513 1275 513 1275 481 1258.5 c 128,-1,56
 449 1242 449 1242 424.5 1215.5 c 128,-1,57
 400 1189 400 1189 382 1139 c 128,-1,58
 364 1089 364 1089 364 1022 c 2,59,-1
 364 0 l 1,60,-1
 200 0 l 1,61,-1
 200 1023 l 2,62,63
 200 1109 200 1109 224 1179 c 128,-1,64
 248 1249 248 1249 286.5 1295 c 128,-1,65
 325 1341 325 1341 377 1372 c 128,-1,66
 429 1403 429 1403 483.5 1416.5 c 128,-1,67
 538 1430 538 1430 594 1430 c 0,0,1
EndSplineSet
EndChar

StartChar: agrave
Encoding: 224 224 162
Width: 1069
Flags: W
LayerCount: 2
Fore
SplineSet
507 1006 m 0,0,1
 618 1006 618 1006 694.5 980 c 128,-1,2
 771 954 771 954 812.5 904.5 c 128,-1,3
 854 855 854 855 871.5 795 c 128,-1,4
 889 735 889 735 889 656 c 2,5,-1
 889 0 l 1,6,-1
 773 0 l 1,7,-1
 735 90 l 1,8,9
 614 -20 614 -20 457 -20 c 0,10,11
 317 -20 317 -20 220 64.5 c 128,-1,12
 123 149 123 149 123 262 c 0,13,14
 123 334 123 334 155.5 388 c 128,-1,15
 188 442 188 442 241.5 474.5 c 128,-1,16
 295 507 295 507 375 526.5 c 128,-1,17
 455 546 455 546 537.5 553 c 128,-1,18
 620 560 620 560 724 560 c 1,19,-1
 724 639 l 2,20,21
 724 673 724 673 721.5 698 c 128,-1,22
 719 723 719 723 705 758 c 128,-1,23
 691 793 691 793 667 815.5 c 128,-1,24
 643 838 643 838 595 854.5 c 128,-1,25
 547 871 547 871 481 871 c 0,26,27
 379 871 379 871 217 826 c 1,28,-1
 186 946 l 1,29,30
 347 1006 347 1006 507 1006 c 0,0,1
724 437 m 1,31,-1
 663 437 l 2,32,33
 617 437 617 437 581.5 435.5 c 128,-1,34
 546 434 546 434 498.5 429 c 128,-1,35
 451 424 451 424 417 412.5 c 128,-1,36
 383 401 383 401 351.5 383.5 c 128,-1,37
 320 366 320 366 303.5 337 c 128,-1,38
 287 308 287 308 287 270 c 0,39,40
 287 207 287 207 350 158 c 128,-1,41
 413 109 413 109 501 109 c 0,42,43
 630 109 630 109 724 210 c 1,44,-1
 724 437 l 1,31,-1
445 1539 m 1,45,-1
 809 1215 l 1,46,-1
 729 1115 l 1,47,-1
 353 1430 l 1,48,-1
 445 1539 l 1,45,-1
EndSplineSet
EndChar

StartChar: aacute
Encoding: 225 225 163
Width: 1069
Flags: W
LayerCount: 2
Fore
SplineSet
676 1549 m 1,0,-1
 768 1440 l 1,1,-1
 392 1125 l 1,2,-1
 312 1225 l 1,3,-1
 676 1549 l 1,0,-1
724 437 m 1,4,-1
 663 437 l 2,5,6
 617 437 617 437 581.5 435.5 c 128,-1,7
 546 434 546 434 498.5 429 c 128,-1,8
 451 424 451 424 417 412.5 c 128,-1,9
 383 401 383 401 351.5 383.5 c 128,-1,10
 320 366 320 366 303.5 337 c 128,-1,11
 287 308 287 308 287 270 c 0,12,13
 287 207 287 207 350 158 c 128,-1,14
 413 109 413 109 501 109 c 0,15,16
 630 109 630 109 724 210 c 1,17,-1
 724 437 l 1,4,-1
507 1006 m 0,18,19
 618 1006 618 1006 694.5 980 c 128,-1,20
 771 954 771 954 812.5 904.5 c 128,-1,21
 854 855 854 855 871.5 795 c 128,-1,22
 889 735 889 735 889 656 c 2,23,-1
 889 0 l 1,24,-1
 773 0 l 1,25,-1
 735 90 l 1,26,27
 614 -20 614 -20 457 -20 c 0,28,29
 317 -20 317 -20 220 64.5 c 128,-1,30
 123 149 123 149 123 262 c 0,31,32
 123 334 123 334 155.5 388 c 128,-1,33
 188 442 188 442 241.5 474.5 c 128,-1,34
 295 507 295 507 375 526.5 c 128,-1,35
 455 546 455 546 537.5 553 c 128,-1,36
 620 560 620 560 724 560 c 1,37,-1
 724 639 l 2,38,39
 724 673 724 673 721.5 698 c 128,-1,40
 719 723 719 723 705 758 c 128,-1,41
 691 793 691 793 667 815.5 c 128,-1,42
 643 838 643 838 595 854.5 c 128,-1,43
 547 871 547 871 481 871 c 0,44,45
 379 871 379 871 217 826 c 1,46,-1
 186 946 l 1,47,48
 347 1006 347 1006 507 1006 c 0,18,19
EndSplineSet
EndChar

StartChar: acircumflex
Encoding: 226 226 164
Width: 1069
Flags: W
LayerCount: 2
Fore
SplineSet
544 1490 m 1,0,-1
 800 1204 l 1,1,-1
 707 1116 l 1,2,-1
 532 1312 l 1,3,-1
 350 1117 l 1,4,-1
 262 1195 l 1,5,-1
 544 1490 l 1,0,-1
724 437 m 1,6,-1
 663 437 l 2,7,8
 617 437 617 437 581.5 435.5 c 128,-1,9
 546 434 546 434 498.5 429 c 128,-1,10
 451 424 451 424 417 412.5 c 128,-1,11
 383 401 383 401 351.5 383.5 c 128,-1,12
 320 366 320 366 303.5 337 c 128,-1,13
 287 308 287 308 287 270 c 0,14,15
 287 207 287 207 350 158 c 128,-1,16
 413 109 413 109 501 109 c 0,17,18
 630 109 630 109 724 210 c 1,19,-1
 724 437 l 1,6,-1
507 1006 m 0,20,21
 618 1006 618 1006 694.5 980 c 128,-1,22
 771 954 771 954 812.5 904.5 c 128,-1,23
 854 855 854 855 871.5 795 c 128,-1,24
 889 735 889 735 889 656 c 2,25,-1
 889 0 l 1,26,-1
 773 0 l 1,27,-1
 735 90 l 1,28,29
 614 -20 614 -20 457 -20 c 0,30,31
 317 -20 317 -20 220 64.5 c 128,-1,32
 123 149 123 149 123 262 c 0,33,34
 123 334 123 334 155.5 388 c 128,-1,35
 188 442 188 442 241.5 474.5 c 128,-1,36
 295 507 295 507 375 526.5 c 128,-1,37
 455 546 455 546 537.5 553 c 128,-1,38
 620 560 620 560 724 560 c 1,39,-1
 724 639 l 2,40,41
 724 673 724 673 721.5 698 c 128,-1,42
 719 723 719 723 705 758 c 128,-1,43
 691 793 691 793 667 815.5 c 128,-1,44
 643 838 643 838 595 854.5 c 128,-1,45
 547 871 547 871 481 871 c 0,46,47
 379 871 379 871 217 826 c 1,48,-1
 186 946 l 1,49,50
 347 1006 347 1006 507 1006 c 0,20,21
EndSplineSet
EndChar

StartChar: atilde
Encoding: 227 227 165
Width: 1069
Flags: W
LayerCount: 2
Fore
SplineSet
802 1444 m 1,0,-1
 910 1427 l 1,1,-1
 893 1342 l 2,2,3
 873 1246 873 1246 838 1201 c 0,4,5
 790 1140 790 1140 708 1140 c 0,6,7
 664 1140 664 1140 622.5 1158.5 c 128,-1,8
 581 1177 581 1177 550.5 1203.5 c 128,-1,9
 520 1230 520 1230 493 1256.5 c 128,-1,10
 466 1283 466 1283 439.5 1301.5 c 128,-1,11
 413 1320 413 1320 390 1320 c 0,12,13
 377 1320 377 1320 365.5 1315 c 128,-1,14
 354 1310 354 1310 346 1303.5 c 128,-1,15
 338 1297 338 1297 331 1285.5 c 128,-1,16
 324 1274 324 1274 319.5 1265 c 128,-1,17
 315 1256 315 1256 311 1242 c 128,-1,18
 307 1228 307 1228 305.5 1221.5 c 128,-1,19
 304 1215 304 1215 302 1202 c 2,20,-1
 300 1190 l 1,21,-1
 290 1140 l 1,22,-1
 182 1155 l 1,23,-1
 199 1240 l 2,24,25
 203 1261 203 1261 204 1266 c 128,-1,26
 205 1271 205 1271 213 1298.5 c 128,-1,27
 221 1326 221 1326 228 1339 c 128,-1,28
 235 1352 235 1352 250.5 1375.5 c 128,-1,29
 266 1399 266 1399 283 1410.5 c 128,-1,30
 300 1422 300 1422 326.5 1432 c 128,-1,31
 353 1442 353 1442 384 1442 c 0,32,33
 428 1442 428 1442 469.5 1423.5 c 128,-1,34
 511 1405 511 1405 541.5 1378.5 c 128,-1,35
 572 1352 572 1352 599 1325.5 c 128,-1,36
 626 1299 626 1299 652.5 1280.5 c 128,-1,37
 679 1262 679 1262 702 1262 c 0,38,39
 715 1262 715 1262 726.5 1267 c 128,-1,40
 738 1272 738 1272 746 1278.5 c 128,-1,41
 754 1285 754 1285 761 1296.5 c 128,-1,42
 768 1308 768 1308 772.5 1317 c 128,-1,43
 777 1326 777 1326 781 1340 c 128,-1,44
 785 1354 785 1354 786.5 1360.5 c 128,-1,45
 788 1367 788 1367 790 1380 c 2,46,-1
 792 1392 l 1,47,-1
 802 1444 l 1,0,-1
724 437 m 1,48,-1
 663 437 l 2,49,50
 617 437 617 437 581.5 435.5 c 128,-1,51
 546 434 546 434 498.5 429 c 128,-1,52
 451 424 451 424 417 412.5 c 128,-1,53
 383 401 383 401 351.5 383.5 c 128,-1,54
 320 366 320 366 303.5 337 c 128,-1,55
 287 308 287 308 287 270 c 0,56,57
 287 207 287 207 350 158 c 128,-1,58
 413 109 413 109 501 109 c 0,59,60
 630 109 630 109 724 210 c 1,61,-1
 724 437 l 1,48,-1
507 1006 m 0,62,63
 618 1006 618 1006 694.5 980 c 128,-1,64
 771 954 771 954 812.5 904.5 c 128,-1,65
 854 855 854 855 871.5 795 c 128,-1,66
 889 735 889 735 889 656 c 2,67,-1
 889 0 l 1,68,-1
 773 0 l 1,69,-1
 735 90 l 1,70,71
 614 -20 614 -20 457 -20 c 0,72,73
 317 -20 317 -20 220 64.5 c 128,-1,74
 123 149 123 149 123 262 c 0,75,76
 123 334 123 334 155.5 388 c 128,-1,77
 188 442 188 442 241.5 474.5 c 128,-1,78
 295 507 295 507 375 526.5 c 128,-1,79
 455 546 455 546 537.5 553 c 128,-1,80
 620 560 620 560 724 560 c 1,81,-1
 724 639 l 2,82,83
 724 673 724 673 721.5 698 c 128,-1,84
 719 723 719 723 705 758 c 128,-1,85
 691 793 691 793 667 815.5 c 128,-1,86
 643 838 643 838 595 854.5 c 128,-1,87
 547 871 547 871 481 871 c 0,88,89
 379 871 379 871 217 826 c 1,90,-1
 186 946 l 1,91,92
 347 1006 347 1006 507 1006 c 0,62,63
EndSplineSet
EndChar

StartChar: adieresis
Encoding: 228 228 166
Width: 1069
Flags: W
LayerCount: 2
Fore
SplineSet
708 1421 m 1,0,-1
 893 1421 l 1,1,-1
 893 1235 l 1,2,-1
 708 1235 l 1,3,-1
 708 1421 l 1,0,-1
259 1421 m 1,4,-1
 444 1421 l 1,5,-1
 444 1235 l 1,6,-1
 259 1235 l 1,7,-1
 259 1421 l 1,4,-1
724 437 m 1,8,-1
 663 437 l 2,9,10
 617 437 617 437 581.5 435.5 c 128,-1,11
 546 434 546 434 498.5 429 c 128,-1,12
 451 424 451 424 417 412.5 c 128,-1,13
 383 401 383 401 351.5 383.5 c 128,-1,14
 320 366 320 366 303.5 337 c 128,-1,15
 287 308 287 308 287 270 c 0,16,17
 287 207 287 207 350 158 c 128,-1,18
 413 109 413 109 501 109 c 0,19,20
 630 109 630 109 724 210 c 1,21,-1
 724 437 l 1,8,-1
507 1006 m 0,22,23
 618 1006 618 1006 694.5 980 c 128,-1,24
 771 954 771 954 812.5 904.5 c 128,-1,25
 854 855 854 855 871.5 795 c 128,-1,26
 889 735 889 735 889 656 c 2,27,-1
 889 0 l 1,28,-1
 773 0 l 1,29,-1
 735 90 l 1,30,31
 614 -20 614 -20 457 -20 c 0,32,33
 317 -20 317 -20 220 64.5 c 128,-1,34
 123 149 123 149 123 262 c 0,35,36
 123 334 123 334 155.5 388 c 128,-1,37
 188 442 188 442 241.5 474.5 c 128,-1,38
 295 507 295 507 375 526.5 c 128,-1,39
 455 546 455 546 537.5 553 c 128,-1,40
 620 560 620 560 724 560 c 1,41,-1
 724 639 l 2,42,43
 724 673 724 673 721.5 698 c 128,-1,44
 719 723 719 723 705 758 c 128,-1,45
 691 793 691 793 667 815.5 c 128,-1,46
 643 838 643 838 595 854.5 c 128,-1,47
 547 871 547 871 481 871 c 0,48,49
 379 871 379 871 217 826 c 1,50,-1
 186 946 l 1,51,52
 347 1006 347 1006 507 1006 c 0,22,23
EndSplineSet
EndChar

StartChar: aring
Encoding: 229 229 167
Width: 1069
Flags: W
LayerCount: 2
Fore
SplineSet
551 1482 m 0,0,1
 496 1482 496 1482 458.5 1442.5 c 128,-1,2
 421 1403 421 1403 421 1349 c 128,-1,3
 421 1295 421 1295 457.5 1255 c 128,-1,4
 494 1215 494 1215 551 1215 c 0,5,6
 605 1215 605 1215 641.5 1255.5 c 128,-1,7
 678 1296 678 1296 678 1349 c 128,-1,8
 678 1402 678 1402 641.5 1442 c 128,-1,9
 605 1482 605 1482 551 1482 c 0,0,1
550 1573 m 128,-1,11
 640 1573 640 1573 705 1507.5 c 128,-1,12
 770 1442 770 1442 770 1349 c 128,-1,13
 770 1256 770 1256 705.5 1190 c 128,-1,14
 641 1124 641 1124 551 1124 c 128,-1,15
 461 1124 461 1124 396 1189.5 c 128,-1,16
 331 1255 331 1255 331 1349 c 0,17,18
 331 1442 331 1442 395.5 1507.5 c 128,-1,10
 460 1573 460 1573 550 1573 c 128,-1,11
724 437 m 1,19,-1
 663 437 l 2,20,21
 617 437 617 437 581.5 435.5 c 128,-1,22
 546 434 546 434 498.5 429 c 128,-1,23
 451 424 451 424 417 412.5 c 128,-1,24
 383 401 383 401 351.5 383.5 c 128,-1,25
 320 366 320 366 303.5 337 c 128,-1,26
 287 308 287 308 287 270 c 0,27,28
 287 207 287 207 350 158 c 128,-1,29
 413 109 413 109 501 109 c 0,30,31
 630 109 630 109 724 210 c 1,32,-1
 724 437 l 1,19,-1
507 1006 m 0,33,34
 618 1006 618 1006 694.5 980 c 128,-1,35
 771 954 771 954 812.5 904.5 c 128,-1,36
 854 855 854 855 871.5 795 c 128,-1,37
 889 735 889 735 889 656 c 2,38,-1
 889 0 l 1,39,-1
 773 0 l 1,40,-1
 735 90 l 1,41,42
 614 -20 614 -20 457 -20 c 0,43,44
 317 -20 317 -20 220 64.5 c 128,-1,45
 123 149 123 149 123 262 c 0,46,47
 123 334 123 334 155.5 388 c 128,-1,48
 188 442 188 442 241.5 474.5 c 128,-1,49
 295 507 295 507 375 526.5 c 128,-1,50
 455 546 455 546 537.5 553 c 128,-1,51
 620 560 620 560 724 560 c 1,52,-1
 724 639 l 2,53,54
 724 673 724 673 721.5 698 c 128,-1,55
 719 723 719 723 705 758 c 128,-1,56
 691 793 691 793 667 815.5 c 128,-1,57
 643 838 643 838 595 854.5 c 128,-1,58
 547 871 547 871 481 871 c 0,59,60
 379 871 379 871 217 826 c 1,61,-1
 186 946 l 1,62,63
 347 1006 347 1006 507 1006 c 0,33,34
EndSplineSet
EndChar

StartChar: ae
Encoding: 230 230 168
Width: 1674
Flags: W
LayerCount: 2
Fore
SplineSet
286 274 m 0,0,1
 286 207 286 207 353 159 c 128,-1,2
 420 111 420 111 506 111 c 0,3,4
 633 111 633 111 724 207 c 1,5,-1
 724 436 l 1,6,7
 591 436 591 436 502.5 425 c 128,-1,8
 414 414 414 414 367.5 391.5 c 128,-1,9
 321 369 321 369 303.5 341.5 c 128,-1,10
 286 314 286 314 286 274 c 0,0,1
1163 864 m 0,11,12
 1042 864 1042 864 969.5 774.5 c 128,-1,13
 897 685 897 685 897 560 c 1,14,-1
 1386 560 l 1,15,16
 1386 600 1386 600 1381 637.5 c 128,-1,17
 1376 675 1376 675 1361 718 c 128,-1,18
 1346 761 1346 761 1322.5 792 c 128,-1,19
 1299 823 1299 823 1258 843.5 c 128,-1,20
 1217 864 1217 864 1163 864 c 0,11,12
186 944 m 1,21,22
 352 1006 352 1006 521 1006 c 0,23,24
 639 1006 639 1006 718.5 960 c 128,-1,25
 798 914 798 914 836 832 c 1,26,27
 901 911 901 911 994.5 958.5 c 128,-1,28
 1088 1006 1088 1006 1191 1006 c 0,29,30
 1279 1006 1279 1006 1344 971.5 c 128,-1,31
 1409 937 1409 937 1446.5 883.5 c 128,-1,32
 1484 830 1484 830 1506.5 751.5 c 128,-1,33
 1529 673 1529 673 1536 599.5 c 128,-1,34
 1543 526 1543 526 1543 436 c 1,35,-1
 889 436 l 1,36,37
 889 299 889 299 993.5 205.5 c 128,-1,38
 1098 112 1098 112 1253 112 c 0,39,40
 1337 112 1337 112 1459 148 c 1,41,-1
 1486 36 l 1,42,43
 1334 -20 1334 -20 1190 -20 c 0,44,45
 1081 -20 1081 -20 983 17 c 128,-1,46
 885 54 885 54 821 131 c 1,47,48
 706 -20 706 -20 473 -20 c 0,49,50
 333 -20 333 -20 228 62.5 c 128,-1,51
 123 145 123 145 123 266 c 0,52,53
 123 378 123 378 215 456.5 c 128,-1,54
 307 535 307 535 483 553 c 0,55,56
 571 562 571 562 724 562 c 1,57,-1
 724 613 l 2,58,59
 724 661 724 661 713 703 c 128,-1,60
 702 745 702 745 676 784.5 c 128,-1,61
 650 824 650 824 599.5 847 c 128,-1,62
 549 870 549 870 479 870 c 0,63,64
 388 870 388 870 227 826 c 1,65,-1
 186 944 l 1,21,22
EndSplineSet
EndChar

StartChar: ccedilla
Encoding: 231 231 169
Width: 1001
Flags: W
LayerCount: 2
Fore
SplineSet
679 -326 m 0,0,1
 679 -311 679 -311 675 -298.5 c 128,-1,2
 671 -286 671 -286 658.5 -276 c 128,-1,3
 646 -266 646 -266 635.5 -259 c 128,-1,4
 625 -252 625 -252 600.5 -243 c 128,-1,5
 576 -234 576 -234 560 -229 c 128,-1,6
 544 -224 544 -224 507.5 -213.5 c 128,-1,7
 471 -203 471 -203 450 -196 c 1,8,-1
 497 -20 l 1,9,10
 439 -11 439 -11 389 8.5 c 128,-1,11
 339 28 339 28 290 66 c 128,-1,12
 241 104 241 104 206.5 156.5 c 128,-1,13
 172 209 172 209 151 288 c 128,-1,14
 130 367 130 367 130 464 c 0,15,16
 130 581 130 581 158 674.5 c 128,-1,17
 186 768 186 768 232.5 827.5 c 128,-1,18
 279 887 279 887 342 926.5 c 128,-1,19
 405 966 405 966 471 982.5 c 128,-1,20
 537 999 537 999 609 999 c 0,21,22
 751 999 751 999 886 940 c 1,23,-1
 846 820 l 1,24,25
 735 858 735 858 629 858 c 0,26,27
 577 858 577 858 531 848.5 c 128,-1,28
 485 839 485 839 439.5 814 c 128,-1,29
 394 789 394 789 361.5 749.5 c 128,-1,30
 329 710 329 710 309 646 c 128,-1,31
 289 582 289 582 289 499 c 0,32,33
 289 408 289 408 310 338.5 c 128,-1,34
 331 269 331 269 365 226 c 128,-1,35
 399 183 399 183 446.5 156 c 128,-1,36
 494 129 494 129 542.5 118.5 c 128,-1,37
 591 108 591 108 647 108 c 0,38,39
 741 108 741 108 835 141 c 1,40,-1
 875 28 l 1,41,42
 746 -21 746 -21 623 -26 c 1,43,-1
 595 -136 l 1,44,45
 597 -137 597 -137 611 -141 c 128,-1,46
 625 -145 625 -145 632 -147 c 128,-1,47
 639 -149 639 -149 655 -155 c 128,-1,48
 671 -161 671 -161 680 -166 c 128,-1,49
 689 -171 689 -171 704 -179.5 c 128,-1,50
 719 -188 719 -188 728 -197 c 128,-1,51
 737 -206 737 -206 747.5 -219 c 128,-1,52
 758 -232 758 -232 764.5 -245.5 c 128,-1,53
 771 -259 771 -259 775 -277 c 128,-1,54
 779 -295 779 -295 779 -315 c 0,55,56
 779 -386 779 -386 724 -442 c 128,-1,57
 669 -498 669 -498 575 -498 c 0,58,59
 554 -498 554 -498 529.5 -494.5 c 128,-1,60
 505 -491 505 -491 477 -484 c 128,-1,61
 449 -477 449 -477 431 -472 c 128,-1,62
 413 -467 413 -467 383 -458 c 128,-1,63
 353 -449 353 -449 347 -447 c 1,64,-1
 373 -356 l 1,65,66
 530 -403 530 -403 579 -403 c 0,67,68
 625 -403 625 -403 652 -380.5 c 128,-1,69
 679 -358 679 -358 679 -326 c 0,0,1
EndSplineSet
EndChar

StartChar: egrave
Encoding: 232 232 170
Width: 1102
Flags: W
LayerCount: 2
Fore
SplineSet
605 1007 m 0,0,1
 677 1007 677 1007 734.5 989.5 c 128,-1,2
 792 972 792 972 830 945 c 128,-1,3
 868 918 868 918 895.5 874.5 c 128,-1,4
 923 831 923 831 937.5 790.5 c 128,-1,5
 952 750 952 750 960 693 c 128,-1,6
 968 636 968 636 970 594 c 128,-1,7
 972 552 972 552 972 495 c 2,8,-1
 972 417 l 1,9,-1
 293 417 l 1,10,11
 293 363 293 363 317.5 309.5 c 128,-1,12
 342 256 342 256 386.5 211.5 c 128,-1,13
 431 167 431 167 503.5 139 c 128,-1,14
 576 111 576 111 664 111 c 0,15,16
 768 111 768 111 889 147 c 1,17,-1
 918 35 l 1,18,19
 757 -20 757 -20 602 -20 c 0,20,21
 493 -20 493 -20 408.5 9 c 128,-1,22
 324 38 324 38 272.5 84.5 c 128,-1,23
 221 131 221 131 188 196 c 128,-1,24
 155 261 155 261 142.5 325.5 c 128,-1,25
 130 390 130 390 130 462 c 0,26,27
 130 573 130 573 157 665 c 128,-1,28
 184 757 184 757 230 819.5 c 128,-1,29
 276 882 276 882 337.5 925 c 128,-1,30
 399 968 399 968 466.5 987.5 c 128,-1,31
 534 1007 534 1007 605 1007 c 0,0,1
570 865 m 0,32,33
 482 865 482 865 418.5 816.5 c 128,-1,34
 355 768 355 768 326 696 c 128,-1,35
 297 624 297 624 297 541 c 1,36,-1
 813 541 l 1,37,38
 813 865 813 865 570 865 c 0,32,33
460 1549 m 1,39,-1
 824 1225 l 1,40,-1
 744 1125 l 1,41,-1
 368 1440 l 1,42,-1
 460 1549 l 1,39,-1
EndSplineSet
EndChar

StartChar: eacute
Encoding: 233 233 171
Width: 1102
Flags: W
LayerCount: 2
Fore
SplineSet
605 1007 m 0,0,1
 677 1007 677 1007 734.5 989.5 c 128,-1,2
 792 972 792 972 830 945 c 128,-1,3
 868 918 868 918 895.5 874.5 c 128,-1,4
 923 831 923 831 937.5 790.5 c 128,-1,5
 952 750 952 750 960 693 c 128,-1,6
 968 636 968 636 970 594 c 128,-1,7
 972 552 972 552 972 495 c 2,8,-1
 972 417 l 1,9,-1
 293 417 l 1,10,11
 293 363 293 363 317.5 309.5 c 128,-1,12
 342 256 342 256 386.5 211.5 c 128,-1,13
 431 167 431 167 503.5 139 c 128,-1,14
 576 111 576 111 664 111 c 0,15,16
 768 111 768 111 889 147 c 1,17,-1
 918 35 l 1,18,19
 757 -20 757 -20 602 -20 c 0,20,21
 493 -20 493 -20 408.5 9 c 128,-1,22
 324 38 324 38 272.5 84.5 c 128,-1,23
 221 131 221 131 188 196 c 128,-1,24
 155 261 155 261 142.5 325.5 c 128,-1,25
 130 390 130 390 130 462 c 0,26,27
 130 573 130 573 157 665 c 128,-1,28
 184 757 184 757 230 819.5 c 128,-1,29
 276 882 276 882 337.5 925 c 128,-1,30
 399 968 399 968 466.5 987.5 c 128,-1,31
 534 1007 534 1007 605 1007 c 0,0,1
570 865 m 0,32,33
 482 865 482 865 418.5 816.5 c 128,-1,34
 355 768 355 768 326 696 c 128,-1,35
 297 624 297 624 297 541 c 1,36,-1
 813 541 l 1,37,38
 813 865 813 865 570 865 c 0,32,33
776 1549 m 1,39,-1
 868 1440 l 1,40,-1
 492 1125 l 1,41,-1
 412 1225 l 1,42,-1
 776 1549 l 1,39,-1
EndSplineSet
EndChar

StartChar: ecircumflex
Encoding: 234 234 172
Width: 1102
Flags: W
LayerCount: 2
Fore
SplineSet
605 1007 m 0,0,1
 677 1007 677 1007 734.5 989.5 c 128,-1,2
 792 972 792 972 830 945 c 128,-1,3
 868 918 868 918 895.5 874.5 c 128,-1,4
 923 831 923 831 937.5 790.5 c 128,-1,5
 952 750 952 750 960 693 c 128,-1,6
 968 636 968 636 970 594 c 128,-1,7
 972 552 972 552 972 495 c 2,8,-1
 972 417 l 1,9,-1
 293 417 l 1,10,11
 293 363 293 363 317.5 309.5 c 128,-1,12
 342 256 342 256 386.5 211.5 c 128,-1,13
 431 167 431 167 503.5 139 c 128,-1,14
 576 111 576 111 664 111 c 0,15,16
 768 111 768 111 889 147 c 1,17,-1
 918 35 l 1,18,19
 757 -20 757 -20 602 -20 c 0,20,21
 493 -20 493 -20 408.5 9 c 128,-1,22
 324 38 324 38 272.5 84.5 c 128,-1,23
 221 131 221 131 188 196 c 128,-1,24
 155 261 155 261 142.5 325.5 c 128,-1,25
 130 390 130 390 130 462 c 0,26,27
 130 573 130 573 157 665 c 128,-1,28
 184 757 184 757 230 819.5 c 128,-1,29
 276 882 276 882 337.5 925 c 128,-1,30
 399 968 399 968 466.5 987.5 c 128,-1,31
 534 1007 534 1007 605 1007 c 0,0,1
570 865 m 0,32,33
 482 865 482 865 418.5 816.5 c 128,-1,34
 355 768 355 768 326 696 c 128,-1,35
 297 624 297 624 297 541 c 1,36,-1
 813 541 l 1,37,38
 813 865 813 865 570 865 c 0,32,33
631 1490 m 1,39,-1
 887 1204 l 1,40,-1
 794 1116 l 1,41,-1
 618 1312 l 1,42,-1
 437 1117 l 1,43,-1
 349 1195 l 1,44,-1
 631 1490 l 1,39,-1
EndSplineSet
EndChar

StartChar: edieresis
Encoding: 235 235 173
Width: 1102
Flags: W
LayerCount: 2
Fore
SplineSet
605 1007 m 0,0,1
 677 1007 677 1007 734.5 989.5 c 128,-1,2
 792 972 792 972 830 945 c 128,-1,3
 868 918 868 918 895.5 874.5 c 128,-1,4
 923 831 923 831 937.5 790.5 c 128,-1,5
 952 750 952 750 960 693 c 128,-1,6
 968 636 968 636 970 594 c 128,-1,7
 972 552 972 552 972 495 c 2,8,-1
 972 417 l 1,9,-1
 295 417 l 1,10,11
 295 363 295 363 319 309.5 c 128,-1,12
 343 256 343 256 387.5 211.5 c 128,-1,13
 432 167 432 167 504 139 c 128,-1,14
 576 111 576 111 664 111 c 0,15,16
 768 111 768 111 889 147 c 1,17,-1
 918 35 l 1,18,19
 757 -20 757 -20 602 -20 c 0,20,21
 493 -20 493 -20 408.5 9 c 128,-1,22
 324 38 324 38 272.5 84.5 c 128,-1,23
 221 131 221 131 188 196 c 128,-1,24
 155 261 155 261 142.5 325.5 c 128,-1,25
 130 390 130 390 130 462 c 0,26,27
 130 573 130 573 157 665 c 128,-1,28
 184 757 184 757 230 819.5 c 128,-1,29
 276 882 276 882 337.5 925 c 128,-1,30
 399 968 399 968 466.5 987.5 c 128,-1,31
 534 1007 534 1007 605 1007 c 0,0,1
570 865 m 0,32,33
 482 865 482 865 418 816.5 c 128,-1,34
 354 768 354 768 324.5 696 c 128,-1,35
 295 624 295 624 295 541 c 1,36,-1
 813 541 l 1,37,38
 813 865 813 865 570 865 c 0,32,33
295 1421 m 1,39,-1
 480 1421 l 1,40,-1
 480 1235 l 1,41,-1
 295 1235 l 1,42,-1
 295 1421 l 1,39,-1
744 1421 m 1,43,-1
 929 1421 l 1,44,-1
 929 1235 l 1,45,-1
 744 1235 l 1,46,-1
 744 1421 l 1,43,-1
EndSplineSet
EndChar

StartChar: igrave
Encoding: 236 236 174
Width: 524
Flags: W
LayerCount: 2
Fore
SplineSet
180 988 m 1,0,-1
 344 988 l 1,1,-1
 344 0 l 1,2,-1
 180 0 l 1,3,-1
 180 988 l 1,0,-1
92 1549 m 1,4,-1
 456 1225 l 1,5,-1
 376 1125 l 1,6,-1
 0 1440 l 1,7,-1
 92 1549 l 1,4,-1
EndSplineSet
EndChar

StartChar: iacute
Encoding: 237 237 175
Width: 524
Flags: W
LayerCount: 2
Fore
SplineSet
180 988 m 1,0,-1
 344 988 l 1,1,-1
 344 0 l 1,2,-1
 180 0 l 1,3,-1
 180 988 l 1,0,-1
476 1549 m 1,4,-1
 568 1440 l 1,5,-1
 192 1125 l 1,6,-1
 112 1225 l 1,7,-1
 476 1549 l 1,4,-1
EndSplineSet
EndChar

StartChar: icircumflex
Encoding: 238 238 176
Width: 530
Flags: W
LayerCount: 2
Fore
SplineSet
180 988 m 1,0,-1
 344 988 l 1,1,-1
 344 0 l 1,2,-1
 180 0 l 1,3,-1
 180 988 l 1,0,-1
268 1490 m 1,4,-1
 494 1204 l 1,5,-1
 401 1116 l 1,6,-1
 255 1302 l 1,7,-1
 104 1117 l 1,8,-1
 17 1195 l 1,9,-1
 268 1490 l 1,4,-1
EndSplineSet
EndChar

StartChar: idieresis
Encoding: 239 239 177
Width: 524
Flags: W
LayerCount: 2
Fore
SplineSet
180 988 m 1,0,-1
 344 988 l 1,1,-1
 344 0 l 1,2,-1
 180 0 l 1,3,-1
 180 988 l 1,0,-1
-15 1421 m 1,4,-1
 170 1421 l 1,5,-1
 170 1236 l 1,6,-1
 -15 1236 l 1,7,-1
 -15 1421 l 1,4,-1
354 1421 m 1,8,-1
 539 1421 l 1,9,-1
 539 1236 l 1,10,-1
 354 1236 l 1,11,-1
 354 1421 l 1,8,-1
EndSplineSet
EndChar

StartChar: eth
Encoding: 240 240 178
Width: 1252
Flags: W
LayerCount: 2
Fore
SplineSet
289 481 m 0,0,1
 289 325 289 325 381.5 219.5 c 128,-1,2
 474 114 474 114 605 114 c 0,3,4
 637 114 637 114 669.5 121.5 c 128,-1,5
 702 129 702 129 741 150.5 c 128,-1,6
 780 172 780 172 811.5 206 c 128,-1,7
 843 240 843 240 868.5 299.5 c 128,-1,8
 894 359 894 359 904 436 c 128,-1,9
 914 513 914 513 914 629 c 2,10,-1
 914 691 l 1,11,12
 727 807 727 807 589 807 c 0,13,14
 460 807 460 807 374.5 716 c 128,-1,15
 289 625 289 625 289 481 c 0,0,1
513 1458 m 1,16,17
 679 1413 679 1413 808 1313 c 1,18,-1
 990 1418 l 1,19,-1
 1045 1323 l 1,20,-1
 893 1236 l 1,21,22
 994 1128 994 1128 1033 996 c 128,-1,23
 1072 864 1072 864 1072 687 c 0,24,25
 1072 604 1072 604 1067 534 c 128,-1,26
 1062 464 1062 464 1048.5 389.5 c 128,-1,27
 1035 315 1035 315 1012.5 256.5 c 128,-1,28
 990 198 990 198 953 145 c 128,-1,29
 916 92 916 92 866.5 56.5 c 128,-1,30
 817 21 817 21 746.5 0.5 c 128,-1,31
 676 -20 676 -20 590 -20 c 0,32,33
 386 -20 386 -20 258 100 c 128,-1,34
 130 220 130 220 130 428 c 0,35,36
 130 568 130 568 184 685 c 128,-1,37
 238 802 238 802 339 872.5 c 128,-1,38
 440 943 440 943 568 943 c 0,39,40
 713 943 713 943 905 834 c 1,41,42
 879 1026 879 1026 748 1153 c 1,43,-1
 569 1050 l 1,44,-1
 515 1145 l 1,45,-1
 657 1227 l 1,46,47
 566 1291 566 1291 451 1330 c 1,48,-1
 513 1458 l 1,16,17
EndSplineSet
EndChar

StartChar: ntilde
Encoding: 241 241 179
Width: 1177
Flags: W
LayerCount: 2
Fore
SplineSet
180 988 m 1,0,-1
 295 988 l 1,1,-1
 331 904 l 1,2,3
 522 1008 522 1008 679 1008 c 0,4,5
 760 1008 760 1008 820 982.5 c 128,-1,6
 880 957 880 957 913 918.5 c 128,-1,7
 946 880 946 880 966 821.5 c 128,-1,8
 986 763 986 763 991.5 710 c 128,-1,9
 997 657 997 657 997 589 c 2,10,-1
 997 0 l 1,11,-1
 832 0 l 1,12,-1
 832 600 l 2,13,14
 832 860 832 860 608 860 c 0,15,16
 492 860 492 860 344 783 c 1,17,-1
 344 0 l 1,18,-1
 180 0 l 1,19,-1
 180 988 l 1,0,-1
887 1449 m 1,20,-1
 995 1432 l 1,21,-1
 978 1347 l 2,22,23
 959 1252 959 1252 924 1208 c 1,24,25
 876 1144 876 1144 793 1144 c 0,26,27
 749 1144 749 1144 707.5 1162.5 c 128,-1,28
 666 1181 666 1181 635.5 1207.5 c 128,-1,29
 605 1234 605 1234 578 1260.5 c 128,-1,30
 551 1287 551 1287 524.5 1305.5 c 128,-1,31
 498 1324 498 1324 475 1324 c 0,32,33
 462 1324 462 1324 450.5 1319 c 128,-1,34
 439 1314 439 1314 431 1307.5 c 128,-1,35
 423 1301 423 1301 416 1289.5 c 128,-1,36
 409 1278 409 1278 404.5 1269.5 c 128,-1,37
 400 1261 400 1261 396 1246.5 c 128,-1,38
 392 1232 392 1232 391 1226 c 128,-1,39
 390 1220 390 1220 388 1208 c 2,40,-1
 385 1195 l 1,41,-1
 375 1144 l 1,42,-1
 267 1160 l 1,43,-1
 284 1245 l 2,44,45
 284 1247 284 1247 285 1250 c 0,46,47
 323 1446 323 1446 469 1446 c 0,48,49
 513 1446 513 1446 554 1427.5 c 128,-1,50
 595 1409 595 1409 625.5 1382.5 c 128,-1,51
 656 1356 656 1356 683 1329.5 c 128,-1,52
 710 1303 710 1303 736.5 1284.5 c 128,-1,53
 763 1266 763 1266 786 1266 c 0,54,55
 798 1266 798 1266 808 1269.5 c 128,-1,56
 818 1273 818 1273 826 1280 c 128,-1,57
 834 1287 834 1287 840.5 1294.5 c 128,-1,58
 847 1302 847 1302 852 1313 c 128,-1,59
 857 1324 857 1324 860.5 1332 c 128,-1,60
 864 1340 864 1340 867 1352 c 128,-1,61
 870 1364 870 1364 871.5 1370 c 128,-1,62
 873 1376 873 1376 875 1386 c 128,-1,63
 877 1396 877 1396 877 1397 c 2,64,-1
 887 1449 l 1,20,-1
EndSplineSet
EndChar

StartChar: ograve
Encoding: 242 242 180
Width: 1211
Flags: W
LayerCount: 2
Fore
SplineSet
529 1549 m 1,0,-1
 893 1225 l 1,1,-1
 813 1125 l 1,2,-1
 437 1440 l 1,3,-1
 529 1549 l 1,0,-1
597 867 m 0,4,5
 474 867 474 867 382 772 c 128,-1,6
 290 677 290 677 290 511 c 0,7,8
 290 346 290 346 380 233 c 128,-1,9
 470 120 470 120 613 120 c 0,10,11
 745 120 745 120 833 220 c 128,-1,12
 921 320 921 320 921 481 c 0,13,14
 921 573 921 573 892.5 648 c 128,-1,15
 864 723 864 723 817.5 770 c 128,-1,16
 771 817 771 817 714 842 c 128,-1,17
 657 867 657 867 597 867 c 0,4,5
611 1007 m 0,18,19
 816 1007 816 1007 948.5 876 c 128,-1,20
 1081 745 1081 745 1081 514 c 0,21,22
 1081 269 1081 269 945.5 124.5 c 128,-1,23
 810 -20 810 -20 595 -20 c 0,24,25
 390 -20 390 -20 260 115.5 c 128,-1,26
 130 251 130 251 130 483 c 0,27,28
 130 722 130 722 262.5 864.5 c 128,-1,29
 395 1007 395 1007 611 1007 c 0,18,19
EndSplineSet
EndChar

StartChar: oacute
Encoding: 243 243 181
Width: 1211
Flags: W
LayerCount: 2
Fore
SplineSet
611 1007 m 0,0,1
 816 1007 816 1007 948.5 876 c 128,-1,2
 1081 745 1081 745 1081 514 c 0,3,4
 1081 269 1081 269 945.5 124.5 c 128,-1,5
 810 -20 810 -20 595 -20 c 0,6,7
 390 -20 390 -20 260 115.5 c 128,-1,8
 130 251 130 251 130 483 c 0,9,10
 130 722 130 722 262.5 864.5 c 128,-1,11
 395 1007 395 1007 611 1007 c 0,0,1
597 867 m 0,12,13
 474 867 474 867 382 772 c 128,-1,14
 290 677 290 677 290 511 c 0,15,16
 290 346 290 346 380 233 c 128,-1,17
 470 120 470 120 613 120 c 0,18,19
 745 120 745 120 833 220 c 128,-1,20
 921 320 921 320 921 481 c 0,21,22
 921 573 921 573 892.5 648 c 128,-1,23
 864 723 864 723 817.5 770 c 128,-1,24
 771 817 771 817 714 842 c 128,-1,25
 657 867 657 867 597 867 c 0,12,13
706 1549 m 1,26,-1
 798 1440 l 1,27,-1
 422 1125 l 1,28,-1
 342 1225 l 1,29,-1
 706 1549 l 1,26,-1
EndSplineSet
EndChar

StartChar: ocircumflex
Encoding: 244 244 182
Width: 1211
Flags: W
LayerCount: 2
Fore
SplineSet
611 1007 m 0,0,1
 816 1007 816 1007 948.5 876 c 128,-1,2
 1081 745 1081 745 1081 514 c 0,3,4
 1081 269 1081 269 945.5 124.5 c 128,-1,5
 810 -20 810 -20 595 -20 c 0,6,7
 390 -20 390 -20 260 115.5 c 128,-1,8
 130 251 130 251 130 483 c 0,9,10
 130 722 130 722 262.5 864.5 c 128,-1,11
 395 1007 395 1007 611 1007 c 0,0,1
597 867 m 0,12,13
 474 867 474 867 382 772 c 128,-1,14
 290 677 290 677 290 511 c 0,15,16
 290 346 290 346 380 233 c 128,-1,17
 470 120 470 120 613 120 c 0,18,19
 745 120 745 120 833 220 c 128,-1,20
 921 320 921 320 921 481 c 0,21,22
 921 573 921 573 892.5 648 c 128,-1,23
 864 723 864 723 817.5 770 c 128,-1,24
 771 817 771 817 714 842 c 128,-1,25
 657 867 657 867 597 867 c 0,12,13
624 1490 m 1,26,-1
 880 1204 l 1,27,-1
 788 1116 l 1,28,-1
 612 1312 l 1,29,-1
 430 1117 l 1,30,-1
 342 1195 l 1,31,-1
 624 1490 l 1,26,-1
EndSplineSet
EndChar

StartChar: otilde
Encoding: 245 245 183
Width: 1211
Flags: W
LayerCount: 2
Fore
SplineSet
867 1448 m 1,0,-1
 975 1431 l 1,1,2
 973 1423 973 1423 967 1390.5 c 128,-1,3
 961 1358 961 1358 958 1346 c 128,-1,4
 955 1334 955 1334 948 1304 c 128,-1,5
 941 1274 941 1274 934 1261 c 128,-1,6
 927 1248 927 1248 916 1225 c 128,-1,7
 905 1202 905 1202 892 1191 c 128,-1,8
 879 1180 879 1180 861.5 1167 c 128,-1,9
 844 1154 844 1154 821.5 1149 c 128,-1,10
 799 1144 799 1144 773 1144 c 0,11,12
 729 1144 729 1144 687.5 1162.5 c 128,-1,13
 646 1181 646 1181 615.5 1207.5 c 128,-1,14
 585 1234 585 1234 558 1260.5 c 128,-1,15
 531 1287 531 1287 504.5 1305.5 c 128,-1,16
 478 1324 478 1324 455 1324 c 0,17,18
 443 1324 443 1324 432.5 1321 c 128,-1,19
 422 1318 422 1318 414 1310.5 c 128,-1,20
 406 1303 406 1303 399.5 1296 c 128,-1,21
 393 1289 393 1289 387.5 1276 c 128,-1,22
 382 1263 382 1263 378.5 1253.5 c 128,-1,23
 375 1244 375 1244 371.5 1227 c 128,-1,24
 368 1210 368 1210 366 1200 c 128,-1,25
 364 1190 364 1190 360.5 1171.5 c 128,-1,26
 357 1153 357 1153 355 1144 c 1,27,-1
 247 1159 l 1,28,29
 249 1167 249 1167 255 1199.5 c 128,-1,30
 261 1232 261 1232 264 1244 c 128,-1,31
 267 1256 267 1256 274 1286 c 128,-1,32
 281 1316 281 1316 288 1329 c 128,-1,33
 295 1342 295 1342 306 1365 c 128,-1,34
 317 1388 317 1388 330 1399 c 128,-1,35
 343 1410 343 1410 360.5 1423 c 128,-1,36
 378 1436 378 1436 400.5 1441 c 128,-1,37
 423 1446 423 1446 449 1446 c 0,38,39
 493 1446 493 1446 534.5 1427.5 c 128,-1,40
 576 1409 576 1409 606.5 1382.5 c 128,-1,41
 637 1356 637 1356 664 1329.5 c 128,-1,42
 691 1303 691 1303 717.5 1284.5 c 128,-1,43
 744 1266 744 1266 767 1266 c 0,44,45
 781 1266 781 1266 792.5 1271 c 128,-1,46
 804 1276 804 1276 812 1282.5 c 128,-1,47
 820 1289 820 1289 827.5 1302.5 c 128,-1,48
 835 1316 835 1316 839 1326 c 128,-1,49
 843 1336 843 1336 848 1355 c 128,-1,50
 853 1374 853 1374 855 1384.5 c 128,-1,51
 857 1395 857 1395 861 1417.5 c 128,-1,52
 865 1440 865 1440 867 1448 c 1,0,-1
597 867 m 0,53,54
 474 867 474 867 382 772 c 128,-1,55
 290 677 290 677 290 511 c 0,56,57
 290 346 290 346 380 233 c 128,-1,58
 470 120 470 120 613 120 c 0,59,60
 745 120 745 120 833 220 c 128,-1,61
 921 320 921 320 921 481 c 0,62,63
 921 573 921 573 892.5 648 c 128,-1,64
 864 723 864 723 817.5 770 c 128,-1,65
 771 817 771 817 714 842 c 128,-1,66
 657 867 657 867 597 867 c 0,53,54
611 1007 m 0,67,68
 816 1007 816 1007 948.5 876 c 128,-1,69
 1081 745 1081 745 1081 514 c 0,70,71
 1081 269 1081 269 945.5 124.5 c 128,-1,72
 810 -20 810 -20 595 -20 c 0,73,74
 390 -20 390 -20 260 115.5 c 128,-1,75
 130 251 130 251 130 483 c 0,76,77
 130 722 130 722 262.5 864.5 c 128,-1,78
 395 1007 395 1007 611 1007 c 0,67,68
EndSplineSet
EndChar

StartChar: odieresis
Encoding: 246 246 184
Width: 1211
Flags: W
LayerCount: 2
Fore
SplineSet
611 1007 m 0,0,1
 816 1007 816 1007 948.5 876 c 128,-1,2
 1081 745 1081 745 1081 514 c 0,3,4
 1081 269 1081 269 945.5 124.5 c 128,-1,5
 810 -20 810 -20 595 -20 c 0,6,7
 390 -20 390 -20 260 115.5 c 128,-1,8
 130 251 130 251 130 483 c 0,9,10
 130 722 130 722 262.5 864.5 c 128,-1,11
 395 1007 395 1007 611 1007 c 0,0,1
597 867 m 0,12,13
 474 867 474 867 382 772 c 128,-1,14
 290 677 290 677 290 511 c 0,15,16
 290 346 290 346 380 233 c 128,-1,17
 470 120 470 120 613 120 c 0,18,19
 745 120 745 120 833 220 c 128,-1,20
 921 320 921 320 921 481 c 0,21,22
 921 573 921 573 892.5 648 c 128,-1,23
 864 723 864 723 817.5 770 c 128,-1,24
 771 817 771 817 714 842 c 128,-1,25
 657 867 657 867 597 867 c 0,12,13
319 1421 m 1,26,-1
 504 1421 l 1,27,-1
 504 1235 l 1,28,-1
 319 1235 l 1,29,-1
 319 1421 l 1,26,-1
768 1421 m 1,30,-1
 953 1421 l 1,31,-1
 953 1235 l 1,32,-1
 768 1235 l 1,33,-1
 768 1421 l 1,30,-1
EndSplineSet
EndChar

StartChar: divide
Encoding: 247 247 185
Width: 1400
Flags: W
LayerCount: 2
Fore
SplineSet
602 1233 m 1,0,-1
 797 1233 l 1,1,-1
 797 1038 l 1,2,-1
 602 1038 l 1,3,-1
 602 1233 l 1,0,-1
602 278 m 1,4,-1
 797 278 l 1,5,-1
 797 83 l 1,6,-1
 602 83 l 1,7,-1
 602 278 l 1,4,-1
125 727 m 1,8,-1
 1275 727 l 1,9,-1
 1275 588 l 1,10,-1
 125 588 l 1,11,-1
 125 727 l 1,8,-1
EndSplineSet
EndChar

StartChar: oslash
Encoding: 248 248 186
Width: 1211
Flags: W
LayerCount: 2
Fore
SplineSet
1041 995 m 1,0,-1
 1099 939 l 1,1,-1
 990 827 l 1,2,3
 1081 701 1081 701 1081 514 c 0,4,5
 1081 269 1081 269 945.5 124.5 c 128,-1,6
 810 -20 810 -20 595 -20 c 0,7,8
 403 -20 403 -20 278 97 c 1,9,-1
 168 -15 l 1,10,-1
 110 41 l 1,11,-1
 224 158 l 1,12,13
 130 288 130 288 130 483 c 0,14,15
 130 722 130 722 262.5 864.5 c 128,-1,16
 395 1007 395 1007 611 1007 c 0,17,18
 808 1007 808 1007 936 888 c 1,19,-1
 1041 995 l 1,0,-1
597 867 m 0,20,21
 474 867 474 867 382 772 c 128,-1,22
 290 677 290 677 290 511 c 0,23,24
 290 383 290 383 346 283 c 1,25,-1
 819 768 l 1,26,27
 726 867 726 867 597 867 c 0,20,21
868 702 m 1,28,-1
 394 217 l 1,29,30
 483 120 483 120 613 120 c 0,31,32
 745 120 745 120 833 220 c 128,-1,33
 921 320 921 320 921 481 c 0,34,35
 921 609 921 609 868 702 c 1,28,-1
EndSplineSet
EndChar

StartChar: ugrave
Encoding: 249 249 187
Width: 1177
Flags: W
LayerCount: 2
Fore
SplineSet
833 988 m 1,0,-1
 997 988 l 1,1,-1
 997 0 l 1,2,-1
 882 0 l 1,3,-1
 847 83 l 1,4,5
 658 -20 658 -20 498 -20 c 0,6,7
 417 -20 417 -20 357 5.5 c 128,-1,8
 297 31 297 31 264 69 c 128,-1,9
 231 107 231 107 211 165.5 c 128,-1,10
 191 224 191 224 185.5 277 c 128,-1,11
 180 330 180 330 180 398 c 2,12,-1
 180 988 l 1,13,-1
 344 988 l 1,14,-1
 344 386 l 2,15,16
 344 127 344 127 569 127 c 0,17,18
 685 127 685 127 833 204 c 1,19,-1
 833 988 l 1,0,-1
477 1549 m 1,20,-1
 841 1225 l 1,21,-1
 761 1125 l 1,22,-1
 385 1440 l 1,23,-1
 477 1549 l 1,20,-1
EndSplineSet
EndChar

StartChar: uacute
Encoding: 250 250 188
Width: 1177
Flags: W
LayerCount: 2
Fore
SplineSet
833 988 m 1,0,-1
 997 988 l 1,1,-1
 997 0 l 1,2,-1
 882 0 l 1,3,-1
 847 83 l 1,4,5
 658 -20 658 -20 498 -20 c 0,6,7
 417 -20 417 -20 357 5.5 c 128,-1,8
 297 31 297 31 264 69 c 128,-1,9
 231 107 231 107 211 165.5 c 128,-1,10
 191 224 191 224 185.5 277 c 128,-1,11
 180 330 180 330 180 398 c 2,12,-1
 180 988 l 1,13,-1
 344 988 l 1,14,-1
 344 386 l 2,15,16
 344 127 344 127 569 127 c 0,17,18
 685 127 685 127 833 204 c 1,19,-1
 833 988 l 1,0,-1
766 1549 m 1,20,-1
 858 1440 l 1,21,-1
 482 1125 l 1,22,-1
 402 1225 l 1,23,-1
 766 1549 l 1,20,-1
EndSplineSet
EndChar

StartChar: ucircumflex
Encoding: 251 251 189
Width: 1177
Flags: W
LayerCount: 2
Fore
SplineSet
833 988 m 1,0,-1
 997 988 l 1,1,-1
 997 0 l 1,2,-1
 882 0 l 1,3,-1
 847 83 l 1,4,5
 658 -20 658 -20 498 -20 c 0,6,7
 417 -20 417 -20 357 5.5 c 128,-1,8
 297 31 297 31 264 69 c 128,-1,9
 231 107 231 107 211 165.5 c 128,-1,10
 191 224 191 224 185.5 277 c 128,-1,11
 180 330 180 330 180 398 c 2,12,-1
 180 988 l 1,13,-1
 344 988 l 1,14,-1
 344 386 l 2,15,16
 344 127 344 127 569 127 c 0,17,18
 685 127 685 127 833 204 c 1,19,-1
 833 988 l 1,0,-1
611 1490 m 1,20,-1
 867 1204 l 1,21,-1
 774 1116 l 1,22,-1
 598 1312 l 1,23,-1
 417 1117 l 1,24,-1
 329 1195 l 1,25,-1
 611 1490 l 1,20,-1
EndSplineSet
EndChar

StartChar: udieresis
Encoding: 252 252 190
Width: 1177
Flags: W
LayerCount: 2
Fore
SplineSet
833 988 m 1,0,-1
 997 988 l 1,1,-1
 997 0 l 1,2,-1
 882 0 l 1,3,-1
 847 83 l 1,4,5
 658 -20 658 -20 498 -20 c 0,6,7
 417 -20 417 -20 357 5.5 c 128,-1,8
 297 31 297 31 264 69 c 128,-1,9
 231 107 231 107 211 165.5 c 128,-1,10
 191 224 191 224 185.5 277 c 128,-1,11
 180 330 180 330 180 398 c 2,12,-1
 180 988 l 1,13,-1
 344 988 l 1,14,-1
 344 386 l 2,15,16
 344 127 344 127 569 127 c 0,17,18
 685 127 685 127 833 204 c 1,19,-1
 833 988 l 1,0,-1
276 1421 m 1,20,-1
 461 1421 l 1,21,-1
 461 1235 l 1,22,-1
 276 1235 l 1,23,-1
 276 1421 l 1,20,-1
724 1421 m 1,24,-1
 909 1421 l 1,25,-1
 909 1235 l 1,26,-1
 724 1235 l 1,27,-1
 724 1421 l 1,24,-1
EndSplineSet
EndChar

StartChar: yacute
Encoding: 253 253 191
Width: 1050
Flags: W
LayerCount: 2
Fore
SplineSet
50 988 m 1,0,-1
 220 988 l 1,1,-1
 536 150 l 1,2,-1
 830 988 l 1,3,-1
 1000 988 l 1,4,-1
 430 -531 l 1,5,-1
 255 -531 l 1,6,-1
 458 -38 l 1,7,-1
 50 988 l 1,0,-1
766 1549 m 1,8,-1
 858 1440 l 1,9,-1
 482 1125 l 1,10,-1
 402 1225 l 1,11,-1
 766 1549 l 1,8,-1
EndSplineSet
EndChar

StartChar: thorn
Encoding: 254 254 192
Width: 1221
Flags: W
LayerCount: 2
Fore
SplineSet
611 862 m 0,0,1
 544 862 544 862 494.5 837 c 128,-1,2
 445 812 445 812 417 774.5 c 128,-1,3
 389 737 389 737 372 682 c 128,-1,4
 355 627 355 627 350 577 c 128,-1,5
 345 527 345 527 345 467 c 0,6,7
 345 117 345 117 615 117 c 0,8,9
 655 117 655 117 696.5 128 c 128,-1,10
 738 139 738 139 780.5 166.5 c 128,-1,11
 823 194 823 194 856 234 c 128,-1,12
 889 274 889 274 910 338 c 128,-1,13
 931 402 931 402 931 481 c 0,14,15
 931 572 931 572 903 646 c 128,-1,16
 875 720 875 720 828.5 766 c 128,-1,17
 782 812 782 812 726 837 c 128,-1,18
 670 862 670 862 611 862 c 0,0,1
639 1003 m 0,19,20
 731 1003 731 1003 813 969 c 128,-1,21
 895 935 895 935 957 873.5 c 128,-1,22
 1019 812 1019 812 1055 718 c 128,-1,23
 1091 624 1091 624 1091 510 c 0,24,25
 1091 279 1091 279 959.5 128 c 128,-1,26
 828 -23 828 -23 630 -23 c 0,27,28
 469 -23 469 -23 354 84 c 1,29,-1
 354 -531 l 1,30,-1
 190 -531 l 1,31,-1
 190 1421 l 1,32,-1
 354 1421 l 1,33,-1
 354 885 l 1,34,35
 459 1003 459 1003 639 1003 c 0,19,20
EndSplineSet
EndChar

StartChar: ydieresis
Encoding: 255 255 193
Width: 1050
Flags: W
LayerCount: 2
Fore
SplineSet
50 988 m 1,0,-1
 220 988 l 1,1,-1
 536 150 l 1,2,-1
 830 988 l 1,3,-1
 1000 988 l 1,4,-1
 430 -531 l 1,5,-1
 255 -531 l 1,6,-1
 458 -38 l 1,7,-1
 50 988 l 1,0,-1
221 1421 m 1,8,-1
 406 1421 l 1,9,-1
 406 1235 l 1,10,-1
 221 1235 l 1,11,-1
 221 1421 l 1,8,-1
670 1421 m 1,12,-1
 855 1421 l 1,13,-1
 855 1235 l 1,14,-1
 670 1235 l 1,15,-1
 670 1421 l 1,12,-1
EndSplineSet
EndChar

StartChar: Amacron
Encoding: 256 256 194
Width: 1383
Flags: W
LayerCount: 2
Fore
SplineSet
635 1421 m 1,0,-1
 828 1421 l 1,1,-1
 1333 0 l 1,2,-1
 1161 0 l 1,3,-1
 1017 413 l 1,4,-1
 431 413 l 1,5,-1
 287 0 l 1,6,-1
 130 0 l 1,7,-1
 635 1421 l 1,0,-1
724 1255 m 1,8,-1
 482 562 l 1,9,-1
 965 562 l 1,10,-1
 724 1255 l 1,8,-1
364 1697 m 1,11,-1
 1104 1697 l 1,12,-1
 1104 1568 l 1,13,-1
 364 1568 l 1,14,-1
 364 1697 l 1,11,-1
EndSplineSet
EndChar

StartChar: amacron
Encoding: 257 257 195
Width: 1069
Flags: W
LayerCount: 2
Fore
SplineSet
265 1333 m 1,0,-1
 797 1333 l 1,1,-1
 797 1204 l 1,2,-1
 265 1204 l 1,3,-1
 265 1333 l 1,0,-1
724 437 m 1,4,-1
 663 437 l 2,5,6
 606 437 606 437 564 435 c 128,-1,7
 522 433 522 433 465.5 423.5 c 128,-1,8
 409 414 409 414 373 397 c 128,-1,9
 337 380 337 380 311.5 347.5 c 128,-1,10
 286 315 286 315 286 270 c 0,11,12
 286 207 286 207 349.5 158 c 128,-1,13
 413 109 413 109 501 109 c 0,14,15
 630 109 630 109 724 210 c 1,16,-1
 724 437 l 1,4,-1
507 1007 m 0,17,18
 617 1007 617 1007 694 981 c 128,-1,19
 771 955 771 955 812.5 905.5 c 128,-1,20
 854 856 854 856 871.5 795.5 c 128,-1,21
 889 735 889 735 889 656 c 2,22,-1
 889 0 l 1,23,-1
 773 0 l 1,24,-1
 735 90 l 1,25,26
 614 -20 614 -20 457 -20 c 0,27,28
 317 -20 317 -20 220 64.5 c 128,-1,29
 123 149 123 149 123 262 c 0,30,31
 123 322 123 322 145 370 c 128,-1,32
 167 418 167 418 208.5 450 c 128,-1,33
 250 482 250 482 303 504.5 c 128,-1,34
 356 527 356 527 426.5 539 c 128,-1,35
 497 551 497 551 568 556 c 128,-1,36
 639 561 639 561 724 561 c 1,37,-1
 724 639 l 2,38,39
 724 673 724 673 721.5 698 c 128,-1,40
 719 723 719 723 705 758 c 128,-1,41
 691 793 691 793 667 815.5 c 128,-1,42
 643 838 643 838 595 854.5 c 128,-1,43
 547 871 547 871 481 871 c 0,44,45
 379 871 379 871 217 826 c 1,46,-1
 186 946 l 1,47,48
 350 1007 350 1007 507 1007 c 0,17,18
EndSplineSet
EndChar

StartChar: Abreve
Encoding: 258 258 196
Width: 1383
Flags: W
LayerCount: 2
Fore
SplineSet
358 1816 m 1,0,-1
 482 1882 l 1,1,2
 518 1807 518 1807 582 1751 c 128,-1,3
 646 1695 646 1695 734 1695 c 0,4,5
 815 1695 815 1695 892.5 1749.5 c 128,-1,6
 970 1804 970 1804 1029 1882 c 1,7,-1
 1142 1805 l 1,8,9
 1062 1698 1062 1698 949.5 1627.5 c 128,-1,10
 837 1557 837 1557 718 1557 c 0,11,12
 587 1557 587 1557 492 1633.5 c 128,-1,13
 397 1710 397 1710 358 1816 c 1,0,-1
724 1255 m 1,14,-1
 482 562 l 1,15,-1
 965 562 l 1,16,-1
 724 1255 l 1,14,-1
635 1421 m 1,17,-1
 828 1421 l 1,18,-1
 1333 0 l 1,19,-1
 1161 0 l 1,20,-1
 1017 413 l 1,21,-1
 431 413 l 1,22,-1
 287 0 l 1,23,-1
 130 0 l 1,24,-1
 635 1421 l 1,17,-1
EndSplineSet
EndChar

StartChar: abreve
Encoding: 259 259 197
Width: 1069
Flags: W
LayerCount: 2
Fore
SplineSet
172 1382 m 1,0,-1
 295 1448 l 1,1,2
 331 1373 331 1373 395 1317 c 128,-1,3
 459 1261 459 1261 547 1261 c 0,4,5
 628 1261 628 1261 705.5 1315.5 c 128,-1,6
 783 1370 783 1370 842 1448 c 1,7,-1
 955 1371 l 1,8,9
 875 1264 875 1264 762.5 1193.5 c 128,-1,10
 650 1123 650 1123 531 1123 c 0,11,12
 400 1123 400 1123 305.5 1199.5 c 128,-1,13
 211 1276 211 1276 172 1382 c 1,0,-1
724 437 m 1,14,-1
 663 437 l 2,15,16
 617 437 617 437 581.5 435.5 c 128,-1,17
 546 434 546 434 498.5 429 c 128,-1,18
 451 424 451 424 417 412.5 c 128,-1,19
 383 401 383 401 351.5 383.5 c 128,-1,20
 320 366 320 366 303.5 337 c 128,-1,21
 287 308 287 308 287 270 c 0,22,23
 287 207 287 207 350 158 c 128,-1,24
 413 109 413 109 501 109 c 0,25,26
 630 109 630 109 724 210 c 1,27,-1
 724 437 l 1,14,-1
507 1006 m 0,28,29
 618 1006 618 1006 694.5 980 c 128,-1,30
 771 954 771 954 812.5 904.5 c 128,-1,31
 854 855 854 855 871.5 795 c 128,-1,32
 889 735 889 735 889 656 c 2,33,-1
 889 0 l 1,34,-1
 773 0 l 1,35,-1
 735 90 l 1,36,37
 614 -20 614 -20 457 -20 c 0,38,39
 317 -20 317 -20 220 64.5 c 128,-1,40
 123 149 123 149 123 262 c 0,41,42
 123 334 123 334 155.5 388 c 128,-1,43
 188 442 188 442 241.5 474.5 c 128,-1,44
 295 507 295 507 375 526.5 c 128,-1,45
 455 546 455 546 537.5 553 c 128,-1,46
 620 560 620 560 724 560 c 1,47,-1
 724 639 l 2,48,49
 724 673 724 673 721.5 698 c 128,-1,50
 719 723 719 723 705 758 c 128,-1,51
 691 793 691 793 667 815.5 c 128,-1,52
 643 838 643 838 595 854.5 c 128,-1,53
 547 871 547 871 481 871 c 0,54,55
 379 871 379 871 217 826 c 1,56,-1
 186 946 l 1,57,58
 347 1006 347 1006 507 1006 c 0,28,29
EndSplineSet
EndChar

StartChar: Aogonek
Encoding: 260 260 198
Width: 1383
Flags: W
LayerCount: 2
Fore
SplineSet
635 1421 m 1,0,-1
 828 1421 l 1,1,-1
 1333 0 l 1,2,3
 1233 0 1233 0 1155 -30 c 128,-1,4
 1077 -60 1077 -60 1036 -100.5 c 128,-1,5
 995 -141 995 -141 968.5 -188 c 128,-1,6
 942 -235 942 -235 935 -263.5 c 128,-1,7
 928 -292 928 -292 928 -304 c 0,8,9
 928 -346 928 -346 953.5 -378 c 128,-1,10
 979 -410 979 -410 1032 -410 c 0,11,12
 1100 -410 1100 -410 1198 -352 c 1,13,-1
 1246 -442 l 1,14,15
 1107 -544 1107 -544 986 -544 c 0,16,17
 898 -544 898 -544 840.5 -487.5 c 128,-1,18
 783 -431 783 -431 783 -341 c 0,19,20
 783 -215 783 -215 893 -90 c 128,-1,21
 1003 35 1003 35 1134 78 c 1,22,-1
 1017 413 l 1,23,-1
 431 413 l 1,24,-1
 287 0 l 1,25,-1
 130 0 l 1,26,-1
 635 1421 l 1,0,-1
724 1255 m 1,27,-1
 482 562 l 1,28,-1
 965 562 l 1,29,-1
 724 1255 l 1,27,-1
EndSplineSet
EndChar

StartChar: aogonek
Encoding: 261 261 199
Width: 1069
Flags: W
LayerCount: 2
Fore
SplineSet
481 859 m 0,0,1
 379 859 379 859 217 814 c 1,2,-1
 186 934 l 1,3,4
 347 994 347 994 507 994 c 0,5,6
 618 994 618 994 695 968 c 128,-1,7
 772 942 772 942 813 892.5 c 128,-1,8
 854 843 854 843 871.5 783 c 128,-1,9
 889 723 889 723 889 644 c 2,10,-1
 889 -45 l 1,11,12
 873 -53 873 -53 839.5 -70 c 128,-1,13
 806 -87 806 -87 790 -95 c 128,-1,14
 774 -103 774 -103 745 -119 c 128,-1,15
 716 -135 716 -135 701.5 -144 c 128,-1,16
 687 -153 687 -153 664 -168.5 c 128,-1,17
 641 -184 641 -184 629 -195.5 c 128,-1,18
 617 -207 617 -207 602 -223 c 128,-1,19
 587 -239 587 -239 580 -253 c 128,-1,20
 573 -267 573 -267 568 -284.5 c 128,-1,21
 563 -302 563 -302 563 -320 c 0,22,23
 563 -365 563 -365 593 -393.5 c 128,-1,24
 623 -422 623 -422 670 -422 c 0,25,26
 731 -422 731 -422 833 -366 c 1,27,-1
 881 -449 l 1,28,29
 737 -543 737 -543 620 -543 c 0,30,31
 531 -543 531 -543 475 -489 c 128,-1,32
 419 -435 419 -435 419 -352 c 0,33,34
 419 -296 419 -296 447.5 -242.5 c 128,-1,35
 476 -189 476 -189 514 -152.5 c 128,-1,36
 552 -116 552 -116 605.5 -81 c 128,-1,37
 659 -46 659 -46 692 -29 c 128,-1,38
 725 -12 725 -12 762 5 c 0,39,40
 767 7 767 7 769 8 c 1,41,-1
 736 85 l 1,42,43
 586 -17 586 -17 444 -17 c 0,44,45
 312 -17 312 -17 217.5 67 c 128,-1,46
 123 151 123 151 123 262 c 0,47,48
 123 300 123 300 136 337.5 c 128,-1,49
 149 375 149 375 177 414 c 128,-1,50
 205 453 205 453 259 484.5 c 128,-1,51
 313 516 313 516 386 533 c 0,52,53
 507 561 507 561 724 561 c 1,54,-1
 724 627 l 2,55,56
 724 661 724 661 721.5 686 c 128,-1,57
 719 711 719 711 705 746 c 128,-1,58
 691 781 691 781 667 803.5 c 128,-1,59
 643 826 643 826 595 842.5 c 128,-1,60
 547 859 547 859 481 859 c 0,0,1
490 117 m 0,61,62
 615 117 615 117 724 200 c 1,63,-1
 724 437 l 1,64,-1
 684 437 l 2,65,66
 533 437 533 437 452.5 424 c 128,-1,67
 372 411 372 411 325 362 c 0,68,69
 287 322 287 322 287 269 c 0,70,71
 287 207 287 207 344 162 c 128,-1,72
 401 117 401 117 490 117 c 0,61,62
EndSplineSet
EndChar

StartChar: Cacute
Encoding: 262 262 200
Width: 1451
Flags: W
LayerCount: 2
Fore
SplineSet
1073 1976 m 1,0,-1
 1143 1853 l 1,1,-1
 631 1558 l 1,2,-1
 569 1666 l 1,3,-1
 1073 1976 l 1,0,-1
275 709 m 0,4,5
 275 914 275 914 360.5 1077 c 128,-1,6
 446 1240 446 1240 609 1335.5 c 128,-1,7
 772 1431 772 1431 986 1431 c 0,8,9
 1180 1431 1180 1431 1372 1355 c 1,10,-1
 1320 1214 l 1,11,12
 1126 1281 1126 1281 981 1281 c 0,13,14
 861 1281 861 1281 758.5 1233.5 c 128,-1,15
 656 1186 656 1186 588.5 1106.5 c 128,-1,16
 521 1027 521 1027 483 924.5 c 128,-1,17
 445 822 445 822 445 710 c 0,18,19
 445 594 445 594 485.5 489.5 c 128,-1,20
 526 385 526 385 599 306.5 c 128,-1,21
 672 228 672 228 780.5 182 c 128,-1,22
 889 136 889 136 1018 136 c 0,23,24
 1172 136 1172 136 1339 196 c 1,25,-1
 1391 70 l 1,26,27
 1182 -20 1182 -20 975 -20 c 0,28,29
 847 -20 847 -20 735 17 c 128,-1,30
 623 54 623 54 539.5 120.5 c 128,-1,31
 456 187 456 187 396 278 c 128,-1,32
 336 369 336 369 305.5 478.5 c 128,-1,33
 275 588 275 588 275 709 c 0,4,5
EndSplineSet
EndChar

StartChar: cacute
Encoding: 263 263 201
Width: 1001
Flags: W
LayerCount: 2
Fore
SplineSet
130 471 m 0,0,1
 130 588 130 588 158 681.5 c 128,-1,2
 186 775 186 775 232.5 834.5 c 128,-1,3
 279 894 279 894 342 933.5 c 128,-1,4
 405 973 405 973 471 989.5 c 128,-1,5
 537 1006 537 1006 609 1006 c 0,6,7
 751 1006 751 1006 886 947 c 1,8,-1
 846 827 l 1,9,10
 735 865 735 865 629 865 c 0,11,12
 577 865 577 865 531 855.5 c 128,-1,13
 485 846 485 846 439.5 821 c 128,-1,14
 394 796 394 796 361.5 756.5 c 128,-1,15
 329 717 329 717 309 653 c 128,-1,16
 289 589 289 589 289 506 c 0,17,18
 289 415 289 415 310 345.5 c 128,-1,19
 331 276 331 276 365 233 c 128,-1,20
 399 190 399 190 446.5 163 c 128,-1,21
 494 136 494 136 542.5 125.5 c 128,-1,22
 591 115 591 115 647 115 c 0,23,24
 741 115 741 115 835 148 c 1,25,-1
 875 35 l 1,26,27
 733 -20 733 -20 590 -20 c 0,28,29
 524 -20 524 -20 463.5 -7 c 128,-1,30
 403 6 403 6 340.5 40.5 c 128,-1,31
 278 75 278 75 232.5 128 c 128,-1,32
 187 181 187 181 158.5 269.5 c 128,-1,33
 130 358 130 358 130 471 c 0,0,1
686 1549 m 1,34,-1
 778 1440 l 1,35,-1
 402 1125 l 1,36,-1
 322 1225 l 1,37,-1
 686 1549 l 1,34,-1
EndSplineSet
EndChar

StartChar: Ccircumflex
Encoding: 264 264 202
Width: 1451
Flags: W
LayerCount: 2
Fore
SplineSet
275 709 m 0,0,1
 275 914 275 914 360.5 1077 c 128,-1,2
 446 1240 446 1240 609 1335.5 c 128,-1,3
 772 1431 772 1431 986 1431 c 0,4,5
 1180 1431 1180 1431 1372 1355 c 1,6,-1
 1320 1214 l 1,7,8
 1126 1281 1126 1281 981 1281 c 0,9,10
 861 1281 861 1281 758.5 1233.5 c 128,-1,11
 656 1186 656 1186 588.5 1106.5 c 128,-1,12
 521 1027 521 1027 483 924.5 c 128,-1,13
 445 822 445 822 445 710 c 0,14,15
 445 594 445 594 485.5 489.5 c 128,-1,16
 526 385 526 385 599 306.5 c 128,-1,17
 672 228 672 228 780.5 182 c 128,-1,18
 889 136 889 136 1018 136 c 0,19,20
 1172 136 1172 136 1339 196 c 1,21,-1
 1391 70 l 1,22,23
 1182 -20 1182 -20 975 -20 c 0,24,25
 847 -20 847 -20 735 17 c 128,-1,26
 623 54 623 54 539.5 120.5 c 128,-1,27
 456 187 456 187 396 278 c 128,-1,28
 336 369 336 369 305.5 478.5 c 128,-1,29
 275 588 275 588 275 709 c 0,0,1
846 1932 m 1,30,-1
 1102 1646 l 1,31,-1
 1009 1558 l 1,32,-1
 833 1754 l 1,33,-1
 652 1559 l 1,34,-1
 564 1637 l 1,35,-1
 846 1932 l 1,30,-1
EndSplineSet
EndChar

StartChar: ccircumflex
Encoding: 265 265 203
Width: 1001
Flags: W
LayerCount: 2
Fore
SplineSet
130 471 m 0,0,1
 130 588 130 588 158 681.5 c 128,-1,2
 186 775 186 775 232.5 834.5 c 128,-1,3
 279 894 279 894 342 933.5 c 128,-1,4
 405 973 405 973 471 989.5 c 128,-1,5
 537 1006 537 1006 609 1006 c 0,6,7
 751 1006 751 1006 886 947 c 1,8,-1
 846 827 l 1,9,10
 735 865 735 865 629 865 c 0,11,12
 577 865 577 865 531 855.5 c 128,-1,13
 485 846 485 846 439.5 821 c 128,-1,14
 394 796 394 796 361.5 756.5 c 128,-1,15
 329 717 329 717 309 653 c 128,-1,16
 289 589 289 589 289 506 c 0,17,18
 289 415 289 415 310 345.5 c 128,-1,19
 331 276 331 276 365 233 c 128,-1,20
 399 190 399 190 446.5 163 c 128,-1,21
 494 136 494 136 542.5 125.5 c 128,-1,22
 591 115 591 115 647 115 c 0,23,24
 741 115 741 115 835 148 c 1,25,-1
 875 35 l 1,26,27
 733 -20 733 -20 590 -20 c 0,28,29
 524 -20 524 -20 463.5 -7 c 128,-1,30
 403 6 403 6 340.5 40.5 c 128,-1,31
 278 75 278 75 232.5 128 c 128,-1,32
 187 181 187 181 158.5 269.5 c 128,-1,33
 130 358 130 358 130 471 c 0,0,1
567 1498 m 1,34,-1
 823 1212 l 1,35,-1
 730 1124 l 1,36,-1
 554 1320 l 1,37,-1
 373 1125 l 1,38,-1
 285 1203 l 1,39,-1
 567 1498 l 1,34,-1
EndSplineSet
EndChar

StartChar: Cdotaccent
Encoding: 266 266 204
Width: 1451
Flags: W
LayerCount: 2
Fore
SplineSet
754 1829 m 1,0,-1
 964 1829 l 1,1,-1
 964 1619 l 1,2,-1
 754 1619 l 1,3,-1
 754 1829 l 1,0,-1
275 709 m 0,4,5
 275 914 275 914 360.5 1077 c 128,-1,6
 446 1240 446 1240 609 1335.5 c 128,-1,7
 772 1431 772 1431 986 1431 c 0,8,9
 1180 1431 1180 1431 1372 1355 c 1,10,-1
 1320 1214 l 1,11,12
 1126 1281 1126 1281 981 1281 c 0,13,14
 861 1281 861 1281 758.5 1233.5 c 128,-1,15
 656 1186 656 1186 588.5 1106.5 c 128,-1,16
 521 1027 521 1027 483 924.5 c 128,-1,17
 445 822 445 822 445 710 c 0,18,19
 445 594 445 594 485.5 489.5 c 128,-1,20
 526 385 526 385 599 306.5 c 128,-1,21
 672 228 672 228 780.5 182 c 128,-1,22
 889 136 889 136 1018 136 c 0,23,24
 1172 136 1172 136 1339 196 c 1,25,-1
 1391 70 l 1,26,27
 1182 -20 1182 -20 975 -20 c 0,28,29
 847 -20 847 -20 735 17 c 128,-1,30
 623 54 623 54 539.5 120.5 c 128,-1,31
 456 187 456 187 396 278 c 128,-1,32
 336 369 336 369 305.5 478.5 c 128,-1,33
 275 588 275 588 275 709 c 0,4,5
EndSplineSet
EndChar

StartChar: cdotaccent
Encoding: 267 267 205
Width: 1001
Flags: W
LayerCount: 2
Fore
SplineSet
130 471 m 0,0,1
 130 588 130 588 158 681.5 c 128,-1,2
 186 775 186 775 232.5 834.5 c 128,-1,3
 279 894 279 894 342 933.5 c 128,-1,4
 405 973 405 973 471 989.5 c 128,-1,5
 537 1006 537 1006 609 1006 c 0,6,7
 751 1006 751 1006 886 947 c 1,8,-1
 846 827 l 1,9,10
 735 865 735 865 629 865 c 0,11,12
 577 865 577 865 531 855.5 c 128,-1,13
 485 846 485 846 439.5 821 c 128,-1,14
 394 796 394 796 361.5 756.5 c 128,-1,15
 329 717 329 717 309 653 c 128,-1,16
 289 589 289 589 289 506 c 0,17,18
 289 415 289 415 310 345.5 c 128,-1,19
 331 276 331 276 365 233 c 128,-1,20
 399 190 399 190 446.5 163 c 128,-1,21
 494 136 494 136 542.5 125.5 c 128,-1,22
 591 115 591 115 647 115 c 0,23,24
 741 115 741 115 835 148 c 1,25,-1
 875 35 l 1,26,27
 733 -20 733 -20 590 -20 c 0,28,29
 524 -20 524 -20 463.5 -7 c 128,-1,30
 403 6 403 6 340.5 40.5 c 128,-1,31
 278 75 278 75 232.5 128 c 128,-1,32
 187 181 187 181 158.5 269.5 c 128,-1,33
 130 358 130 358 130 471 c 0,0,1
505 1421 m 1,34,-1
 715 1421 l 1,35,-1
 715 1212 l 1,36,-1
 505 1212 l 1,37,-1
 505 1421 l 1,34,-1
EndSplineSet
EndChar

StartChar: Ccaron
Encoding: 268 268 206
Width: 1451
Flags: W
LayerCount: 2
Fore
SplineSet
275 709 m 0,0,1
 275 914 275 914 360.5 1077 c 128,-1,2
 446 1240 446 1240 609 1335.5 c 128,-1,3
 772 1431 772 1431 986 1431 c 0,4,5
 1180 1431 1180 1431 1372 1355 c 1,6,-1
 1320 1214 l 1,7,8
 1126 1281 1126 1281 981 1281 c 0,9,10
 861 1281 861 1281 758.5 1233.5 c 128,-1,11
 656 1186 656 1186 588.5 1106.5 c 128,-1,12
 521 1027 521 1027 483 924.5 c 128,-1,13
 445 822 445 822 445 710 c 0,14,15
 445 594 445 594 485.5 489.5 c 128,-1,16
 526 385 526 385 599 306.5 c 128,-1,17
 672 228 672 228 780.5 182 c 128,-1,18
 889 136 889 136 1018 136 c 0,19,20
 1172 136 1172 136 1339 196 c 1,21,-1
 1391 70 l 1,22,23
 1182 -20 1182 -20 975 -20 c 0,24,25
 847 -20 847 -20 735 17 c 128,-1,26
 623 54 623 54 539.5 120.5 c 128,-1,27
 456 187 456 187 396 278 c 128,-1,28
 336 369 336 369 305.5 478.5 c 128,-1,29
 275 588 275 588 275 709 c 0,0,1
890 1558 m 1,30,-1
 634 1844 l 1,31,-1
 727 1932 l 1,32,-1
 903 1736 l 1,33,-1
 1084 1931 l 1,34,-1
 1172 1853 l 1,35,-1
 890 1558 l 1,30,-1
EndSplineSet
EndChar

StartChar: ccaron
Encoding: 269 269 207
Width: 1001
Flags: W
LayerCount: 2
Fore
SplineSet
130 471 m 0,0,1
 130 588 130 588 158 681.5 c 128,-1,2
 186 775 186 775 232.5 834.5 c 128,-1,3
 279 894 279 894 342 933.5 c 128,-1,4
 405 973 405 973 471 989.5 c 128,-1,5
 537 1006 537 1006 609 1006 c 0,6,7
 751 1006 751 1006 886 947 c 1,8,-1
 846 827 l 1,9,10
 735 865 735 865 629 865 c 0,11,12
 577 865 577 865 531 855.5 c 128,-1,13
 485 846 485 846 439.5 821 c 128,-1,14
 394 796 394 796 361.5 756.5 c 128,-1,15
 329 717 329 717 309 653 c 128,-1,16
 289 589 289 589 289 506 c 0,17,18
 289 415 289 415 310 345.5 c 128,-1,19
 331 276 331 276 365 233 c 128,-1,20
 399 190 399 190 446.5 163 c 128,-1,21
 494 136 494 136 542.5 125.5 c 128,-1,22
 591 115 591 115 647 115 c 0,23,24
 741 115 741 115 835 148 c 1,25,-1
 875 35 l 1,26,27
 733 -20 733 -20 590 -20 c 0,28,29
 524 -20 524 -20 463.5 -7 c 128,-1,30
 403 6 403 6 340.5 40.5 c 128,-1,31
 278 75 278 75 232.5 128 c 128,-1,32
 187 181 187 181 158.5 269.5 c 128,-1,33
 130 358 130 358 130 471 c 0,0,1
541 1124 m 1,34,-1
 285 1410 l 1,35,-1
 378 1498 l 1,36,-1
 553 1302 l 1,37,-1
 735 1497 l 1,38,-1
 823 1421 l 1,39,-1
 541 1124 l 1,34,-1
EndSplineSet
EndChar

StartChar: Dcaron
Encoding: 270 270 208
Width: 1605
Flags: W
LayerCount: 2
Fore
SplineSet
731 1421 m 2,0,1
 850 1421 850 1421 950.5 1400 c 128,-1,2
 1051 1379 1051 1379 1123.5 1342.5 c 128,-1,3
 1196 1306 1196 1306 1252.5 1254.5 c 128,-1,4
 1309 1203 1309 1203 1345 1145.5 c 128,-1,5
 1381 1088 1381 1088 1404 1020 c 128,-1,6
 1427 952 1427 952 1436.5 887.5 c 128,-1,7
 1446 823 1446 823 1446 754 c 0,8,9
 1446 661 1446 661 1432 575 c 128,-1,10
 1418 489 1418 489 1383.5 400 c 128,-1,11
 1349 311 1349 311 1295.5 240.5 c 128,-1,12
 1242 170 1242 170 1157 113.5 c 128,-1,13
 1072 57 1072 57 964 30 c 0,14,15
 908 16 908 16 839 9 c 128,-1,16
 770 2 770 2 725 1 c 128,-1,17
 680 0 680 0 598 0 c 2,18,-1
 290 0 l 1,19,-1
 290 1421 l 1,20,-1
 731 1421 l 2,0,1
460 1271 m 1,21,-1
 460 150 l 1,22,-1
 667 150 l 2,23,24
 712 150 712 150 741.5 151 c 128,-1,25
 771 152 771 152 821.5 157 c 128,-1,26
 872 162 872 162 908.5 172 c 128,-1,27
 945 182 945 182 991.5 201 c 128,-1,28
 1038 220 1038 220 1074 247 c 128,-1,29
 1110 274 1110 274 1146 316 c 128,-1,30
 1182 358 1182 358 1209 411 c 0,31,32
 1275 538 1275 538 1275 720 c 0,33,34
 1275 846 1275 846 1238.5 947.5 c 128,-1,35
 1202 1049 1202 1049 1141.5 1112.5 c 128,-1,36
 1081 1176 1081 1176 1012.5 1213 c 128,-1,37
 944 1250 944 1250 869 1263 c 0,38,39
 825 1271 825 1271 736 1271 c 2,40,-1
 460 1271 l 1,21,-1
844 1558 m 1,41,-1
 588 1844 l 1,42,-1
 681 1932 l 1,43,-1
 857 1736 l 1,44,-1
 1038 1931 l 1,45,-1
 1126 1853 l 1,46,-1
 844 1558 l 1,41,-1
EndSplineSet
EndChar

StartChar: dcaron
Encoding: 271 271 209
Width: 1424
Flags: W
LayerCount: 2
Fore
SplineSet
1209 1511 m 1,0,-1
 1374 1511 l 1,1,-1
 1256 1121 l 1,2,-1
 1091 1121 l 1,3,-1
 1209 1511 l 1,0,-1
130 477 m 0,4,5
 130 605 130 605 166 707 c 128,-1,6
 202 809 202 809 265 874 c 128,-1,7
 328 939 328 939 412.5 973.5 c 128,-1,8
 497 1008 497 1008 595 1008 c 0,9,10
 713 1008 713 1008 834 955 c 1,11,-1
 834 1511 l 1,12,-1
 998 1511 l 1,13,-1
 998 0 l 1,14,-1
 884 0 l 1,15,-1
 857 62 l 1,16,17
 718 -20 718 -20 567 -20 c 0,18,19
 505 -20 505 -20 446 -5 c 128,-1,20
 387 10 387 10 329 47 c 128,-1,21
 271 84 271 84 227.5 139.5 c 128,-1,22
 184 195 184 195 157 282 c 128,-1,23
 130 369 130 369 130 477 c 0,4,5
621 115 m 0,24,25
 730 115 730 115 834 171 c 1,26,-1
 834 831 l 1,27,28
 727 879 727 879 619 879 c 0,29,30
 573 879 573 879 530 869 c 128,-1,31
 487 859 487 859 442 833 c 128,-1,32
 397 807 397 807 364.5 766 c 128,-1,33
 332 725 332 725 311 657.5 c 128,-1,34
 290 590 290 590 290 503 c 0,35,36
 290 413 290 413 312 342.5 c 128,-1,37
 334 272 334 272 368 230 c 128,-1,38
 402 188 402 188 448 161 c 128,-1,39
 494 134 494 134 536 124.5 c 128,-1,40
 578 115 578 115 621 115 c 0,24,25
EndSplineSet
EndChar

StartChar: Dcroat
Encoding: 272 272 210
Width: 1605
Flags: W
LayerCount: 2
Fore
SplineSet
776 1421 m 2,0,1
 895 1421 895 1421 995.5 1400 c 128,-1,2
 1096 1379 1096 1379 1168.5 1342.5 c 128,-1,3
 1241 1306 1241 1306 1297.5 1254.5 c 128,-1,4
 1354 1203 1354 1203 1390 1145.5 c 128,-1,5
 1426 1088 1426 1088 1449 1020 c 128,-1,6
 1472 952 1472 952 1481.5 887.5 c 128,-1,7
 1491 823 1491 823 1491 754 c 0,8,9
 1491 661 1491 661 1477 575 c 128,-1,10
 1463 489 1463 489 1428.5 400 c 128,-1,11
 1394 311 1394 311 1340.5 240.5 c 128,-1,12
 1287 170 1287 170 1202 113.5 c 128,-1,13
 1117 57 1117 57 1009 30 c 0,14,15
 953 16 953 16 884 9 c 128,-1,16
 815 2 815 2 770 1 c 128,-1,17
 725 0 725 0 643 0 c 2,18,-1
 335 0 l 1,19,-1
 335 658 l 1,20,-1
 117 658 l 1,21,-1
 117 808 l 1,22,-1
 335 808 l 1,23,-1
 335 1421 l 1,24,-1
 776 1421 l 2,0,1
505 658 m 1,25,-1
 505 150 l 1,26,-1
 712 150 l 2,27,28
 757 150 757 150 786.5 151 c 128,-1,29
 816 152 816 152 866.5 157 c 128,-1,30
 917 162 917 162 953.5 172 c 128,-1,31
 990 182 990 182 1036.5 201 c 128,-1,32
 1083 220 1083 220 1119 247 c 128,-1,33
 1155 274 1155 274 1191 316 c 128,-1,34
 1227 358 1227 358 1254 411 c 0,35,36
 1320 538 1320 538 1320 720 c 0,37,38
 1320 846 1320 846 1283.5 947.5 c 128,-1,39
 1247 1049 1247 1049 1186.5 1112.5 c 128,-1,40
 1126 1176 1126 1176 1057.5 1213 c 128,-1,41
 989 1250 989 1250 914 1263 c 0,42,43
 870 1271 870 1271 781 1271 c 2,44,-1
 505 1271 l 1,45,-1
 505 808 l 1,46,-1
 761 808 l 1,47,-1
 761 658 l 1,48,-1
 505 658 l 1,25,-1
EndSplineSet
EndChar

StartChar: dcroat
Encoding: 273 273 211
Width: 1238
Flags: W
LayerCount: 2
Fore
SplineSet
619 879 m 0,0,1
 573 879 573 879 530 869 c 128,-1,2
 487 859 487 859 442 833 c 128,-1,3
 397 807 397 807 364.5 766 c 128,-1,4
 332 725 332 725 311 657.5 c 128,-1,5
 290 590 290 590 290 503 c 0,6,7
 290 413 290 413 312 342.5 c 128,-1,8
 334 272 334 272 368 230 c 128,-1,9
 402 188 402 188 448 161 c 128,-1,10
 494 134 494 134 536 124.5 c 128,-1,11
 578 115 578 115 621 115 c 0,12,13
 730 115 730 115 834 171 c 1,14,-1
 834 831 l 1,15,16
 727 879 727 879 619 879 c 0,0,1
595 1008 m 0,17,18
 713 1008 713 1008 834 955 c 1,19,-1
 834 1177 l 1,20,-1
 566 1177 l 1,21,-1
 566 1306 l 1,22,-1
 834 1306 l 1,23,-1
 834 1511 l 1,24,-1
 998 1511 l 1,25,-1
 998 1306 l 1,26,-1
 1133 1306 l 1,27,-1
 1133 1177 l 1,28,-1
 998 1177 l 1,29,-1
 998 0 l 1,30,-1
 884 0 l 1,31,-1
 857 62 l 1,32,33
 718 -20 718 -20 567 -20 c 0,34,35
 505 -20 505 -20 446 -5 c 128,-1,36
 387 10 387 10 329 47 c 128,-1,37
 271 84 271 84 227.5 139.5 c 128,-1,38
 184 195 184 195 157 282 c 128,-1,39
 130 369 130 369 130 477 c 0,40,41
 130 605 130 605 166 707 c 128,-1,42
 202 809 202 809 265 874 c 128,-1,43
 328 939 328 939 412.5 973.5 c 128,-1,44
 497 1008 497 1008 595 1008 c 0,17,18
EndSplineSet
EndChar

StartChar: Emacron
Encoding: 274 274 212
Width: 1283
Flags: W
LayerCount: 2
Fore
SplineSet
290 0 m 1,0,-1
 290 1421 l 1,1,-1
 1123 1421 l 1,2,-1
 1123 1271 l 1,3,-1
 460 1271 l 1,4,-1
 460 807 l 1,5,-1
 1068 807 l 1,6,-1
 1068 657 l 1,7,-1
 460 657 l 1,8,-1
 460 150 l 1,9,-1
 1123 150 l 1,10,-1
 1123 0 l 1,11,-1
 290 0 l 1,0,-1
360 1697 m 1,12,-1
 1093 1697 l 1,13,-1
 1093 1568 l 1,14,-1
 360 1568 l 1,15,-1
 360 1697 l 1,12,-1
EndSplineSet
EndChar

StartChar: emacron
Encoding: 275 275 213
Width: 1102
Flags: W
LayerCount: 2
Fore
SplineSet
130 462 m 0,0,1
 130 573 130 573 157 665 c 128,-1,2
 184 757 184 757 230 819.5 c 128,-1,3
 276 882 276 882 337.5 925 c 128,-1,4
 399 968 399 968 466.5 987.5 c 128,-1,5
 534 1007 534 1007 605 1007 c 0,6,7
 677 1007 677 1007 734.5 989.5 c 128,-1,8
 792 972 792 972 830 945 c 128,-1,9
 868 918 868 918 895.5 874.5 c 128,-1,10
 923 831 923 831 937.5 790.5 c 128,-1,11
 952 750 952 750 960 693 c 128,-1,12
 968 636 968 636 970 594 c 128,-1,13
 972 552 972 552 972 495 c 2,14,-1
 972 417 l 1,15,-1
 293 417 l 1,16,17
 293 363 293 363 317.5 309.5 c 128,-1,18
 342 256 342 256 386.5 211.5 c 128,-1,19
 431 167 431 167 503.5 139 c 128,-1,20
 576 111 576 111 664 111 c 0,21,22
 768 111 768 111 889 147 c 1,23,-1
 918 35 l 1,24,25
 757 -20 757 -20 602 -20 c 0,26,27
 493 -20 493 -20 408.5 9 c 128,-1,28
 324 38 324 38 272.5 84.5 c 128,-1,29
 221 131 221 131 188 196 c 128,-1,30
 155 261 155 261 142.5 325.5 c 128,-1,31
 130 390 130 390 130 462 c 0,0,1
570 865 m 0,32,33
 482 865 482 865 418.5 816.5 c 128,-1,34
 355 768 355 768 326 696 c 128,-1,35
 297 624 297 624 297 541 c 1,36,-1
 813 541 l 1,37,38
 813 865 813 865 570 865 c 0,32,33
266 1333 m 1,39,-1
 858 1333 l 1,40,-1
 858 1184 l 1,41,-1
 266 1184 l 1,42,-1
 266 1333 l 1,39,-1
EndSplineSet
EndChar

StartChar: Ebreve
Encoding: 276 276 214
Width: 1283
Flags: W
LayerCount: 2
Fore
SplineSet
1003 1882 m 1,0,-1
 1116 1805 l 1,1,2
 1022 1681 1022 1681 911 1620 c 128,-1,3
 800 1559 800 1559 690 1559 c 0,4,5
 569 1559 569 1559 472 1628 c 128,-1,6
 375 1697 375 1697 332 1816 c 1,7,-1
 456 1882 l 1,8,9
 497 1796 497 1796 563.5 1745.5 c 128,-1,10
 630 1695 630 1695 709 1695 c 0,11,12
 862 1695 862 1695 1003 1882 c 1,0,-1
290 0 m 1,13,-1
 290 1421 l 1,14,-1
 1123 1421 l 1,15,-1
 1123 1271 l 1,16,-1
 460 1271 l 1,17,-1
 460 807 l 1,18,-1
 1068 807 l 1,19,-1
 1068 657 l 1,20,-1
 460 657 l 1,21,-1
 460 150 l 1,22,-1
 1123 150 l 1,23,-1
 1123 0 l 1,24,-1
 290 0 l 1,13,-1
EndSplineSet
EndChar

